<svg xmlns="http://www.w3.org/2000/svg" width="58" height="58" viewBox="0 0 58 58" fill="none"><path fill-rule="evenodd" clip-rule="evenodd" d="M10.1662 23.3082C10.1923 23.4467 10.2741 23.3055 10.2962 23.4183C10.3143 23.5104 10.3599 23.3774 10.3953 23.4264C10.4641 23.4901 10.6142 23.5281 10.6244 23.5564C10.6566 23.6449 10.6501 23.5846 10.6802 23.5935L11.3613 23.692L11.8132 23.7917L12.1414 23.7595L13.1816 23.7094L13.2682 23.6661C13.2807 23.6617 13.293 23.6754 13.3055 23.6574C13.3302 23.6277 13.3488 23.5751 13.3736 23.5912C13.3736 23.5925 13.3736 23.5905 13.3736 23.5875C13.3824 23.5432 13.4234 23.5847 13.4355 23.5287C13.4471 23.4749 13.5233 23.5246 13.6027 23.4377L13.7079 23.4024C13.7079 23.4024 13.7413 23.2802 13.7822 23.2569L13.8565 23.0426L13.7699 22.6086L13.6151 22.3226C13.5332 22.2295 13.5202 22.0878 13.2436 22.0298L13.1384 22.0243L12.7793 21.9593L12.3521 22.015C12.2382 22.0507 12.2141 22.0686 12.092 22.0677C12.0797 22.0677 12.061 22.0826 12.0487 22.0844L11.9001 22.0993C11.8441 22.131 11.8517 22.092 11.8197 22.1085C11.62 22.2116 11.3563 22.1306 10.9776 22.2447C10.9528 22.2539 10.9343 22.2323 10.9095 22.2651C10.9039 22.2819 10.9013 22.2294 10.8662 22.2633C10.8435 22.2852 10.6375 22.2771 10.5504 22.3753C10.4731 22.4624 10.1456 22.8681 10.1541 22.9523L10.1666 23.1133C10.2038 23.1245 10.0876 23.1394 10.1662 23.3082ZM15.4353 9.86242L15.4229 9.97259C15.5688 10.0113 15.4551 9.99068 15.5405 10.18C15.5468 10.1894 15.5653 10.1875 15.5653 10.2017C15.5583 10.2542 15.593 10.2316 15.5715 10.2704C15.5337 10.3385 15.5683 10.317 15.5901 10.3366L16.005 10.8964L16.2588 11.2907L16.5189 11.5042L16.7295 11.7159L17.1133 12.0491C17.2673 12.2617 17.3118 12.1825 17.4291 12.2714C17.4662 12.2659 17.522 12.2435 17.5282 12.2714C17.5282 12.2727 17.5282 12.2721 17.5282 12.2708C17.5834 12.2465 17.5559 12.3038 17.6149 12.2721C17.6604 12.2477 17.693 12.3381 17.8006 12.3297C17.8807 12.3234 17.8736 12.4061 17.9306 12.3688C18.0546 12.2878 18.0335 12.3638 18.1102 12.3056C18.1412 12.2834 18.1535 12.2803 18.1597 12.2845L18.2588 12.2307L18.5065 11.8636C18.5936 11.6702 18.5976 11.4566 18.6179 11.4215C18.6861 11.3029 18.5528 11.0855 18.4694 11.0042C18.4694 10.9458 18.4233 10.9278 18.395 10.886C18.2392 10.6553 18.1636 10.6009 17.9121 10.4247C17.9121 10.4228 17.9058 10.4221 17.9058 10.4216C17.7654 10.3433 17.8052 10.3891 17.683 10.273L17.4786 10.1195C17.2283 10.0212 17.2175 9.91439 17.0452 9.78636L16.6924 9.56222C16.6712 9.56545 16.712 9.53157 16.6614 9.53064C16.6324 9.53018 16.4908 9.37599 16.3579 9.38268C16.2379 9.38867 15.7231 9.43523 15.6644 9.50713C15.6006 9.58561 15.5755 9.6339 15.522 9.64462C15.4331 9.66213 15.3512 9.87291 15.4353 9.86242ZM28.2272 5.7487L28.2582 5.98275V6.29171C28.2582 6.32017 28.2767 6.34864 28.2767 6.37722L28.2892 6.77042C28.2935 6.88427 28.2559 7.06439 28.3511 7.15371L28.3573 7.2119C28.3883 7.23483 28.444 7.2565 28.4254 7.28058C28.4231 7.28738 28.4564 7.27505 28.4564 7.31712C28.4564 7.34097 28.5442 7.35169 28.5307 7.45079C28.523 7.50772 28.6174 7.49666 28.6174 7.63287C28.6174 7.64866 28.723 7.6535 28.7598 7.71089L28.9765 7.78891L29.2985 7.73382C29.6373 7.63218 29.708 7.49839 29.8 7.45955C29.9428 7.39928 29.9919 7.17237 29.9919 7.03662L30.06 6.66013L30.0042 6.20321C29.996 6.15746 29.9484 6.08935 29.9484 5.93136L29.9113 5.66826C29.9179 5.65985 29.8555 5.54058 29.8555 5.44412C29.8555 5.11707 29.8268 4.98512 29.7564 4.68688C29.7376 4.67536 29.7848 4.68342 29.7564 4.64286C29.7201 4.591 29.7422 4.40316 29.645 4.3097C29.5614 4.22949 29.1548 3.88423 29.063 3.89426L28.9083 3.90659C28.902 3.90786 28.8958 3.90843 28.8958 3.9097L28.7906 3.87628C28.5503 3.93874 28.671 3.98541 28.6482 3.99452C28.6482 4.0057 28.6358 4.01676 28.6358 4.02863C28.5544 4.08556 28.5391 3.97838 28.5925 4.10538C28.6147 4.15827 28.5864 4.10757 28.5058 4.29852L28.4625 4.38645C28.3732 4.40754 28.4323 4.42229 28.4254 4.44522L28.3573 5.00125L28.2211 5.60868L28.2272 5.7487ZM39.6879 11.7923C39.6879 11.8361 39.7506 11.8765 39.7312 11.8957C39.7312 11.9466 39.8172 12.0207 39.917 12.0864C40.0919 12.2016 40.0075 12.1925 40.2638 12.2821C40.4598 12.3507 40.514 12.3213 40.5981 12.3564C40.6971 12.3977 40.8334 12.3319 40.8334 12.3261L41.0129 12.2079C41.0129 12.2061 41.0192 12.2029 41.0192 12.2036L41.2606 12.0452L41.5949 11.6409L41.7435 11.418C41.7558 11.4087 41.7558 11.3883 41.762 11.3771L41.8611 11.2576C41.8779 11.1967 41.8904 11.2327 41.9107 11.1963C41.9293 11.1514 41.9104 11.1441 41.985 11.044L42.307 10.6682L42.4555 10.4286C42.4539 10.4081 42.4865 10.449 42.4865 10.3994C42.4865 10.3789 42.6351 10.2401 42.6351 10.0923C42.6351 9.97605 42.5816 9.46346 42.5112 9.40134L42.3873 9.29613C42.3873 9.19103 42.152 9.07326 42.152 9.17605C42.0607 9.20359 42.0524 9.12696 42.0468 9.15877C42.0203 9.30662 41.9976 9.18873 41.8362 9.28011L41.7681 9.31595C41.7534 9.32218 41.6952 9.26479 41.6877 9.30673L41.2418 9.66951C41.0898 9.77887 40.7473 9.93859 40.6536 10.0756C40.6194 10.1257 40.5607 10.2344 40.5112 10.2564L39.7991 11.0421C39.7682 11.1029 39.8127 11.0806 39.7433 11.1684C39.7496 11.2044 39.7743 11.2569 39.7433 11.2619C39.7433 11.265 39.7703 11.2722 39.7433 11.3071C39.7264 11.3291 39.7738 11.3858 39.7062 11.4532C39.6672 11.4921 39.7087 11.5733 39.6691 11.5938C39.593 11.6332 39.7044 11.731 39.6879 11.7923ZM44.6288 22.8654C44.6951 23.0774 44.5802 22.9403 44.7774 23.3335C44.8448 23.468 44.8675 23.4393 44.9013 23.5385L45.0808 23.6859C45.1768 23.7211 45.1635 23.7328 45.2789 23.728C45.2789 23.728 45.2851 23.7274 45.2851 23.7305L45.6257 23.7949L46.0405 23.7398C46.1168 23.7227 46.1347 23.6858 46.2819 23.6872C46.2944 23.6872 46.3129 23.6723 46.3253 23.6705L46.4677 23.6556C46.5239 23.6238 46.5093 23.6632 46.542 23.6463L46.6906 23.5925C46.9022 23.5925 47.0252 23.5861 47.2231 23.5343L47.4089 23.4897C47.4209 23.4774 47.4172 23.5254 47.4522 23.4915C47.4946 23.4505 47.6562 23.5256 47.83 23.289C47.8832 23.2165 48.1345 22.8759 48.1272 22.8024C48.1272 22.8021 48.0896 22.7065 48.1272 22.6036C48.1697 22.5377 48.1034 22.331 48.0467 22.3875L48.0034 22.3695L47.9786 22.3014C47.8477 22.3792 47.9669 22.3188 47.762 22.2407C47.7617 22.2406 47.685 22.2281 47.6815 22.1979C47.6724 22.1204 47.6399 22.165 47.6258 22.1608L46.9818 22.0624L46.5484 21.9627L46.3316 21.9893C46.3006 21.9782 46.2697 22.0246 46.2387 21.9949C46.1758 21.9693 45.5283 22.0374 45.4833 22.0296C45.4341 22.0087 45.2573 22.0123 45.1799 22.0872C45.1737 22.0921 45.1676 22.0866 45.1676 22.0885C45.1552 22.0927 45.1428 22.0791 45.1305 22.0965C45.1057 22.1263 45.0871 22.1795 45.0686 22.1628C45.0503 22.1546 45.0853 22.1845 45.0315 22.1912C45.0178 22.193 44.9952 22.274 44.9138 22.2693C44.851 22.2656 44.883 22.3454 44.7466 22.3522C44.7354 22.3528 44.7178 22.4792 44.6785 22.4978C44.6423 22.5147 44.662 22.5984 44.6352 22.6024C44.5941 22.7467 44.6001 22.6875 44.6288 22.8654ZM26.7288 21.9596C26.7351 21.9583 26.7474 21.9541 26.7536 21.9491C26.8634 21.8678 27.0687 21.8742 27.2304 21.7659C27.4309 21.6316 27.8267 21.6807 28.0043 21.3578C28.195 21.0108 28.221 21.0227 28.3759 20.6087C28.4882 20.3082 28.5571 20.213 28.6793 19.9307C28.7148 19.8486 28.7397 19.5798 28.8774 19.2886C28.9689 19.0952 28.9364 19.0559 29.0136 18.9016L29.1437 18.553C29.0489 18.631 29.0486 18.5758 29.026 18.5883C28.8964 18.6597 28.938 18.5704 28.8836 18.6019C28.6484 18.7377 27.8952 19.4699 27.7072 19.6817C27.5525 19.8575 27.4038 20.0395 27.2305 20.1975C27.1809 20.2432 27.1314 20.2947 27.0882 20.3498C26.8281 20.3907 26.5742 20.4383 26.3204 20.4978L25.3174 20.7115L24.4443 20.9306C24.2345 20.9567 24.0351 20.9971 23.8624 21.1355C23.4908 21.4265 23.4227 21.9627 23.7199 22.3324L25.4721 24.489L25.404 25.9397L25.3545 27.3587C25.3113 27.9303 25.9619 28.4324 26.5556 28.1679C27.3056 27.834 27.9149 27.5436 28.6979 27.22L29.1499 27.0144L30.0415 27.3685L30.6793 27.5963L31.7319 28.0037C31.8612 28.0559 31.9461 28.0904 32.1034 28.0805C32.4997 28.0564 32.7969 27.7183 32.7721 27.3263L32.5864 24.3853C32.6017 24.3377 34.0429 22.6082 34.1591 22.4145C34.2018 22.3431 34.4644 22.1628 34.5058 21.8764C34.5554 21.5588 34.3325 21.2622 34.0166 21.2139L33.2737 21.0486C32.3877 20.8425 31.935 20.7208 31.0324 20.6066C30.6788 20.143 29.9738 19.4416 29.5526 18.9441C29.4962 18.8775 29.2236 18.5277 29.2368 18.6203C29.2554 18.684 29.2864 18.7181 29.2987 18.7863C29.2925 18.7943 29.2862 18.803 29.2801 18.8103C29.2391 18.802 29.2711 18.8681 29.2864 18.8939L29.144 18.7107C29.2321 19.1165 29.607 19.8477 29.6393 20.0338C29.6393 20.2085 29.872 20.4366 29.9489 20.6648L30.2709 21.3594C30.3995 21.5971 30.6841 21.6457 30.9396 21.7216C31.0627 21.7582 31.5537 21.8844 31.6144 21.939C31.7426 22.0541 31.895 22.046 32.0603 22.0932L32.5123 22.2232L31.4659 23.4417C31.2611 23.6904 31.0617 23.8259 31.0944 24.212L31.1377 25.9927L30.0913 25.5655L29.4288 25.3191C29.0393 25.1682 28.7958 25.3583 28.4567 25.4825C28.1905 25.5809 27.9429 25.732 27.6705 25.8131L27.1689 26.0174L27.2618 24.2089C27.2742 23.9996 27.206 23.7854 27.0637 23.6132L26.296 22.7117C26.2156 22.6176 26.1227 22.5316 26.0483 22.4337C26.005 22.3718 25.9555 22.3105 25.9059 22.2498C26.005 22.2188 26.1165 22.2046 26.2154 22.1606C26.3821 22.0865 26.5431 21.9912 26.7288 21.9596ZM49.0372 39.0813C48.9496 38.8423 48.7436 38.6014 48.5357 38.4503C48.2219 38.2223 47.8037 38.2239 47.4708 38.4002L46.672 38.8546C45.1543 39.7093 43.4716 40.6098 41.9231 41.413C40.0279 42.3959 36.9873 43.9489 34.8894 44.4519C34.1208 44.6362 33.5172 44.73 32.7162 44.7702C32.6977 44.7715 32.6729 44.7708 32.6544 44.7702C32.6544 44.934 32.4753 45.3114 32.3076 45.4656C32.0473 45.7049 31.7215 45.8387 31.6884 45.865C31.5976 45.9371 31.5933 45.8788 31.5647 45.9089C31.4838 45.9937 30.8734 46.1109 30.7349 46.1299L30.3077 46.1411C30.1232 46.1398 29.3127 45.9608 29.088 45.9392L28.5741 45.8717C28.4997 45.8581 28.4316 45.8414 28.3635 45.8296C28.3264 45.824 28.2954 45.8309 28.2583 45.8234C27.9033 45.7464 27.9419 45.7685 27.602 45.733L26.3699 45.5342L25.7321 45.3801L25.4968 45.3491C25.3508 45.3223 24.9332 45.2327 24.8405 45.1447C24.7265 45.0366 24.6506 45.0642 24.5185 44.9584C24.4432 44.898 24.2194 44.783 24.1718 44.6736L24.0108 44.39C24.098 44.2898 24.0299 44.2799 24.0851 44.2694C24.1399 44.2589 24.098 44.1773 24.178 44.1524C24.3362 44.1031 24.2622 43.9518 24.5 43.9679C24.6075 43.9752 24.6833 43.8763 24.8282 43.8756C25.1074 43.8743 25.1148 43.797 25.1811 43.797C25.2876 43.797 25.258 43.7661 25.2802 43.7717C25.342 43.7902 25.404 43.7407 25.4659 43.7147L25.6207 43.7166C25.8209 43.6631 26.2948 43.7135 26.4938 43.7723L27.2181 43.89C27.3358 43.9129 27.4535 43.9352 27.571 43.9581C27.6391 43.9706 27.7134 43.9711 27.7816 43.9829L28.5122 44.1457L29.3976 44.3111L30.3511 44.6213C30.5365 44.7026 31.0696 44.6655 31.2922 44.5693L31.5089 44.4579C31.5416 44.4031 31.5914 44.4752 31.6141 44.4604L31.9546 44.2605C31.8939 44.0888 31.8895 43.939 31.9422 43.7639C32.1564 43.0526 31.7905 42.3588 31.063 42.0989L30.5429 41.9348L24.0789 39.9436C23.7634 39.8451 23.3442 39.8262 22.9892 39.7455C22.736 39.6879 22.1543 39.7887 21.8871 39.8371C21.0065 39.9967 19.2527 40.9506 18.3022 41.3083C17.9355 41.4463 16.409 42.085 16.0299 42.0457C15.9135 42.0336 15.0036 42.2357 14.8287 42.2872C14.1784 42.4785 13.4893 42.6104 12.8226 42.6711L12.8659 44.0357L12.8845 44.6846C12.9047 44.9077 12.8704 44.9511 12.8783 45.0275C12.9203 45.4356 12.9161 46.2138 12.9278 46.6571L12.9712 48.3004C12.9849 49.3426 12.9532 50.4703 12.9959 51.5039C13.5347 51.4862 13.4096 51.4068 13.968 51.3881C14.4509 51.3714 14.9153 51.3343 15.3487 51.2599C15.6445 51.2087 16.5832 51.218 16.8966 51.2253C17.8558 51.2477 18.6826 51.1702 19.7075 51.2216L21.6393 51.3299C22.0571 51.3584 22.2062 51.3339 22.6856 51.3819C22.9333 51.4061 23.1809 51.4512 23.4225 51.4512L25.0385 51.6636C25.4546 51.7244 25.9018 51.8562 26.2954 51.9243C28.043 52.2266 29.5345 52.5325 31.2982 52.1385C32.2691 51.9217 33.0653 51.6317 33.9544 51.2172C36.4536 50.052 39.5795 47.9569 41.8053 46.1648C43.4778 44.8183 44.9805 43.5725 46.5915 42.1422C46.9382 41.835 47.2725 41.5094 47.6255 41.2153C47.8558 41.0197 48.5674 40.3667 48.8267 40.0791C49.0615 39.8185 49.1544 39.4239 49.0372 39.0813ZM12.7976 42.3424C12.909 42.3412 13.0638 42.2885 13.1505 42.3096C13.0152 42.4451 12.8661 42.4511 13.1442 42.4328C13.0328 42.4669 12.9214 42.5009 12.816 42.5349L12.7976 42.3424ZM50.7586 39.5438C50.705 40.5328 50.2571 41.0606 49.6007 41.6904C48.9507 42.299 48.2944 42.9009 47.6317 43.4972C44.6224 46.2158 41.9644 48.4672 38.5177 50.6826C36.1824 52.1836 33.4992 53.6789 30.679 53.9963C29.7423 54.1018 29.2799 54.0604 28.3695 53.9555C26.4798 53.7377 25.0863 53.2512 23.3728 52.9723C22.2336 52.8001 21.0881 52.6571 19.9365 52.5413C19.7755 52.5259 19.6083 52.5048 19.4535 52.4806C18.5446 52.3382 17.3203 52.3038 16.3577 52.2106C15.3407 52.1121 14.5065 52.0866 13.4724 51.9332C13.3313 51.9122 13.363 51.8628 13.0019 51.792C13.0019 52.2147 13.0335 52.6283 12.7976 53.0124C12.1419 54.0801 11.3869 54.0403 10.3023 54.0569C9.5846 54.0579 8.96242 54.1445 8.33955 53.7287C7.74041 53.3288 7.44148 52.7342 7.42938 52.0279C7.40898 50.8417 7.37418 49.5833 7.39838 48.4071C7.41209 47.7402 7.41106 46.7995 7.45416 46.1434L7.46038 45.2722C7.47156 44.7654 7.53471 43.21 7.64615 42.8525C7.82177 42.2893 7.65479 41.7659 8.23433 41.2235C8.47161 41.0014 8.69621 40.8907 9.00828 40.8916C9.02073 40.8916 9.03928 40.8928 9.05161 40.8996C9.19151 40.9954 9.22827 40.9642 9.30549 41.0167C9.39837 41.0879 9.39215 41.0935 9.48503 41.1282C9.2587 41.2148 9.4084 41.2147 9.27449 41.2638C9.1324 41.3158 9.22874 41.3567 9.09494 41.4465C8.8995 41.5776 8.95769 41.7424 8.92773 41.8068C8.74196 42.2063 8.9154 42.2959 8.9154 42.9213C8.9154 43.0119 8.92082 43.6351 8.95873 43.7324C9.01474 43.8762 8.96587 44.1287 9.0145 44.2203C9.02073 44.2289 9.02073 44.2388 9.02073 44.2476C9.00217 44.4308 9.05784 44.603 9.08884 44.7789L9.09506 45.2321C9.18471 45.8989 9.1695 47.1465 9.15083 47.8548C9.15083 47.9743 9.16328 48.0944 9.16328 48.2139C9.16386 48.5697 9.15913 51.8802 9.20039 52.1289C9.29915 52.4557 9.58863 52.3302 9.90001 52.3647C10.1787 52.3945 10.4511 52.348 10.7297 52.3591L11.095 52.3573C11.096 52.3566 11.3198 52.2936 11.3427 52.1449L11.4108 50.2905L11.516 45.0827L11.547 42.998C11.5144 42.7271 11.606 42.7306 11.6089 42.6123C11.6223 42.0737 11.7267 41.9246 11.3613 41.5753C11.232 41.4451 10.8987 41.6031 10.804 41.5041C10.7025 41.3981 10.0464 41.5225 9.72046 41.3939L9.48514 41.2862C9.53493 41.2427 9.71101 41.2228 9.78235 41.2094C9.70007 41.1601 9.70664 41.2227 9.79479 41.0905C9.7676 41.053 9.5733 41.0443 9.70191 40.9983C9.92041 40.9202 10.6121 40.8304 10.9031 40.7723C11.2329 40.7065 11.4624 40.6915 11.807 40.8237C12.8011 41.2051 12.769 42.2495 12.7977 42.3121C12.9072 42.2429 14.0045 41.9179 14.2156 41.8558C15.0427 41.6125 16.2982 41.2427 17.1257 40.9041C19.5345 39.9185 21.2001 37.9959 24.1841 38.6423L25.5277 39.0194L28.1468 39.784C28.4993 39.8888 29.0478 40.02 29.3356 40.1363C29.3913 40.1592 29.4594 40.1784 29.5213 40.1926C30.0376 40.3122 30.7462 40.5455 31.3046 40.7041C31.7422 40.8284 32.0718 40.9672 32.4438 41.2756C33.0197 41.7554 33.385 42.4717 33.4283 43.2229V43.239C33.9328 43.1891 34.7507 42.9864 35.2239 42.8174C38.2987 41.7195 42.3542 39.4255 45.3904 37.6752C45.61 37.5482 46.6151 36.9244 46.8702 36.8152C47.9925 36.3346 49.2844 36.6314 50.0589 37.5706C50.5398 38.1538 50.8033 38.7171 50.7586 39.5438ZM18.624 14.8702C18.7802 14.8906 19.0298 14.8194 19.206 14.8467C19.4413 14.89 19.4413 14.89 19.6889 14.919C19.5032 14.9493 19.3299 14.9828 19.237 15.0676C19.1963 15.1055 18.9223 15.1414 18.7726 15.3128L18.4754 15.5847C18.2029 15.8354 18.0357 16.1803 18.0109 16.5016C17.9994 16.8015 17.9682 16.8788 17.9738 17.2205C17.9801 17.4074 17.9801 17.5944 17.9738 17.7833C17.9553 18.5286 18.0543 19.5381 18.0543 20.3807C18.0543 20.6227 18.0575 22.24 18.0976 22.5106C18.1518 22.8762 18.106 23.5701 18.1534 23.7935C18.1596 23.8152 18.1596 23.8413 18.1596 23.8648C18.141 24.3452 18.1967 24.7984 18.2277 25.2597C18.2526 25.629 18.2162 26.1051 18.2339 26.4504L18.2958 28.797C18.3168 29.559 18.9439 30.1419 19.7075 30.1419L20.7477 30.1531C21.0634 30.158 21.3792 30.1456 21.6888 30.145L24.5432 30.1419C25.7532 30.1577 26.7286 30.7168 27.4099 31.7114L29.1312 34.2154L30.9206 31.5938C31.5804 30.6506 32.5465 30.1539 33.6944 30.1307L36.6478 30.1072L38.5239 30.0868C39.1991 30.0858 39.7031 29.7119 39.886 29.067C39.9558 28.8211 39.9343 28.456 39.9356 28.2064C39.9628 25.3129 40.0278 22.3945 40.0347 19.5017L40.047 16.9154C40.0329 16.1545 39.3866 15.5281 38.5549 15.5243L31.9917 15.4828L31.0197 15.476C30.7348 15.4865 30.4624 15.4853 30.2086 15.4332L26.8527 15.3578C26.3388 15.3405 25.8187 15.3361 25.3048 15.3032C24.8616 15.2747 23.9755 15.3174 23.4968 15.3299C23.1104 15.3399 23.261 15.2717 22.8962 15.2624L22.0294 15.2439C21.2084 15.2884 20.5742 15.2347 19.7818 15.1064C19.7571 15.102 19.7323 15.091 19.6889 15.0779C19.8268 15.033 20.2951 15.0128 20.4752 15.0005C20.2184 14.9618 20.3358 14.9811 20.5062 14.8823C20.4441 14.8489 19.9306 14.835 20.2648 14.7894C20.6797 14.733 21.1254 14.7095 21.5651 14.6835C24.8134 14.4906 27.9319 14.2187 31.2055 14.1851L35.0133 14.148C35.3559 14.1453 35.8707 14.1133 36.1649 14.1412C36.2207 14.1467 36.2888 14.1461 36.3445 14.1417C36.815 14.1096 37.2917 14.1313 37.7624 14.1213C38.2206 14.1132 38.6992 14.086 39.1493 14.1634C40.4715 14.3911 41.5013 15.6176 41.5145 16.9936L41.5516 27.4518C41.5516 28.0544 41.6532 29.0594 41.4339 29.6555C41.2967 30.0285 41.2269 30.2318 40.9695 30.5755C40.3416 31.4139 39.5175 31.7537 38.5114 31.7755L35.0874 31.7935L33.8367 31.8102C33.3262 31.8102 32.9018 31.9439 32.5304 32.3241C32.2634 32.5973 31.0599 34.4835 30.8029 34.8695L29.868 36.2669C29.5523 36.7349 28.8448 36.8336 28.413 36.2669L27.218 34.5481L25.8807 32.6033C25.543 32.1344 25.0494 31.9214 24.4813 31.9166L19.7324 31.8973C18.2448 31.8842 16.9429 30.8723 16.6428 29.3866C16.5988 29.1687 16.5933 28.8923 16.5933 28.6615C16.5999 27.2982 16.6293 21.5134 16.7852 20.1994C16.9126 19.1266 16.8816 17.9473 17.0391 16.8015C17.1557 15.9527 17.7218 15.1796 18.5312 14.8908C18.5682 14.8782 18.6053 14.8678 18.624 14.8702Z" fill="white"></path></svg>