<svg xmlns="http://www.w3.org/2000/svg" width="65" height="65" viewBox="0 0 65 65" fill="none"><rect x="0.562012" y="0.607666" width="63.6105" height="63.6105" rx="31.8053" fill="#1F9CBD"></rect><path fill-rule="evenodd" clip-rule="evenodd" d="M45.1943 30.1754L43.4062 33.2615C43.1186 33.766 42.8511 34.2828 42.5523 34.7848C42.3049 35.2006 42.0938 35.6343 41.8338 36.0443C41.6796 36.2869 41.5424 36.5469 41.3977 36.7989L38.7412 41.4589L38.4008 40.0588C38.3509 39.8535 38.293 39.6501 38.2463 39.4458C38.1566 39.0424 38.0642 38.6393 37.962 38.2387C37.7649 37.4691 37.5983 36.6908 37.3859 35.925L36.9078 34.128C37.0631 34.0582 36.9965 34.1504 37.0656 34.0978C37.124 34.0535 37.2436 33.948 37.3098 33.9303C37.5026 33.8789 38.0019 33.592 38.0451 33.6005C38.1311 33.6175 38.1591 33.5606 38.2272 33.5231C38.2552 33.5084 38.2855 33.4981 38.3126 33.4825L40.1101 32.4713C40.8888 32.0466 41.4628 31.7902 42.2091 31.2968C42.2679 31.2576 42.3268 31.2165 42.3898 31.184C42.4957 31.1306 42.5797 31.0415 42.6923 30.999L43.5779 30.4723C43.6582 30.4223 43.7348 30.3652 43.8156 30.3147L44.9383 29.637C44.9822 29.6101 45.0219 29.5766 45.0672 29.5535L45.8497 29.0698L45.1943 30.1754ZM36.5769 37.7917C36.3919 37.7882 36.2665 37.8536 36.1151 37.8427C35.9523 37.8308 35.3791 38.0474 35.1851 38.1268L34.8686 38.2688L33.7914 38.7176L33.5034 38.8596L33.4805 38.2075C33.4625 38.0471 33.4841 38.0557 33.4735 37.9588C33.4301 37.5472 33.4398 37.0818 33.4282 36.6597L33.3619 34.95C33.3493 34.9103 33.3876 34.9272 33.3628 34.8118C33.3413 34.711 33.3573 34.0786 33.2825 33.7698L33.037 32.8992C33.9144 33.4807 34.8632 33.9745 35.811 34.4601L36.3321 36.6894C36.3414 36.7291 36.3522 36.7682 36.3587 36.8073C36.4184 37.1329 36.5001 37.4562 36.5762 37.7803L36.5781 37.7917C36.5782 37.7917 36.5778 37.7917 36.5769 37.7917ZM32.0314 38.7737L31.3549 38.9691C30.5512 39.2397 29.2811 39.7308 28.515 40.0719C28.0915 40.2616 27.6685 40.4565 27.2526 40.6274C26.4473 40.9552 24.9975 41.7533 24.245 42.2101C23.051 42.935 21.7194 43.8164 20.7594 44.8777C20.4864 45.1796 20.3276 45.3536 20.1655 45.7404C19.6759 46.9085 20.451 48.0578 21.491 48.5369C23.304 49.372 26.697 49.1317 28.6038 48.9507L31.1029 48.6557C30.4226 48.8288 29.2427 49.1073 28.573 49.2083C28.4591 49.2258 28.3428 49.2489 28.2284 49.2711C27.8447 49.3414 27.4609 49.4098 27.0748 49.465C26.5472 49.5387 26.0169 49.5868 25.4907 49.643C24.7692 49.7244 23.3759 49.7177 22.7082 49.6722C21.4407 49.586 19.989 49.326 18.9531 48.5954C18.2472 48.0975 17.6409 47.2445 17.736 46.336C17.8319 45.4192 18.5934 44.5057 19.2193 43.851C19.3311 43.734 20.1132 42.9918 20.2361 42.9072C20.4516 42.759 20.7783 42.4681 21.0331 42.2753C22.6135 41.08 24.1161 40.2253 25.7952 39.2363C27.4633 38.2538 29.6449 37.0739 31.377 36.2563C31.7103 36.0997 32.047 35.9458 32.364 35.784C32.3567 35.978 32.3638 36.2515 32.3416 36.4385L32.3104 37.0656C32.2845 37.5615 32.2614 37.7749 32.2725 38.2704C32.2752 38.3899 32.2991 38.5461 32.2898 38.6701C32.2879 38.6951 32.2879 38.7206 32.2898 38.7466C32.1887 38.768 32.0967 38.7817 32.0314 38.7737ZM19.1943 42.496C19.1943 42.4988 19.1943 42.5022 19.1948 42.505C20.2214 41.6045 21.5886 40.6712 22.7496 39.9581L23.3649 39.5957C23.326 39.2731 23.2401 39.4322 23.2622 38.9936C23.2717 38.8043 23.206 38.6135 23.2075 38.3684C23.2078 38.3215 23.2002 37.9114 23.1767 37.8545C23.1301 37.7415 23.173 37.6548 23.1347 37.5464C23.1328 37.5403 23.1314 37.5346 23.1319 37.5285C23.1436 37.4133 23.1052 37.3039 23.0847 37.1925C23.0716 37.1264 23.081 37.0594 23.0782 36.9929L23.0474 36.5489L23.0361 35.2464C23.0398 35.1704 23.031 35.095 23.031 35.0189L23.0235 33.0847C23.0221 32.945 23.0127 32.8053 23.0105 32.6651L23.0114 31.1452C23.0333 30.9702 22.9997 30.7969 23.0077 30.6228C23.0173 30.419 22.9926 30.192 22.9908 29.9938L22.9871 29.3889C22.9089 29.4319 22.7236 29.4269 22.6369 29.4224C22.4473 29.4124 22.2743 29.4787 22.0314 29.4771C21.9856 29.4769 21.5896 29.4847 21.5342 29.5083C21.4246 29.5549 21.3193 29.5134 21.2344 29.5508C21.2292 29.5531 21.2232 29.5546 21.2181 29.5536C21.1056 29.5418 20.9996 29.5805 20.8922 29.6022C20.8278 29.615 20.7629 29.605 20.699 29.6079C20.4071 29.6191 19.9831 29.6909 19.7597 29.8258C19.5465 29.9546 19.5121 29.9653 19.4273 30.1495C19.4031 30.202 19.4198 31.415 19.4208 31.5501C19.4221 31.687 19.4324 31.8238 19.4338 31.9606L19.4329 33.4494C19.4119 33.6208 19.445 33.7906 19.4366 33.961C19.4273 34.1682 19.4527 34.3807 19.4544 34.5768C19.4594 35.5261 19.4102 36.4544 19.3848 37.4007L19.3148 40.8592C19.3106 40.9686 19.3471 41.0423 19.2877 41.1423C19.2607 41.1878 19.2618 41.4869 19.2573 41.5666C19.2472 41.7459 19.2263 42.1374 19.1948 42.2999C19.1827 42.3629 19.1906 42.4309 19.1943 42.496ZM23.9685 39.1135C23.9531 39.1645 23.9405 39.2159 23.9274 39.2682C24.0031 39.23 24.0801 39.1951 24.1566 39.1663C24.3101 39.1088 25.3041 38.5611 25.5969 38.4117C26.3554 38.0242 27.3549 37.5338 28.1325 37.2117C28.2348 37.1692 28.3393 37.1211 28.443 37.072C28.2961 36.1623 28.109 35.4877 28.075 34.5402L28.0432 33.4563C28.0214 33.2855 28.0555 33.2806 28.0441 33.226L27.9802 31.0294C27.9669 30.2068 27.9831 29.3679 27.954 28.5421C27.9498 28.4293 27.9391 28.3156 27.9325 28.2023L27.9148 26.9504C27.9139 26.8767 27.9031 26.8027 27.9031 26.7281L27.8606 25.1275C27.2058 25.2544 26.5722 25.4077 25.9003 25.4526C25.6437 25.4697 25.0856 25.4511 24.8437 25.5522C24.7374 25.5967 24.6996 25.5885 24.6807 25.6017C24.5704 25.6795 24.4983 25.6806 24.3703 25.7928C24.1377 25.9967 24.1222 26.0609 24.1294 26.3483L24.1704 29.1825C24.1741 29.2896 24.1844 29.3958 24.1919 29.5029L24.1984 29.895L24.2586 32.2295C24.2873 32.9012 24.2908 33.7892 24.2983 34.4771L24.2521 36.3288L24.2474 36.8804C24.2381 37.2024 24.1928 38.1873 24.1144 38.4117C24.0465 38.607 24.0434 38.8654 23.9685 39.1135ZM32.2672 35.7002C32.3878 35.6208 32.3268 35.6461 32.2032 35.6757C32.2593 35.6498 32.3143 35.6242 32.3694 35.5992C32.368 35.6422 32.3666 35.6856 32.3653 35.7285C32.3065 35.7488 32.249 35.7672 32.2079 35.7657C32.2275 35.7432 32.2476 35.722 32.2672 35.7002ZM28.8324 36.839C28.8311 36.8536 28.8296 36.8701 28.8324 36.8843C29.0241 36.7918 29.7205 36.4315 29.8903 36.4133C29.9847 36.4032 30.7059 36.1075 30.8404 36.0429C31.285 35.8293 31.8939 35.597 32.3722 35.478L32.4119 34.194C32.4154 34.1211 32.3812 34.0715 32.4386 34.0109C32.4687 33.979 32.4753 33.4533 32.532 33.2592C32.5661 33.142 32.4706 32.9677 32.5371 32.9317C32.5931 32.9012 32.5601 32.7084 32.5731 32.6061L30.0511 31.0413C30.0376 30.9995 29.7112 30.7944 29.6467 30.7591L30.749 31.2022C31.025 31.3206 31.3065 31.4329 31.5968 31.5273L32.4628 31.8779C32.9545 32.0938 33.4943 32.2695 34.0012 32.4909L35.2169 33.0086C35.4918 33.0886 35.7472 33.2527 35.955 33.312C35.969 33.3158 35.9834 33.3219 35.9961 33.3285C36.18 33.4257 36.3682 33.4994 36.5554 33.5706C36.6226 33.596 36.6787 33.6362 36.723 33.6857L37.3958 32.9967C37.6434 32.7614 38.225 32.4348 38.3099 32.3577C38.4008 32.2753 38.409 32.3142 38.4369 32.2836L39.2217 31.7604C39.8563 31.3374 40.5467 30.9765 41.1369 30.5419C41.2181 30.482 41.2351 30.4947 41.3624 30.3999L41.8153 30.1167C41.855 30.0913 41.8905 30.0578 41.9315 30.0342C42.2438 29.8506 42.4015 29.7304 42.6902 29.5368L43.9787 28.7219L44.3032 28.5369L41.6018 28.9909L37.5863 29.6227C37.2886 29.6666 37.1278 29.7174 36.7983 29.728C36.7534 29.7299 36.7007 29.7355 36.655 29.7417C35.6298 29.8858 34.5858 30.0613 33.562 30.1933L32.4107 30.3911L31.9765 30.4415C31.2443 30.5528 30.4988 30.7022 29.7589 30.7737L30.2164 30.6746C30.2001 30.677 30.186 30.6784 30.1715 30.6808C30.0388 30.7006 30.121 30.6875 30.1529 30.6577C30.0716 30.6624 29.9788 30.6846 29.8919 30.6926L33.1497 29.9371C33.0982 29.8953 33.154 29.8599 33.0899 29.8016C33.0205 29.7387 33.0826 29.6232 32.9676 29.4393C32.9177 29.3596 32.9625 29.1314 32.9218 28.9197C32.8845 28.7254 32.8846 28.5281 32.8756 28.3313C32.8652 28.1031 32.8341 28.1714 32.8322 28.0439L32.8116 27.8891C32.8233 27.7896 32.7855 27.6962 32.7644 27.6008C32.7518 27.5441 32.7616 27.4871 32.7584 27.4299L32.7267 27.0496L32.7164 25.9341C32.7201 25.8694 32.7113 25.8048 32.7108 25.7392L32.7043 24.0829C32.7029 23.9635 32.6921 23.8432 32.6902 23.7233L32.6917 22.4213L32.6805 21.6455C32.652 21.6554 32.623 21.6673 32.5959 21.6814C32.5291 21.7158 32.307 21.7111 32.2336 21.7074C32.0382 21.6975 31.8367 21.7637 31.5773 21.7621C31.5301 21.7619 31.0965 21.7707 31.038 21.7938C30.9162 21.842 30.8121 21.7978 30.714 21.8358C30.708 21.8382 30.7015 21.8396 30.6958 21.8391C30.5744 21.8268 30.4596 21.8655 30.3433 21.8872C30.1976 21.9135 30.1269 21.855 29.7971 21.9645C29.5186 22.057 29.2787 22.152 29.1174 22.3954C29.101 22.42 29.1015 22.4469 29.0987 22.4667L29.1001 24.4033C29.1025 24.551 29.1123 24.6997 29.1142 24.8483L29.1127 26.4608C29.0917 26.6467 29.1244 26.8302 29.1175 27.0152C29.1123 27.1261 29.1175 27.2385 29.1207 27.3489L29.1385 28.4144L29.0549 31.1122L29.0344 32.3826L29.0068 33.7827L28.9984 34.5882C29.0173 34.7689 28.9588 34.7697 28.9541 34.8477C28.9341 35.1734 28.9244 35.7769 28.8747 36.0482C28.8407 36.2346 28.9357 36.5367 28.8696 36.5961C28.8354 36.6263 28.8371 36.7735 28.8324 36.839ZM33.4208 29.8181C33.3797 29.8346 33.354 29.8625 33.3302 29.8922L35.0581 29.4703C36.0765 29.2189 37.1343 28.9969 38.1619 28.7724C38.1072 28.4664 38.0735 27.9777 38.0255 27.6346C37.9345 26.9849 37.8645 26.2136 37.8033 25.5536C37.7488 24.9667 37.7443 24.1122 37.7346 23.5203L37.7229 22.8402C37.7065 22.6398 37.7318 22.5464 37.7238 22.4816L37.7 21.4123L37.6566 17.8811C37.5707 17.8994 37.4848 17.9188 37.3994 17.9419C37.0993 18.0238 36.6469 18.1104 36.3345 18.1671C36.029 18.2225 35.3516 18.236 35.0338 18.2421C34.9503 18.2437 34.8999 18.2729 34.8372 18.2562L34.5814 18.3128C34.2725 18.4004 33.8797 18.622 33.8311 18.9508L33.8348 20.3665C33.8521 20.4906 33.8455 20.6161 33.8502 20.7412C33.8535 20.8323 33.8647 20.9238 33.8713 21.0154L33.889 22.0257C33.8899 22.0851 33.9007 22.1456 33.9007 22.205L33.9385 23.3503L33.9782 25.2757L33.932 26.8612L33.9283 27.3331C33.9191 27.6066 33.8709 28.4569 33.7943 28.6445C33.7531 28.7474 33.7368 28.8535 33.7186 28.9597L33.5141 29.6577L33.4208 29.8181ZM38.512 28.1179C38.5153 28.0502 38.514 27.7878 38.5489 27.739C38.6114 27.6517 38.5246 27.1484 38.554 26.8844C38.5891 26.5695 38.607 25.9773 38.6171 25.6448C38.6211 25.5127 38.6189 25.0053 38.6475 24.9284C38.7038 24.7764 38.6713 24.6169 38.6735 24.4485C38.6749 24.3721 38.6824 24.2956 38.6824 24.2182L38.7132 21.1647L38.7646 17.7071L38.8034 15.8332C38.8038 15.7954 38.8038 15.7388 38.8075 15.7435C38.8577 15.5406 39.0912 15.3892 39.28 15.3188C39.7781 15.1332 40.4103 15.2175 40.9365 15.1914C41.3581 15.1705 41.9396 15.2103 42.2409 15.517C42.4079 15.687 42.3666 15.7827 42.3703 16.0266L42.3908 19.9217C42.3908 20.0472 42.3997 20.1727 42.396 20.2977C42.3885 20.5436 42.3848 20.7885 42.3899 21.0353C42.4006 21.5081 42.3797 21.9809 42.4072 22.4533L42.438 23.1881C42.4408 23.298 42.4315 23.4089 42.4441 23.5188C42.4651 23.7033 42.5034 23.8836 42.4918 24.0756C42.4909 24.0841 42.4922 24.0945 42.4946 24.1034C42.5319 24.2513 42.4888 24.4259 42.5366 24.615C42.5593 24.7049 42.5678 25.3912 42.5674 25.4644C42.5656 25.8368 42.6318 26.1917 42.6216 26.5002C42.5967 27.2483 42.7059 27.0127 42.7308 27.5841C42.7356 27.6915 42.743 27.7136 42.7812 27.796L41.0678 28.1518C40.756 28.2212 40.4287 28.2731 40.129 28.3556C40.0921 28.366 40.0483 28.3759 40.008 28.3802L38.5033 28.6983C38.5348 28.4464 38.508 28.3214 38.512 28.1179ZM48.0407 27.2699C47.9898 26.9934 47.7266 26.8121 47.4534 26.864L43.1297 27.7238C43.2386 27.3717 43.366 26.5141 43.3986 26.1449C43.4164 25.9396 43.4332 25.7348 43.4743 25.5361C43.5513 25.17 43.5982 23.5242 43.6074 23.0025L43.6111 22.0898C43.6363 21.827 43.6288 21.2998 43.6317 21.0064C43.633 20.9054 43.6414 20.8044 43.6429 20.7034L43.6574 19.0244L43.6242 15.7292C43.6135 15.1494 43.2579 14.6738 42.8025 14.3796C42.3645 14.0965 41.8251 13.977 41.3183 13.969H40.9518C40.8375 13.969 40.723 13.9831 40.6086 13.9831C40.1694 13.9846 39.6268 13.9589 39.1977 14.0681C39.0033 14.1176 38.6174 14.2625 38.4395 14.389C37.9816 14.7148 37.6081 15.211 37.6435 15.8047L37.6552 17.4506C37.4004 17.4506 37.4739 17.3802 37.384 17.3883C37.2941 17.3964 37.0963 17.4263 37.0152 17.4077C36.8008 17.3584 36.3137 17.3468 36.0557 17.3274C35.9944 17.3228 35.9916 17.2629 35.8489 17.2826C35.7924 17.2904 34.9893 17.2583 34.6682 17.2826C34.0198 17.3316 33.3126 17.6826 32.9665 18.2519C32.6769 18.7281 32.7285 19.253 32.7078 19.8115L32.6686 21.0733L32.0084 20.9214C31.8781 20.9039 31.7484 20.887 31.6223 20.8449C31.4117 20.7766 30.326 20.7077 29.9766 20.717C29.6164 20.731 29.1263 20.8569 28.7964 21.0384C28.3552 21.281 27.987 21.6774 27.8715 22.1818C27.7906 22.5351 27.8348 23.5321 27.8379 23.807L27.8509 24.688C27.7925 24.6837 27.6809 24.6865 27.6539 24.654C27.5977 24.5861 27.3211 24.6829 27.1432 24.6484C26.9739 24.6155 26.5873 24.5958 26.4017 24.5852C26.3214 24.5805 26.0199 24.5818 25.9741 24.5544C25.8736 24.4946 25.7973 24.5312 25.6874 24.5271C25.0257 24.5022 24.4143 24.5361 23.8158 24.9424C23.3914 25.2305 23.089 25.689 23.0805 26.2207L23.0016 28.777C22.8092 28.7224 22.6273 28.667 22.4297 28.6364C22.3102 28.618 22.1892 28.6015 22.0734 28.5599C21.8224 28.4692 20.7024 28.417 20.3072 28.4292L19.9478 28.473C19.644 28.492 19.2107 28.6745 18.9486 28.8407C18.4735 29.1418 18.1475 29.6529 18.1475 30.2371L18.1624 31.4617C18.1753 32.2142 18.2236 32.9576 18.2236 33.696C18.2236 33.7644 18.2338 33.8329 18.2353 33.9013L18.253 35.0575C18.2596 35.1617 18.2708 35.266 18.2745 35.3713C18.2788 35.5138 18.2722 35.6563 18.2899 35.7984L18.3006 37.6666L18.365 39.6943C18.3753 39.7431 18.3411 39.7497 18.3631 39.9071L18.3991 41.0689C18.442 41.7136 18.5859 42.3226 18.7091 42.9499C17.6701 43.9577 16.5235 45.3347 16.7035 46.9053C16.7489 47.3011 16.9318 47.7931 17.1288 48.1426C17.645 49.0582 18.3889 49.6229 19.3124 50.0419C21.7731 51.1585 25.6005 50.9338 28.2025 50.5063C29.9669 50.2165 30.8818 49.9761 32.5453 49.5244C33.0593 49.3848 35.6428 48.5652 36.0482 48.2677C36.7378 47.7616 36.4102 46.6612 35.5688 46.6189C35.3843 46.6097 35.0774 46.6924 34.8932 46.7294C32.7327 47.1629 30.1085 47.5555 27.92 47.7312C26.302 47.8611 24.561 47.9312 22.9446 47.6707C22.6866 47.6292 22.326 47.5155 22.0753 47.4135C21.5778 47.2112 21.0167 46.6919 21.3587 46.1021C21.6791 45.5497 22.6105 44.7698 23.0287 44.4274C23.2737 44.2268 23.6154 44.0093 23.8686 43.8158C24.1908 43.5691 24.5073 43.3213 24.8738 43.1066C24.892 43.0961 24.9102 43.0835 24.9265 43.0711C25.2214 42.8455 25.5846 42.6761 25.8808 42.4543C26.1094 42.2831 27.3157 41.6256 27.5251 41.5162C28.1921 41.168 28.9098 40.7368 29.5691 40.4309C29.7956 40.3258 30.5239 39.9878 30.7152 39.8636C31.021 39.6654 31.3651 39.4842 31.7284 39.3148C32.0878 39.1467 32.0632 39.1047 32.2951 38.9883L32.29 39.866C32.2923 40.3183 32.7737 40.6328 33.1883 40.4318L33.5276 40.2566L34.6295 39.7371C34.6729 39.7172 34.7125 39.689 34.7574 39.6719C34.9823 39.5873 35.5001 39.3351 35.6879 39.1948L35.849 39.1123C35.9036 39.0632 35.9498 38.9995 36.0213 38.9797C36.025 38.9788 36.0278 38.9754 36.0302 38.9722C36.0695 38.913 36.1452 38.9226 36.1889 38.8518C36.2215 38.7992 36.501 38.6917 36.6633 38.5588C36.6895 38.5376 36.7175 38.5163 36.7468 38.4993L37.2548 40.6908C37.3445 41.0697 37.4313 41.4496 37.5237 41.827L37.8804 43.2715C38.0045 43.8163 38.7708 43.9629 39.069 43.4367L44.1098 34.4843C44.269 34.2027 44.4333 33.9218 44.587 33.6378C44.7182 33.3957 44.8485 33.1551 44.9941 32.921C45.145 32.6789 45.3928 32.1854 45.5479 31.9074L47.9812 27.6198C48.0405 27.518 48.0642 27.3945 48.0407 27.2699Z" fill="white"></path></svg>