<svg xmlns="http://www.w3.org/2000/svg" width="47" height="47" viewBox="0 0 47 47" fill="none"><path d="M36.6143 33.0169C37.0482 33.2773 37.4822 33.2773 37.9161 33.0169C38.0896 32.8433 38.35 32.6698 38.5236 32.3226C38.35 31.9755 38.0896 31.8019 37.9161 31.6284C37.4822 31.368 37.0482 31.368 36.6143 31.6284C36.4408 31.8019 36.1804 31.9755 36.0068 32.3226C36.2672 32.6698 36.4408 32.9301 36.6143 33.0169Z" fill="white"></path><path d="M32.1016 32.3226C32.2751 32.6698 32.5355 32.8433 32.709 33.0169C33.143 33.2773 33.5769 33.2773 34.0108 33.0169C34.1844 32.8433 34.4447 32.6698 34.6183 32.3226C34.4447 31.9755 34.1844 31.8019 34.0108 31.6284C33.5769 31.368 33.143 31.368 32.709 31.6284C32.5355 31.8019 32.2751 31.9755 32.1016 32.3226Z" fill="white"></path><path d="M30.1055 31.6284C29.6716 31.368 29.2377 31.368 28.8038 31.6284C28.6302 31.8019 28.3699 31.9755 28.1963 32.3226C28.3699 32.6698 28.6302 32.8433 28.8038 33.0169C29.2377 33.2773 29.6716 33.2773 30.1055 33.0169C30.2791 32.8433 30.5394 32.6698 30.713 32.3226C30.5394 31.9755 30.2791 31.8019 30.1055 31.6284Z" fill="white"></path><path d="M42.8628 16.7016L42.776 13.6641C42.776 13.2302 42.6892 11.2342 42.6892 11.4078C42.6892 11.1474 42.6892 10.8871 42.6025 10.6267C42.3421 9.5853 41.5611 8.71746 40.6064 8.28355C40.0857 8.10998 39.565 8.0232 39.0443 8.0232H38.0897C38.0897 7.84963 38.0029 7.58928 37.7426 7.58928L30.4527 4.8122C28.0228 3.94436 25.5928 3.07652 23.0761 2.29547C25.4193 3.33688 27.8492 4.37828 30.1924 5.41968L36.1805 7.93641C35.8333 8.10998 35.3994 8.19676 35.0523 8.37033C33.0562 8.19676 31.0602 8.0232 29.0642 7.93641C27.5889 7.84963 26.1136 7.84963 24.5514 7.93641C24.5514 7.93641 24.5514 7.93641 24.5514 7.84963V7.93641C24.0307 7.93641 23.5968 7.93641 23.0761 8.0232C23.51 8.10998 23.8572 8.19676 24.2911 8.28355C24.1175 8.37033 24.0307 8.45711 23.8572 8.45711C23.5968 8.5439 23.2497 8.5439 22.9893 8.45711C22.729 8.37033 22.4686 8.28355 22.2083 8.19676C22.0347 8.0232 21.9479 7.93641 21.9479 7.84963C21.9479 7.76284 22.0347 7.67606 22.2083 7.50249C22.3819 7.41571 22.6422 7.32893 22.9893 7.24214C23.2497 7.24214 23.5968 7.15536 23.8572 7.24214C24.1175 7.32893 24.4647 7.50249 24.6382 7.84963C24.8118 7.50249 24.5514 6.98179 24.2043 6.72144C23.8572 6.46109 23.4233 6.28752 22.9893 6.20074C22.5554 6.11395 22.0347 6.20074 21.6008 6.46109C21.1669 6.63466 20.6462 7.15536 20.6462 7.84963C20.6462 8.5439 21.1669 9.0646 21.6008 9.23817C22.0347 9.49852 22.5554 9.49852 22.9893 9.49852C23.4233 9.41173 23.8572 9.32495 24.2043 8.97782C24.3779 8.80425 24.5514 8.5439 24.5514 8.28355C26.0268 8.5439 27.5021 8.80425 28.9774 8.97782C30.1056 9.15138 31.2338 9.23817 32.2752 9.32495C31.5809 9.5853 30.7999 9.84565 30.1056 10.1928L23.0761 12.8831L16.0466 10.1928C14.0506 9.41174 11.9678 8.63068 9.97178 7.93641L15.9599 5.41968C18.303 4.37828 20.733 3.33688 23.0761 2.29547C20.5594 3.16331 18.1295 4.03115 15.6995 4.8122L8.40968 7.50249C8.23611 7.58928 8.06254 7.76284 8.06254 7.93641H7.10792C6.58722 7.93641 6.06652 7.93641 5.54582 8.19676C4.5912 8.63068 3.81014 9.49852 3.54979 10.5399C3.46301 10.8003 3.46301 11.0606 3.46301 11.321C3.46301 11.4945 3.37622 13.7509 3.37622 13.5774L3.28944 16.6148C3.02909 25.5535 3.02909 27.8099 2.9423 31.8887C2.85552 33.1037 3.46301 34.4054 4.41763 35.1865C4.93833 35.5336 5.45903 35.8808 6.06652 35.9675C6.50044 35.9675 6.84757 36.0543 7.10792 36.0543C7.19471 36.0543 11.1868 36.0543 10.9264 36.0543h28.1295C18.2162 36.6618 18.2162 37.2693 18.0427 37.8768C17.8691 38.4843 17.6087 39.005 17.2616 39.5257h25.8731C15.2656 39.5257 14.6581 39.5257 13.9638 39.6125C13.2696 39.6992 12.5753 39.9596 11.9678 40.3935C10.7528 41.1746 9.885 42.3895 9.62465 43.7781C9.53787 44.212 9.885 44.5591 10.2321 44.5591C14.5713 44.3856 18.8237 44.212 23.1629 43.8649C19.1709 43.5177 15.1788 43.3442 11.1868 43.2574C11.7942 42.1292 12.8356 41.3481 14.1374 41.1746C14.5713 41.0878 15.2656 41.1746 15.8731 41.1746L23.1629 41.2614L30.4527 41.1746C31.0602 41.1746 31.6677 41.0878 32.1884 41.1746C33.4902 41.3481 34.5316 42.1292 35.1391 43.2574C31.5809 43.3442 26.721 43.6045 23.1629 43.8649C26.8946 44.212 32.7091 44.3856 36.0937 44.4724C36.5276 44.4724 36.7879 44.1252 36.7012 43.6913C36.4408 42.3028 35.573 41.0878 34.358 40.3067C33.7505 39.9596 33.0563 39.6992 32.362 39.5257C31.5809 39.4389 31.0602 39.4389 30.4527 39.4389H29.0642C28.7171 38.9182 28.4567 38.3107 28.2831 37.79C28.1096 37.1825 28.1096 36.4883 28.1964 35.9675H35.3994C35.4862 35.9675 39.3047 35.9675 39.2179 35.9675C39.4782 35.9675 39.8254 35.9675 40.1725 35.8808C40.78 35.7072 41.3875 35.4468 41.8214 35.0997C42.776 34.3187 43.3835 33.0169 43.2967 31.8887L43.2099 28.8513C43.0364 24.7724 42.9496 20.6936 42.8628 16.7016ZM22.8158 14.2716C22.9893 14.3584 23.1629 14.3584 23.2497 14.2716C29.8453 11.6681 29.3246 11.8417 31.7545 10.8871L31.6677 14.532V15.7469C31.3206 16.0941 30.8867 16.2676 30.5395 16.4412C29.7585 16.7883 28.9774 16.8751 28.1096 17.0487C26.4607 17.3091 24.8118 17.3958 23.0761 17.3958C21.4272 17.3958 19.6916 17.3091 18.0427 17.0487C17.2616 16.8751 16.3938 16.7883 15.6127 16.4412C15.1788 16.2676 14.7449 16.0941 14.4845 15.7469V14.532L14.3978 10.8871C16.8277 11.8417 15.8731 11.4945 22.8158 14.2716ZM31.6677 16.2676V16.7883C31.6677 16.8751 31.6677 17.743 31.6677 17.6562V17.8298C31.6677 18.0901 31.4941 18.2637 31.2338 18.4372C30.7999 18.8712 30.1924 19.1315 29.4981 19.3919C28.8038 19.6522 28.1096 19.8258 27.4153 19.9126C26.0268 20.1729 24.5514 20.2597 23.0761 20.2597C21.6008 20.2597 20.1255 20.1729 18.7369 19.9126C18.0427 19.8258 17.3484 19.6522 16.6541 19.3919C15.9599 19.1315 15.3524 18.8712 14.9185 18.4372C14.6581 18.2637 14.5713 18.0033 14.4845 17.8298V17.6562C14.4845 17.5694 14.4845 16.7016 14.4845 16.7883V16.2676C14.7449 16.528 15.0052 16.7883 15.3524 16.9619C16.1334 17.4826 17.0013 17.743 17.8691 18.0033C19.6048 18.524 21.3404 18.6108 23.0761 18.6976C24.8118 18.6976 26.6343 18.524 28.2831 18.0033C29.151 17.743 30.0188 17.4826 30.7999 16.9619C31.147 16.7883 31.4074 16.528 31.6677 16.2676ZM28.3699 39.6125H23.0761h27.7823C18.8237 38.6578 19.3444 37.4429 19.3444 36.0543H23.0761H26.721C26.8078 37.4429 27.3285 38.6578 28.3699 39.6125ZM41.7346 31.8887C41.7346 33.1037 40.8668 34.2319 39.6518 34.4054C39.4782 34.4054 39.3047 34.4922 39.0443 34.4054C38.9575 34.4054 34.9655 34.4054 35.2258 34.4054C35.1391 34.4054 22.9026 34.3187 23.0761 34.3187C22.9893 34.3187 11.0132 34.4054 10.9264 34.4054C10.8396 34.4054 7.02114 34.4054 7.10792 34.4054C6.84757 34.4054 6.674 34.4054 6.50044 34.3187C5.28546 34.1451 4.41763 33.1037 4.41763 31.8887V29.5456C7.45506 29.8927 10.4057 30.0663 13.4431 30.153C16.6541 30.3266 19.8651 30.3266 23.1629 30.3266C26.3739 30.3266 29.5849 30.2398 32.8827 30.153C35.9201 30.0663 38.8708 29.8927 41.9082 29.5456L41.7346 31.8887ZM42.1685 12.102C42.1685 12.2756 41.995 16.9619 41.995 16.7016C41.8214 25.0328 41.7346 28.157 41.7346 29.4588C38.6972 29.1116 35.7465 28.9381 32.7091 28.8513C29.4981 28.6777 26.2871 28.6777 22.9893 28.6777C19.7783 28.6777 16.5673 28.7645 13.2696 28.8513C10.2321 28.9381 7.28149 29.1116 4.24406 29.4588C4.24406 28.3306 4.15728 25.2064 3.98371 16.7016C3.98371 16.528 3.81014 11.8417 3.81014 12.102C3.81014 11.5813 3.72336 11.0606 3.81014 10.6267C3.98371 9.67209 4.59119 8.89103 5.45903 8.45711C6.1533 8.10998 7.02114 8.10998 7.80219 8.10998C7.80219 8.28355 7.88898 8.45711 8.06254 8.5439C8.58325 8.80425 8.93038 8.89103 13.2696 10.6267L13.1828 14.6188V16.8751C13.1828 16.9619 13.1828 17.8298 13.1828 17.743V18.0901C13.2696 18.6108 13.5299 19.0447 13.8771 19.3919C14.5713 19.9993 15.2656 20.3465 16.0466 20.6068C16.8277 20.8672 17.522 21.0408 18.303 21.2143C19.7783 21.4747 21.3404 21.5615 22.9026 21.6482C24.4647 21.6482 25.94 21.5615 27.5021 21.2143C28.2831 21.0408 28.9774 20.8672 29.7585 20.6068C30.5395 20.3465 31.2338 19.9993 31.9281 19.3919C32.2752 19.0447 32.5355 18.6108 32.6223 18.0901C32.6223 18.0033 32.6223 17.8298 32.6223 17.743C32.6223 17.6562 32.6223 16.7883 32.6223 16.8751V14.6188L32.5355 10.6267C33.143 10.3664 33.6637 10.1928 34.2712 9.93244C34.2712 11.1474 34.358 12.2756 34.4448 13.4906C34.5316 14.9659 34.7051 16.4412 34.8787 17.9165C35.3126 15.3998 35.4862 12.0152 35.4862 9.41174C36.1805 9.15138 36.9615 8.80425 37.6558 8.5439C37.7426 8.45711 37.9161 8.37033 37.9161 8.28355V8.19676C38.784 8.19676 39.565 8.19676 40.2593 8.5439C41.1271 8.97782 41.7346 9.84565 41.9082 10.7135C42.2553 11.0606 42.1685 11.5813 42.1685 12.102Z" fill="white"></path></svg>