<svg xmlns="http://www.w3.org/2000/svg" width="62" height="62" viewBox="0 0 62 62" fill="none"><path d="M51.9584 42.4383C51.9941 42.3906 52.489 42.6995 53.3302 43.3173C53.5402 43.4711 53.7735 43.6423 54.029 43.8296C54.3055 44.0293 54.4798 44.1675 55.0286 44.5506C55.2738 44.7245 55.5275 44.9044 55.7895 45.0902C55.8568 45.138 55.9244 45.1862 55.9927 45.2349C56.0264 45.2513 55.9835 45.2481 55.9699 45.2525L55.9122 45.2615L55.7952 45.2794C55.6362 45.3039 55.475 45.3287 55.3113 45.3539C54.972 45.4057 54.6228 45.4587 54.2644 45.5133C54.0426 45.5487 53.8148 45.585 53.5817 45.6221C53.3509 45.6585 53.1147 45.6957 52.8732 45.7339C52.7529 45.7549 52.6297 45.7686 52.505 45.7812C52.3804 45.7945 52.2544 45.8081 52.1273 45.8217C51.6182 45.8751 51.0887 45.9308 50.5403 45.9884C49.4411 46.1164 48.2732 46.1803 47.041 46.2721C45.8129 46.3553 44.5237 46.4428 43.1871 46.5334C42.523 46.5939 41.8471 46.6554 41.1612 46.718C40.8183 46.7489 40.4728 46.7801 40.1251 46.8113L39.9946 46.823C39.9921 46.8232 39.9827 46.8243 39.9857 46.8237L39.9873 46.8232L39.9582 46.8327L39.702 46.9159C39.6157 46.9433 39.5322 46.9724 39.4434 46.9985L39.1717 47.0744C39.0538 47.107 38.9363 47.1395 38.8189 47.172C38.7043 47.1985 38.5936 47.2176 38.481 47.2406C38.3692 47.263 38.2578 47.2853 38.1465 47.3076C38.0387 47.3333 37.9311 47.3588 37.8237 47.3843C37.6078 47.4316 37.3972 47.4927 37.1871 47.5515C36.9755 47.6061 36.7714 47.6796 36.5655 47.7447C35.7476 48.0194 34.9738 48.3634 34.2668 48.7771C33.5602 49.1912 32.9206 49.6728 32.363 50.2047C32.2283 50.3421 32.0879 50.4725 31.96 50.6123C31.897 50.6831 31.8345 50.7537 31.7721 50.8239L31.6776 50.9302C31.6156 51.0064 31.5517 51.0788 31.4958 51.1622C31.2669 51.4829 31.04 51.8007 30.8152 52.1154C30.6042 52.4264 30.3953 52.7343 30.1884 53.0392C30.184 52.97 30.1859 52.871 30.1864 52.7794C30.187 52.6873 30.1876 52.5955 30.1883 52.5039C30.1896 52.322 30.1908 52.1408 30.192 51.9608C30.1946 51.6051 30.1972 51.2535 30.1999 50.9057C30.2026 50.637 30.2054 50.3713 30.2081 50.1088C30.211 49.9265 30.2138 49.7462 30.2167 49.5682C30.2301 48.8562 30.2429 48.1802 30.2548 47.5445C30.282 46.2728 30.313 45.1622 30.3466 44.2464C30.4139 42.4148 30.4928 41.3629 30.5767 41.3629C30.6607 41.3629 30.7393 42.4148 30.8066 44.2464C30.8403 45.1622 30.8711 46.2729 30.8983 47.5445C30.9104 48.1802 30.923 48.8562 30.9364 49.5682C30.9392 49.7462 30.9421 49.9265 30.945 50.1088C30.9463 50.1967 30.9476 50.2851 30.9492 50.3739L30.9533 50.4195C30.9559 50.445 30.9585 50.4711 30.9611 50.4972L30.9648 50.5296L30.9668 50.5443C30.9675 50.5486 30.9668 50.5575 30.9724 50.5455C31.0031 50.4908 31.0295 50.447 31.0517 50.4129C31.0555 50.407 31.0542 50.4079 31.0542 50.4069L31.1523 50.2916C31.2186 50.214 31.2851 50.1359 31.3521 50.0575C31.4883 49.9029 31.6376 49.758 31.7819 49.6063C32.3775 49.0171 33.0651 48.4838 33.8225 48.0279C34.5806 47.5724 35.408 47.1964 36.2776 46.8986C36.4961 46.8279 36.7136 46.749 36.9376 46.6899C37.1604 46.6264 37.3839 46.5609 37.6118 46.51C37.7253 46.4828 37.8391 46.4557 37.9531 46.4283C38.0652 46.4056 38.1779 46.3828 38.2905 46.36C38.4023 46.337 38.5178 46.3169 38.627 46.2913C38.7312 46.262 38.8355 46.2326 38.94 46.2033L39.1814 46.136C39.2625 46.1122 39.3464 46.0832 39.4284 46.0572L39.6757 45.9771L39.7739 45.9454C39.7961 45.9364 39.8162 45.9338 39.8356 45.9331L39.895 45.9278L40.0271 45.9162C40.3789 45.8856 40.7284 45.8552 41.0753 45.8251C41.7693 45.7665 42.453 45.7088 43.1249 45.6522C44.4656 45.5797 45.7589 45.5096 46.991 45.4428C48.2182 45.3743 49.3915 45.3377 50.4736 45.2437C51.017 45.2046 51.5418 45.1669 52.0462 45.1307C52.1724 45.122 52.2974 45.1132 52.4209 45.1046C52.5447 45.0969 52.667 45.0882 52.7879 45.072C53.0297 45.0442 53.2663 45.0168 53.4973 44.9902C53.7258 44.9644 53.949 44.9392 54.1664 44.9147C54.2471 44.9093 54.3258 44.9042 54.4023 44.8991C54.4466 44.896 54.4902 44.8927 54.5332 44.8898L54.5673 44.8872L54.5845 44.8861C54.5889 44.8852 54.6005 44.8863 54.5934 44.8826L54.556 44.8497C54.4999 44.8008 54.4454 44.7533 54.3929 44.7075C54.1661 44.513 53.9551 44.332 53.7608 44.1655C53.5179 43.9583 53.3015 43.7649 53.1084 43.5894C52.3359 42.888 51.9196 42.4902 51.9584 42.4383Z" fill="white"></path><path d="M9.55294 41.8406C9.57133 41.8658 9.47302 41.9769 9.2696 42.1649C9.06796 42.3553 8.75308 42.6122 8.36188 42.9593C8.16454 43.1301 7.9451 43.32 7.70489 43.528C7.58651 43.6337 7.46311 43.7441 7.3347 43.8589C7.27032 43.9161 7.20474 43.9743 7.13808 44.0335L7.08767 44.0782L7.06235 44.1006L7.05017 44.1121L7.00513 44.1552C6.91303 44.2502 6.8146 44.3519 6.71032 44.4595C6.7102 44.4613 6.69957 44.4674 6.70805 44.4653L6.72537 44.4628L6.75966 44.4577L6.82643 44.4478C6.86812 44.4413 6.91017 44.4351 6.95305 44.4285C7.02556 44.4171 7.09998 44.4055 7.17631 44.3935C7.39694 44.3775 7.6227 44.3612 7.8536 44.3443C8.10075 44.3287 8.35316 44.3046 8.61177 44.3018C9.12852 44.289 9.66654 44.2635 10.2243 44.2825C11.3399 44.2857 12.5318 44.3875 13.7776 44.5584C14.0883 44.6087 14.4027 44.6596 14.7208 44.7109C15.0382 44.7682 15.357 44.8444 15.6805 44.9119C15.8414 44.9482 16.0061 44.9791 16.1662 45.0203C16.3251 45.0642 16.4847 45.1082 16.6451 45.1525C16.9659 45.2414 17.2896 45.3313 17.6165 45.4218C17.9432 45.5128 18.2727 45.6046 18.6049 45.6971C18.9369 45.7907 19.266 45.9028 19.6005 46.0063C19.9342 46.1121 20.2704 46.2188 20.6088 46.3262C20.9465 46.4361 21.2899 46.5355 21.6264 46.6633C22.3028 46.9083 22.9713 47.1502 23.6301 47.3887C23.7956 47.4459 23.9568 47.5131 24.1176 47.5792C24.2785 47.6451 24.4388 47.7106 24.5984 47.7759C24.9175 47.9068 25.2341 48.0367 25.5479 48.1654C26.802 48.6617 28.0238 49.2483 29.0725 49.9812C29.1385 50.0263 29.2043 50.0713 29.27 50.1162C29.3333 50.1642 29.3965 50.2123 29.4595 50.2601C29.5848 50.3566 29.7093 50.4523 29.833 50.5475C29.8921 50.5984 29.9512 50.649 30.0099 50.6995L30.0958 50.7733L30.1042 50.782C30.1158 50.7937 30.1281 50.8072 30.1414 50.8224L30.185 50.8705C30.1883 50.8588 30.1891 50.8398 30.1913 50.8225L30.197 50.7634L30.1984 50.747C30.1989 50.7394 30.1995 50.7474 30.2 50.6998C30.201 50.6304 30.202 50.5612 30.203 50.4924C30.2228 49.3909 30.2411 48.3646 30.258 47.4279C30.3396 43.6808 30.4523 41.3632 30.5767 41.3632C30.7011 41.3632 30.8136 43.6808 30.8952 47.4279C30.912 48.3648 30.9304 49.391 30.9501 50.4924C30.954 50.9351 30.9579 51.3855 30.962 51.8429C30.9629 51.9765 30.9639 52.1108 30.9647 52.2455L30.966 52.4488L30.9666 52.5511L30.967 52.6023L30.9672 52.628C30.9669 52.6315 30.9681 52.6386 30.9664 52.639L30.9573 52.6306C30.7612 52.4525 30.5636 52.273 30.3646 52.0922C30.264 52.0009 30.1632 51.9093 30.062 51.8172C29.9559 51.7234 29.8494 51.6293 29.7425 51.5349L29.5805 51.392L29.4946 51.3212L29.3267 51.1826C29.2094 51.0962 29.0912 51.0092 28.9724 50.9216L28.7932 50.7905L28.6059 50.6678C28.1116 50.3306 27.5691 50.0359 27.0035 49.7551C26.4402 49.4711 25.8346 49.2291 25.21 48.9809C24.8991 48.8562 24.5857 48.7304 24.2696 48.6038C24.1117 48.5402 23.9531 48.4764 23.7938 48.4123C23.6349 48.3479 23.4755 48.2825 23.3117 48.2267C22.661 47.9927 22.0006 47.7553 21.3325 47.5151C21.0007 47.3887 20.6611 47.2903 20.3278 47.181C19.9938 47.0738 19.662 46.9673 19.3325 46.8616C19.0025 46.758 18.6778 46.6451 18.3505 46.5506C18.0232 46.4567 17.6984 46.3637 17.3766 46.2712C17.0548 46.1785 16.7359 46.0866 16.4199 45.9955C16.262 45.9498 16.1048 45.9044 15.9484 45.8591C15.792 45.8168 15.6363 45.7859 15.4815 45.7489C15.1712 45.6801 14.8667 45.6019 14.5609 45.5418C14.2539 45.4868 13.9502 45.4324 13.6502 45.3786C12.4461 45.191 11.29 45.0639 10.2024 45.029C9.65913 44.9943 9.13318 45.0024 8.6273 44.9967C8.3743 44.9902 8.12679 45.0045 7.88406 45.0104C7.7627 45.0141 7.64277 45.0177 7.52415 45.0213C7.46479 45.0231 7.40578 45.0246 7.34712 45.0264L7.25945 45.0289L7.12458 45.0357C6.736 45.0631 6.35662 45.0898 5.98692 45.116C5.80857 45.1284 5.63262 45.1408 5.45894 45.1531C5.37365 45.159 5.28895 45.165 5.20486 45.1707L5.08027 45.1793L5.01863 45.1835C5.01493 45.1832 5.00525 45.1856 5.00645 45.1831L5.01935 45.1721L5.04515 45.1503C5.57373 44.7044 6.07221 44.2838 6.53831 43.8905C6.59421 43.8453 6.64952 43.8006 6.70447 43.7561L6.77172 43.703L6.82559 43.6612C6.89715 43.6061 6.9675 43.552 7.03631 43.4988C7.1744 43.3931 7.30723 43.2915 7.43444 43.1939C7.69079 43.0017 7.93185 42.8349 8.14626 42.6823C8.57378 42.3753 8.92402 42.1625 9.16137 42.0187C9.40076 41.8775 9.53478 41.8154 9.55294 41.8406Z" fill="white"></path><path d="M34.8774 54.3834C34.8102 54.3855 34.7667 54.2247 34.6481 54.0132C34.5876 53.9081 34.5018 53.7994 34.3743 53.6896C34.2491 53.5781 34.0767 53.4657 33.8685 53.3188C33.8162 53.2811 33.7627 53.2425 33.7072 53.1985C33.6794 53.1775 33.6516 53.1552 33.6233 53.1309C33.6142 53.123 33.613 53.1227 33.6115 53.1221L33.606 53.1192C33.6025 53.1172 33.5988 53.1156 33.5945 53.1153C33.5882 53.1134 33.5914 53.1162 33.5777 53.1106L33.5292 53.0898C33.4964 53.0756 33.4647 53.0628 33.4297 53.046C33.3593 53.0113 33.2939 52.9865 33.2156 52.9403C33.1777 52.9186 33.1394 52.897 33.1008 52.8752C33.0796 52.8607 33.0569 52.8434 33.035 52.8273L33.0185 52.8148L33.0103 52.8085C33.0093 52.8078 33.0098 52.8083 33.0094 52.808L33.008 52.8079C33.0074 52.8079 33.0067 52.808 33.0016 52.807L32.9958 52.806L32.9718 52.797C32.9376 52.7839 32.9031 52.7706 32.8682 52.7574C32.7288 52.7055 32.5855 52.6526 32.4367 52.6051C31.8442 52.4097 31.1786 52.2454 30.4806 52.1966C30.1321 52.1723 29.7931 52.1789 29.4714 52.2161C29.3918 52.2281 29.3107 52.2369 29.2343 52.2496C29.1596 52.2638 29.0855 52.2779 29.0124 52.2919C28.9398 52.3134 28.8678 52.3345 28.7967 52.3555C28.7237 52.3807 28.65 52.403 28.5793 52.4291C28.0083 52.6329 27.5365 52.9103 27.1971 53.198C27.0223 53.3392 26.8943 53.4917 26.7797 53.6282C26.6741 53.7694 26.5906 53.9003 26.5287 54.014C26.4994 54.0712 26.471 54.1228 26.444 54.168C26.4225 54.2143 26.4023 54.2542 26.3824 54.2865C26.3429 54.3512 26.3071 54.3862 26.276 54.3835C26.2449 54.3807 26.2205 54.34 26.2027 54.2606C26.1939 54.2209 26.1863 54.1715 26.1816 54.1127C26.1825 54.0551 26.1862 53.9879 26.1931 53.9115C26.2103 53.7601 26.2583 53.5774 26.344 53.3751C26.4373 53.1793 26.5614 52.9569 26.7421 52.7518C27.0957 52.333 27.6234 51.9418 28.2681 51.6593C28.3485 51.6231 28.4318 51.5915 28.5153 51.5572C28.6008 51.5244 28.6922 51.4941 28.7825 51.4625C28.8757 51.4378 28.9712 51.4157 29.0674 51.3929C29.1626 51.3728 29.2565 51.3585 29.3526 51.3413C29.7367 51.2833 30.1385 51.2692 30.5432 51.2976C31.3542 51.3548 32.0931 51.5682 32.7256 51.8267C32.8846 51.8902 33.0358 51.96 33.1814 52.0297C33.2178 52.0474 33.2536 52.0652 33.2893 52.0826L33.3637 52.1189C33.3942 52.1318 33.4238 52.154 33.4524 52.1778L33.4947 52.2132L33.5071 52.2244L33.5123 52.2296L33.5334 52.2514C33.5575 52.2687 33.5815 52.2858 33.6054 52.3027C33.6483 52.3374 33.7133 52.3723 33.7652 52.4068C33.7916 52.424 33.8227 52.4413 33.8512 52.4584L33.8946 52.4841L33.9686 52.5254C33.9813 52.5331 33.9954 52.5388 34.0067 52.548L34.0378 52.58L34.0926 52.6373C34.1116 52.6594 34.1319 52.6812 34.1531 52.7029C34.1957 52.7468 34.2376 52.7896 34.2785 52.8314C34.4499 53.0014 34.6269 53.1724 34.7564 53.3618C34.8882 53.5484 34.962 53.7468 34.982 53.9064C35.0017 54.0668 34.9877 54.1876 34.9627 54.2663C34.9373 54.3451 34.9086 54.3834 34.8774 54.3834Z" fill="white"></path><path d="M0.474679 50.3222C0.468826 50.2604 0.829932 50.1715 1.49074 50.0636C1.82067 50.005 2.22729 49.9606 2.70044 49.912C2.93708 49.8898 3.18984 49.8577 3.45932 49.8427C3.72905 49.8282 4.01418 49.8126 4.31353 49.7963C4.46344 49.7893 4.61682 49.7797 4.7739 49.7751C4.9311 49.7744 5.09188 49.7736 5.25577 49.7729C5.58391 49.7742 5.92554 49.7663 6.27924 49.7776C6.63318 49.7959 6.99907 49.8149 7.37618 49.8345C7.56503 49.8407 7.75568 49.8629 7.94895 49.8844C8.14223 49.9058 8.33825 49.9273 8.53666 49.9493C8.73471 49.9738 8.93695 49.9882 9.1387 50.0228C9.34046 50.0575 9.54448 50.0926 9.7509 50.1282C9.95719 50.1643 10.1656 50.2006 10.376 50.2374C10.5867 50.2738 10.794 50.3335 11.006 50.3814C11.8597 50.5811 12.7088 50.8068 13.5846 51.0374C14.022 51.1537 14.4543 51.2686 14.8804 51.3818C15.306 51.4972 15.7258 51.6087 16.1397 51.7124C16.9658 51.927 17.7626 52.134 18.5217 52.3313C18.7113 52.3815 18.8986 52.4312 19.0833 52.48C19.2688 52.5255 19.4516 52.5703 19.6319 52.6144C19.9924 52.7029 20.3425 52.7889 20.6811 52.8719C21.3578 53.0398 21.9876 53.1995 22.5621 53.3488C24.8721 53.88 26.2975 54.2587 26.2766 54.3835C26.2565 54.5041 24.7896 54.3472 22.4315 53.9725C21.8458 53.8624 21.2047 53.7381 20.5172 53.6011C20.1735 53.5317 19.8179 53.4599 19.4518 53.3859C19.269 53.3481 19.0827 53.312 18.8954 53.2703C18.7085 53.227 18.5191 53.183 18.3272 53.1384C17.5607 52.9568 16.7562 52.7659 15.9221 52.5681C15.5047 52.4699 15.0821 52.3621 14.6542 52.2494C14.2261 52.1373 13.7917 52.0234 13.3522 51.9083C12.4737 51.6768 11.6123 51.4417 10.803 51.2406C10.5988 51.1915 10.3987 51.1301 10.1962 51.0916C9.99386 51.0523 9.79342 51.0134 9.59513 50.9748C9.39684 50.9357 9.20046 50.8971 9.00647 50.8588C8.81236 50.8206 8.61717 50.8016 8.42617 50.7722C8.23468 50.745 8.04559 50.7183 7.85901 50.6917C7.67242 50.6646 7.48846 50.6363 7.30522 50.6236C6.93934 50.5894 6.58433 50.5562 6.24102 50.524C5.89699 50.4969 5.56312 50.4875 5.24275 50.4682C5.08245 50.4594 4.92525 50.4508 4.77151 50.4422C4.6173 50.4393 4.46655 50.4363 4.31938 50.4334C4.02445 50.4272 3.7435 50.4213 3.47784 50.4158C3.21182 50.4082 2.96073 50.4172 2.72576 50.4152C2.2556 50.4156 1.84958 50.4085 1.5175 50.4132C0.852389 50.4134 0.480533 50.3842 0.474679 50.3222Z" fill="white"></path><path d="M60.6786 50.3217C60.6858 50.352 60.6027 50.4008 60.4368 50.4664C60.2705 50.5289 60.0238 50.6217 59.6978 50.7022C59.049 50.8833 58.091 51.064 56.9077 51.231C56.3179 51.3103 55.6717 51.3972 54.9782 51.4905C54.6348 51.5414 54.2669 51.5744 53.8915 51.6139C53.7034 51.6329 53.5127 51.6521 53.3192 51.6717C53.1263 51.6846 52.9309 51.6978 52.7328 51.7111C51.1483 51.8221 49.411 51.8371 47.6051 51.8871C47.1536 51.8996 46.7074 51.9115 46.2706 51.9361C46.0517 51.9464 45.8346 51.9567 45.619 51.9667C45.4037 51.9774 45.1947 51.9981 44.9849 52.0128C44.7756 52.0285 44.5681 52.0441 44.3628 52.0595C44.2597 52.0637 44.1585 52.082 44.0576 52.0973C43.9566 52.1128 43.8562 52.1281 43.7563 52.1435C43.5564 52.1737 43.3586 52.2036 43.1629 52.2331C42.9671 52.2625 42.7731 52.3022 42.5817 52.3352C41.0493 52.6082 39.6839 52.9323 38.5524 53.2615C36.2874 53.9164 34.9389 54.5143 34.8768 54.3833C34.8288 54.2918 36.0904 53.4829 38.3553 52.6555C39.4853 52.241 40.867 51.8442 42.4249 51.5199C42.6201 51.4803 42.8155 51.4348 43.0175 51.3992C43.2195 51.3638 43.4239 51.3281 43.6305 51.2921C43.734 51.2743 43.8378 51.2562 43.9423 51.2382C44.0468 51.2203 44.1514 51.1996 44.2586 51.193C44.472 51.1734 44.6876 51.1536 44.905 51.1337C45.122 51.1154 45.3428 51.0911 45.5624 51.0779C45.7819 51.0656 46.003 51.0533 46.2259 51.0409C46.672 51.0127 47.123 50.999 47.5793 50.9864C49.4044 50.936 51.1295 50.946 52.6884 50.882C52.8835 50.8749 53.076 50.868 53.266 50.8612C53.4546 50.8488 53.6408 50.8365 53.8243 50.8243C54.1917 50.7994 54.5462 50.783 54.8974 50.7475C55.5962 50.685 56.248 50.64 56.8402 50.5973C58.0239 50.5123 58.976 50.4302 59.6346 50.3571C59.9657 50.3305 60.2201 50.294 60.3979 50.289C60.5744 50.2811 60.6713 50.2914 60.6786 50.3217Z" fill="white"></path><path d="M60.6786 50.3217C60.6441 50.3736 60.5253 50.3587 60.3349 50.2833C60.2412 50.2468 60.1236 50.1905 60.0011 50.1286C59.8803 50.0681 59.7472 49.9964 59.6041 49.9139L59.5771 49.8984L59.5635 49.8906L59.5321 49.8699C59.509 49.8531 59.4856 49.8363 59.4621 49.8192C59.4241 49.7911 59.3852 49.7625 59.3455 49.7333C59.2676 49.6735 59.182 49.6142 59.1031 49.5446C59.0227 49.4757 58.9398 49.4042 58.8543 49.3308C58.7718 49.2548 58.689 49.1745 58.6037 49.0925C58.2672 48.7607 57.9293 48.3719 57.5982 47.9583C57.2668 47.5445 56.9686 47.1482 56.6954 46.7955C56.4241 46.4404 56.1717 46.1362 55.9577 45.8779C55.5282 45.3676 55.232 45.0563 55.303 44.9464C55.3651 44.8467 55.8072 44.9808 56.3923 45.4118C56.6805 45.6276 57.0049 45.912 57.3248 46.2538C57.6474 46.594 57.9735 46.9852 58.3011 47.3943C58.6288 47.8038 58.9317 48.1893 59.2143 48.5297C59.2853 48.6145 59.3543 48.6971 59.4215 48.7773C59.4899 48.8558 59.5565 48.9322 59.6208 49.0059C59.7438 49.143 59.8586 49.2709 59.9633 49.3876C60.0966 49.5127 60.2136 49.6283 60.3125 49.7326C60.4096 49.8353 60.4811 49.9209 60.5419 50.0002C60.6608 50.1567 60.713 50.2699 60.6786 50.3217Z" fill="white"></path><path d="M0.475019 50.3222C0.378263 50.2439 0.574762 49.8501 0.980185 49.2673C1.07742 49.1177 1.20631 48.9754 1.34021 48.8172C1.47544 48.6604 1.62272 48.4951 1.7804 48.3229C1.93413 48.1465 2.11403 47.982 2.30002 47.8106C2.48601 47.6392 2.68095 47.4641 2.88259 47.287C3.08614 47.113 3.29625 46.9609 3.49586 46.808C3.69618 46.6608 3.88945 46.5185 4.07365 46.383C4.38972 46.1494 4.67545 45.8635 4.91627 45.6294C5.15792 45.3923 5.36541 45.1948 5.52655 45.0753C5.68937 44.9547 5.80177 44.9077 5.85027 44.9466C5.89877 44.9854 5.8793 45.1062 5.80416 45.2896C5.72843 45.4748 5.60253 45.7258 5.41343 46.0279C5.22052 46.3289 4.97767 46.6797 4.59196 47.0317C4.41397 47.1922 4.23909 47.3373 4.04821 47.4967C3.86103 47.6548 3.65772 47.8095 3.4611 47.9777C3.26711 48.1482 3.07562 48.3122 2.88856 48.4683C2.7015 48.6247 2.51587 48.7703 2.35353 48.9235C2.18678 49.0726 2.02599 49.2123 1.87285 49.341C1.72115 49.4711 1.56968 49.5836 1.44713 49.7007C0.93969 50.1537 0.571537 50.4003 0.475019 50.3222Z" fill="white"></path><path d="M35.1163 33.8379C35.0825 33.7175 35.1835 33.5705 35.3663 33.4267C35.5502 33.2802 35.8188 33.13 36.1519 33.0127C36.4863 32.8963 36.8244 32.8506 37.0762 32.8778C37.3303 32.9079 37.489 32.9993 37.5053 33.1212C37.5222 33.2457 37.4037 33.377 37.2156 33.4996C37.0264 33.6257 36.7641 33.754 36.4468 33.8642C36.1293 33.976 35.8104 34.037 35.5649 34.032C35.3173 34.0254 35.1497 33.9571 35.1163 33.8379Z" fill="white"></path><path d="M43.2391 32.7628C43.2369 32.7474 43.2829 32.7286 43.3779 32.7062C43.4253 32.6957 43.4849 32.6818 43.5568 32.6719C43.629 32.6689 43.7132 32.6669 43.8097 32.6659C43.9062 32.6653 44.012 32.6884 44.1312 32.703C44.1905 32.7118 44.2492 32.7337 44.3127 32.7501C44.3749 32.7702 44.4438 32.7825 44.5073 32.8137C44.7748 32.9128 45.0575 33.0851 45.3416 33.3161C45.3762 33.346 45.4115 33.3762 45.4471 33.4069C45.4828 33.4388 45.5187 33.4645 45.556 33.5101C45.6363 33.5953 45.6888 33.6763 45.7475 33.7538C45.7999 33.8288 45.866 33.9085 45.8964 33.9322C45.979 33.9901 46.0633 34.0493 46.1497 34.1097C46.3222 34.2316 46.5021 34.3587 46.6892 34.4909C46.7426 34.529 46.7964 34.5677 46.8509 34.6067C46.8755 34.622 46.8813 34.6377 46.8975 34.6533L46.9369 34.6983C46.9603 34.7259 46.9893 34.7577 47.0052 34.7819C47.0414 34.8318 47.0777 34.8824 47.1146 34.9333L47.165 35.0029C47.1818 35.0264 47.1968 35.0389 47.2101 35.0555C47.2322 35.0848 47.2403 35.083 47.3072 35.127C47.3608 35.1613 47.4149 35.1959 47.4695 35.2308C47.5789 35.3052 47.691 35.3746 47.8035 35.4579C47.8599 35.4993 47.9165 35.5411 47.9737 35.5833C48.0306 35.6277 48.0868 35.6792 48.1439 35.7277C48.1725 35.7552 48.1984 35.7688 48.2426 35.8201L48.316 35.9073C48.3586 35.9574 48.4017 36.0081 48.4451 36.0591C48.799 36.4624 49.239 36.8359 49.7225 37.2307C49.8439 37.3308 49.9666 37.4322 50.0908 37.5346C50.2143 37.6414 50.3415 37.7474 50.4659 37.8589C50.5882 37.9703 50.7123 38.0907 50.8368 38.1987C50.9614 38.3079 51.0873 38.4183 51.2144 38.5297C51.4688 38.7525 51.7284 38.9798 51.9928 39.2112C52.2633 39.4373 52.5387 39.6675 52.819 39.9016C53.0959 40.1401 53.391 40.3649 53.6867 40.5984C53.9845 40.8292 54.2789 41.0743 54.5961 41.2978C54.8856 41.5113 55.1774 41.7264 55.4713 41.9429C55.6234 42.055 55.7761 42.1678 55.9293 42.2807L56.1604 42.4512L56.2765 42.537L56.3346 42.5799L56.3637 42.6014C56.3666 42.6044 56.3779 42.6098 56.3738 42.6108L56.3561 42.613C55.6201 42.6956 54.8743 42.7796 54.119 42.8644C53.9123 42.888 53.7046 42.9119 53.4954 42.9359C53.2864 42.9556 53.0759 42.9753 52.8645 42.9951C52.4414 43.0343 52.0134 43.074 51.5808 43.114C50.7173 43.1837 49.8358 43.255 48.9382 43.3276C48.0406 43.3953 47.1324 43.4781 46.2093 43.5574C45.2903 43.6558 44.3543 43.7367 43.4176 43.8713C43.0432 43.9228 42.6688 43.9645 42.2998 44.0229C41.9314 44.0846 41.5651 44.146 41.2006 44.2072C41.0184 44.2378 40.8367 44.2681 40.6555 44.2983C40.4747 44.3295 40.2994 44.3713 40.1219 44.407C39.9454 44.4455 39.7677 44.4778 39.5939 44.521C39.4206 44.5656 39.2478 44.6101 39.0757 44.6544L38.8178 44.7207C38.7321 44.7432 38.6491 44.7727 38.5648 44.7981C38.3968 44.8507 38.2295 44.9034 38.0626 44.9556C37.8939 45.0031 37.735 45.073 37.5724 45.1322C37.4106 45.1936 37.2494 45.2548 37.0887 45.3157C36.9327 45.3867 36.7774 45.4573 36.6226 45.5275L36.3909 45.633C36.3132 45.6669 36.2367 45.7029 36.1638 45.745C36.0158 45.8254 35.8684 45.9055 35.7215 45.9851L35.5016 46.1042C35.4289 46.1446 35.3611 46.1926 35.2908 46.2363C35.1514 46.3257 35.0126 46.4147 34.8744 46.5032C34.806 46.5485 34.7345 46.5892 34.6692 46.6379L34.4744 46.7847C34.2182 46.9827 33.9469 47.1632 33.7243 47.3833C33.2457 47.7913 32.8474 48.2718 32.477 48.7495C31.7664 49.7337 31.2726 50.8068 30.9246 51.8636L30.2142 51.7778C30.1307 50.0457 30.1485 48.4681 30.1835 47.0782C30.2201 45.6878 30.2827 44.4856 30.3316 43.4977C30.4346 41.5232 30.4997 40.4075 30.5778 40.4071C30.6494 40.4066 30.7251 41.526 30.7463 43.5059C30.7531 44.494 30.7612 45.6971 30.7706 47.0828C30.7883 48.4659 30.8181 50.0292 30.9408 51.7322C30.7047 51.7038 30.4686 51.6751 30.23 51.6464C30.569 50.5272 31.0714 49.3652 31.8274 48.2811C32.2215 47.7526 32.6477 47.2245 33.1688 46.7659C33.4152 46.5185 33.6983 46.3234 33.9722 46.1069L34.1799 45.9469C34.2496 45.8939 34.3251 45.8494 34.3976 45.8C34.5444 45.7036 34.6917 45.6068 34.8398 45.5096C34.9144 45.4622 34.9867 45.4101 35.0639 45.366L35.2973 45.236C35.4535 45.1493 35.6103 45.0624 35.7677 44.9749C35.8456 44.9292 35.9267 44.8901 36.009 44.853L36.2549 44.7382C36.4193 44.662 36.5844 44.5854 36.7502 44.5085C36.9201 44.4424 37.0905 44.3762 37.2616 44.3096C37.4333 44.2454 37.6028 44.1705 37.7799 44.1188C37.9555 44.0625 38.1317 44.0059 38.3084 43.9492C38.3971 43.9218 38.4851 43.8904 38.5747 43.8664L38.8444 43.7952C39.0247 43.7479 39.2055 43.7004 39.3869 43.6527C39.5686 43.6067 39.7526 43.5723 39.9362 43.5315C40.1201 43.4937 40.3049 43.4493 40.4895 43.4168C40.6741 43.3852 40.8592 43.3538 41.0449 43.3222C41.4163 43.2591 41.7898 43.1957 42.1651 43.132C42.5409 43.0722 42.9204 43.0295 43.3006 42.9772C44.2537 42.8404 45.1979 42.7605 46.1275 42.6641C47.0567 42.5872 47.973 42.5085 48.8708 42.4468C49.7679 42.3818 50.6491 42.3182 51.512 42.2556C51.9421 42.2206 52.3674 42.1858 52.788 42.1517C52.9984 42.1345 53.2074 42.1175 53.4153 42.1005C53.6223 42.0796 53.8281 42.0587 54.0326 42.0382L54.1093 42.0304L54.1215 42.0293L54.1246 42.0292L54.1375 42.029L54.1654 42.0281L54.2304 42.0258C54.2221 42.0157 54.2056 42.0027 54.1911 41.9896L54.167 41.9684L54.1541 41.9571L54.1473 41.9513L54.1439 41.9485L54.1168 41.9278C53.7974 41.6938 53.5026 41.4391 53.2043 41.1985C52.9083 40.9551 52.613 40.72 52.3377 40.4724C52.0592 40.2284 51.7855 39.9886 51.5167 39.7532C51.2509 39.5135 50.9947 39.272 50.7413 39.0386C50.6151 38.9214 50.49 38.8053 50.3664 38.6905C50.2413 38.5757 50.1313 38.4621 50.0149 38.3496C49.8987 38.2391 49.7803 38.1341 49.6648 38.0278C49.5454 37.9227 49.4273 37.8188 49.3105 37.7161C48.8392 37.3046 48.3805 36.8887 48.0078 36.4288C47.9621 36.3706 47.9167 36.3127 47.8718 36.2554L47.8143 36.1818C47.8149 36.1796 47.7842 36.1526 47.7635 36.1328C47.7179 36.0912 47.676 36.0483 47.6284 36.0077C47.5787 35.9678 47.5295 35.9282 47.4805 35.8889C47.3833 35.8097 47.2761 35.7365 47.1764 35.6616C47.1243 35.6248 47.0727 35.5883 47.0214 35.5521C46.985 35.5238 46.8783 35.4642 46.8312 35.3867C46.806 35.3546 46.778 35.322 46.7603 35.2945L46.7068 35.2124C46.6744 35.1627 46.6425 35.1134 46.6109 35.0645C46.581 35.0205 46.5531 34.9876 46.5383 34.9663C46.534 34.9626 46.5373 34.9647 46.5264 34.9561L46.4908 34.928L46.4201 34.8722C46.2378 34.7273 46.0625 34.588 45.8944 34.4545C45.8104 34.3872 45.7283 34.3215 45.648 34.2573C45.5264 34.1468 45.4811 34.0572 45.4247 33.9727C45.3723 33.891 45.3246 33.8106 45.2813 33.7581C45.2638 33.7289 45.2279 33.6975 45.1986 33.6674C45.1683 33.6371 45.1383 33.6071 45.1088 33.5775C44.8674 33.3485 44.6282 33.1712 44.3995 33.0583C44.345 33.0233 44.2859 33.0072 44.2323 32.9827C44.1775 32.9617 44.1265 32.9348 44.0748 32.9205C43.9706 32.8949 43.8769 32.8591 43.7898 32.8461C43.7026 32.8333 43.6249 32.8207 43.5573 32.8087C43.4891 32.8044 43.4318 32.8007 43.3857 32.7977C43.2917 32.7898 43.2414 32.7782 43.2391 32.7628Z" fill="white"></path><path d="M29.3822 36.4652C29.2037 36.6464 28.6084 36.3062 28.035 35.809C27.7443 35.5654 27.5049 35.3326 27.3335 35.1434C27.2921 35.0922 27.2537 35.0484 27.2206 35.0066C27.1879 34.9641 27.161 34.9224 27.1409 34.8825C27.101 34.8029 27.088 34.7307 27.1125 34.6733C27.137 34.6161 27.1971 34.5797 27.2894 34.5647C27.3354 34.5572 27.3895 34.5552 27.4508 34.5584C27.5125 34.5609 27.5806 34.5701 27.65 34.5905C27.9389 34.6582 28.2933 34.8489 28.6178 35.1218C28.9409 35.3965 29.1701 35.6946 29.3036 35.9382C29.4349 36.1826 29.4699 36.3774 29.3822 36.4652Z" fill="white"></path><path d="M21.7369 33.001C21.7372 33.0301 21.5359 33.0606 21.1495 33.0694C20.7636 33.0766 20.1955 33.0331 19.4771 32.9828C19.1176 32.956 18.7217 32.9445 18.2931 32.953C18.1869 32.9611 18.0786 32.9696 17.968 32.9782L17.9125 32.9832C17.8984 32.9864 17.88 32.9821 17.8694 32.9916C17.8441 33.0122 17.8388 33.0181 17.7798 33.0633C17.5901 33.2105 17.3929 33.3633 17.1888 33.5216C16.9842 33.6794 16.7725 33.8426 16.5539 34.0113C16.3346 34.179 16.104 34.3447 15.8688 34.519C15.3973 34.8658 14.8989 35.2332 14.3703 35.6083C13.8427 35.9848 13.2901 36.3793 12.7142 36.7904C12.4267 36.9956 12.1333 37.205 11.8343 37.4182C11.5377 37.6336 11.2356 37.853 10.9283 38.0763C10.7745 38.1877 10.6195 38.3001 10.4631 38.4135C10.3093 38.5297 10.1542 38.6468 9.99784 38.7648C9.68535 39.001 9.36797 39.2407 9.0458 39.484C8.72782 39.7319 8.41235 39.9916 8.08851 40.25C7.92701 40.3796 7.76456 40.5101 7.60091 40.6414C7.43917 40.7722 7.27982 40.9188 7.12512 41.0517C7.10792 41.0699 7.09072 41.0883 7.07328 41.1069C7.101 41.1044 7.13528 41.098 7.14842 41.0961C7.37454 41.0898 7.60162 41.0836 7.83002 41.0774C8.06092 41.0808 8.29301 41.0841 8.5263 41.0875C8.75984 41.0869 8.9936 41.1032 9.22857 41.1165C9.46329 41.1328 9.70029 41.1368 9.93609 41.1639C10.8831 41.2411 11.8375 41.389 12.7983 41.5687C13.0372 41.6188 13.2771 41.6692 13.5178 41.7196L13.6629 41.7501C13.6324 41.7492 13.7266 41.7497 13.7811 41.7495L13.9638 41.7492h24.0824C14.1125 41.7514 14.1444 41.7442 14.173 41.7541L14.2597 41.7792C14.4981 41.8483 14.7372 41.9175 14.9771 41.9871C15.2143 42.0545 15.4512 42.1285 15.6893 42.1993C17.3319 42.6919 18.9286 43.2356 20.4525 43.8441C21.9768 44.4508 23.4209 45.1407 24.7626 45.8917C24.9317 45.9829 25.0967 46.0799 25.26 46.1779C25.4236 46.275 25.5864 46.3718 25.7484 46.468C26.069 46.666 26.3821 46.8686 26.6922 47.068C26.9954 47.2779 27.2995 47.4789 27.5916 47.6897C27.7366 47.7965 27.8806 47.9026 28.0239 48.0081C28.0955 48.0609 28.1668 48.1135 28.2379 48.1659L28.2968 48.2091C28.3261 48.2279 28.3533 48.2595 28.3666 48.2704L28.4643 48.3626C29.5138 49.3352 30.3349 50.4521 30.8898 51.5986C30.6671 51.6591 30.4471 51.7189 30.2272 51.7786C30.1431 50.1446 30.1613 48.6606 30.1959 47.3565C30.2322 46.0518 30.2935 44.9268 30.3412 44.0039C30.4415 42.1595 30.5029 41.1245 30.5769 41.124C30.6444 41.1235 30.7168 42.1622 30.7357 44.0124C30.7415 44.9356 30.7488 46.0615 30.757 47.3616C30.7739 48.6588 30.8027 50.1282 30.9262 51.732L30.2631 51.912C29.7182 50.8569 28.935 49.8368 27.9344 48.9416L27.8413 48.8567C27.8217 48.8392 27.8207 48.837 27.813 48.8322L27.7661 48.7988C27.696 48.749 27.6255 48.699 27.5549 48.6488C27.4137 48.5484 27.2718 48.4473 27.129 48.3458C26.8415 48.1452 26.5423 47.9541 26.2445 47.754C25.9396 47.5644 25.6323 47.3714 25.3179 47.1826C25.159 47.0909 24.9992 46.9988 24.8386 46.9062C24.6787 46.8128 24.5171 46.7201 24.351 46.6333C23.0357 45.9167 21.6221 45.2554 20.1244 44.6689C18.6275 44.0808 17.0551 43.55 15.4286 43.0621C15.1927 42.992 14.9588 42.9189 14.7235 42.8517C14.4915 42.7842 14.2602 42.7168 14.0295 42.6497L14.0279 42.6492h23.9638L13.7811 42.6489h23.6899L13.6277 42.6488C13.5972 42.6481 13.5674 42.6516 13.5353 42.6419L13.3241 42.5971C13.0902 42.5474 12.8572 42.498 12.625 42.4485C11.6932 42.2714 10.7707 42.1236 9.85844 42.0436C9.631 42.0157 9.40309 42.0108 9.17708 41.9931C8.95084 41.9787 8.72567 41.9609 8.50122 41.9599C8.27689 41.9548 8.05351 41.9497 7.83133 41.9445C7.60652 41.9487 7.38278 41.953 7.16024 41.9571C6.93711 41.9671 6.71457 41.9771 6.49262 41.9872C6.27749 41.9997 6.06295 42.0123 5.84901 42.0247C5.63603 42.0371 5.42352 42.0496 5.21173 42.0621L4.89554 42.0805L4.73798 42.0895L4.65938 42.0942L4.63967 42.0954C4.63442 42.0952 4.62152 42.0981 4.63179 42.0917L4.66249 42.0655C5.31016 41.5116 5.95043 40.9641 6.58293 40.4232C6.75506 40.2792 6.91119 40.1392 7.08033 40.0064C7.24852 39.8753 7.41563 39.745 7.58155 39.6157C7.91435 39.3583 8.2395 39.0995 8.56596 38.8538C8.89601 38.6136 9.22128 38.377 9.54153 38.144C9.70184 38.0278 9.86083 37.9125 10.0185 37.7982C10.1782 37.6874 10.3366 37.5775 10.4937 37.4685C10.808 37.2509 11.1168 37.0369 11.42 36.8269C11.725 36.6204 12.0242 36.4179 12.3177 36.2194C12.9051 35.8248 13.4689 35.4463 14.0069 35.085C14.547 34.7266 15.0548 34.3789 15.537 34.0518C15.7774 33.8876 16.0141 33.7314 16.2385 33.5742C16.4626 33.4167 16.6799 33.2639 16.8898 33.1164C17.1001 32.9693 17.3032 32.8272 17.4988 32.6905C17.5651 32.6436 17.6306 32.5974 17.6954 32.5514C17.7121 32.5333 17.7353 32.5379 17.7567 32.5364L17.8212 32.5344L17.9391 32.5309C18.0582 32.5284 18.1749 32.526 18.2891 32.5237C18.7426 32.5406 19.1517 32.5802 19.5127 32.6341C20.2357 32.7391 20.7848 32.8372 21.1613 32.8883C21.5369 32.9377 21.7368 32.968 21.7369 33.001Z" fill="white"></path><path d="M37.0265 13.411C37.0753 13.4327 36.8539 14.1031 36.304 15.2595C36.0307 15.8384 35.6645 16.5329 35.2002 17.3192C34.7352 18.105 34.167 18.9804 33.4747 19.9056C32.7827 20.8306 31.9669 21.8056 31.013 22.7849C30.5296 23.2676 30.0236 23.7636 29.4689 24.239C29.1977 24.4839 28.9054 24.7126 28.6167 24.9538C28.3177 25.1822 28.0213 25.4232 27.7044 25.6455C27.0811 26.1037 26.4146 26.5379 25.713 26.9487C25.0134 27.3627 24.2722 27.7436 23.4968 28.0877C21.9502 28.7854 20.2519 29.3094 18.467 29.6222C18.502 29.338 18.5372 29.0524 18.5724 28.7671C18.7092 28.8212 18.8463 28.8756 18.9837 28.93C19.1215 28.9833 19.2572 29.0444 19.3997 29.0845C19.6821 29.1725 19.9627 29.2729 20.2547 29.3325C21.1265 29.5465 22.0153 29.6286 22.8921 29.5969C23.1112 29.5826 23.3296 29.5684 23.5471 29.5543C23.7623 29.5261 23.9766 29.4979 24.1899 29.47C24.2974 29.4614 24.4011 29.428 24.506 29.4059C24.6106 29.3816 24.7151 29.3573 24.8194 29.3331C24.9236 29.308 25.0281 29.2867 25.1314 29.259C25.2343 29.2277 25.337 29.1965 25.4394 29.1652C27.0961 28.6923 28.5589 27.8553 29.9284 27.0121C32.6524 25.3037 34.8075 23.3188 36.4209 21.4926C36.8339 21.0429 37.1958 20.5879 37.5483 20.165C37.7215 19.9511 37.8801 19.7358 38.0397 19.5311C38.1973 19.3251 38.3547 19.129 38.4928 18.929C38.7732 18.5323 39.0473 18.1709 39.2732 17.8207C39.5031 17.4731 39.7253 17.1623 39.9032 16.869C40.0885 16.5797 40.2531 16.3228 40.3957 16.1C40.5322 15.8735 40.65 15.6829 40.7481 15.53C40.9441 15.2242 41.0607 15.0697 41.0884 15.0839C41.1161 15.098 41.0535 15.2802 40.9085 15.615C40.836 15.7825 40.7427 15.9882 40.6299 16.2301C40.5093 16.4677 40.3671 16.7406 40.2053 17.0474C40.0488 17.3573 39.8468 17.6856 39.6355 18.0514C39.4284 18.4199 39.1713 18.8001 38.9064 19.2166C38.776 19.4265 38.6256 19.6328 38.475 19.8493C38.3222 20.0641 38.17 20.2899 38.0026 20.5145C37.6617 20.959 37.3094 21.4361 36.9036 21.9086C35.3197 23.8254 33.1546 25.9142 30.3744 27.7123C30.0325 27.945 29.67 28.1547 29.3057 28.3705C28.9464 28.5926 28.562 28.7917 28.1771 28.9974C27.7999 29.2164 27.3844 29.378 26.974 29.5572C26.5557 29.7157 26.1372 29.8842 25.6949 30.0105C25.5853 30.0445 25.4757 30.0786 25.3657 30.1126C25.2542 30.1433 25.14 30.1678 25.027 30.1956C24.9137 30.2226 24.8001 30.2496 24.6861 30.2768C24.5717 30.3014 24.4594 30.337 24.3416 30.3481C24.108 30.3798 23.8736 30.4117 23.6382 30.4439C23.4022 30.4632 23.1654 30.4767 22.9278 30.493C21.9747 30.5313 20.9956 30.443 20.0412 30.2083C19.7212 30.1419 19.4156 30.0338 19.108 29.9369C18.9526 29.8922 18.8061 29.8269 18.6567 29.769C18.5083 29.7096 18.3599 29.6503 18.2119 29.5912L16.7515 29.0072L18.3171 28.7359C20.0249 28.4401 21.6534 27.9485 23.1458 27.291C23.8938 26.967 24.611 26.6079 25.2904 26.2169C25.9718 25.8291 26.6217 25.4187 27.232 24.9849C27.5421 24.7748 27.833 24.546 28.1269 24.33C28.4109 24.1009 28.699 23.8846 28.9668 23.6519C29.515 23.2011 30.0175 22.7293 30.5001 22.2707C31.4525 21.3393 32.2777 20.4104 32.9872 19.5284C33.6971 18.6461 34.2914 17.8108 34.7886 17.0616C35.2851 16.3119 35.6896 15.6505 36.0059 15.1021C36.6417 14.006 36.9667 13.3838 37.0265 13.411Z" fill="white"></path><path d="M40.8491 15.0837C40.8552 15.0532 40.9312 15.0406 41.0766 15.0462C41.1486 15.0506 41.2347 15.0654 41.3381 15.0832C41.4379 15.1057 41.5561 15.1322 41.6817 15.1687C41.7448 15.1869 41.8112 15.2061 41.8811 15.2262C41.898 15.2311 41.915 15.2361 41.9322 15.2411L41.9626 15.2479C41.9819 15.252 42.0017 15.2562 42.0219 15.2603C42.0997 15.2758 42.172 15.2885 42.2384 15.2906C42.2533 15.2895 42.2747 15.2953 42.2828 15.2883C42.2747 15.2657 42.2662 15.2425 42.2578 15.2193C42.2428 15.1784 42.2273 15.1364 42.2113 15.093C42.1976 15.0575 42.1837 15.0211 42.1692 14.9838C42.1401 14.8798 42.1101 14.7731 42.0794 14.6639C42.0484 14.5518 42.0169 14.4368 41.9845 14.3193L41.9593 14.2268C41.9505 14.1964 41.9457 14.168 41.9428 14.1408L41.9357 14.0947C41.9262 14.0332 41.9167 13.9712 41.9071 13.9084C41.8697 13.6572 41.8307 13.396 41.7903 13.1255C41.7113 12.5845 41.6304 12.006 41.5484 11.3969C41.528 11.2447 41.5072 11.0906 41.4862 10.9347C41.4616 10.7798 41.4367 10.6232 41.4115 10.4648C41.3624 10.1481 41.3123 9.82477 41.2611 9.49556C41.2138 9.18176 41.1658 8.86234 41.1169 8.53827C41.1149 8.53516 41.1138 8.53241 41.114 8.53361L41.1138 8.53337L41.1163 8.53122C41.1147 8.53241 41.1217 8.52692 41.1131 8.53373L41.0867 8.55451C40.9458 8.66512 40.8058 8.7749 40.6667 8.88408C40.5248 8.99087 40.3773 9.09193 40.2344 9.19466C40.1623 9.24543 40.0902 9.29595 40.0186 9.34636C39.942 9.39343 39.8659 9.44025 39.7899 9.48696C39.6387 9.5781 39.4859 9.67629 39.3392 9.75752C39.1942 9.83242 39.0507 9.90672 38.9085 9.98018C38.6252 10.1284 38.3427 10.2661 38.0748 10.4121C37.5447 10.7134 37.0351 10.9859 36.5646 11.2651C36.328 11.4012 36.0993 11.5323 35.8798 11.6586C35.7692 11.7217 35.6608 11.7837 35.5549 11.8442L35.4756 11.8893L35.4364 11.9116L35.4244 11.9167L35.3759 11.9381C35.3106 11.968 35.2247 12.0049 35.1454 12.0467C35.1901 12.0821 35.2454 12.119 35.31 12.157C35.3457 12.177 35.3801 12.1964 35.4133 12.215C35.4874 12.2493 35.5586 12.2823 35.6269 12.3139C35.7724 12.3845 35.9062 12.4458 36.0234 12.5144C36.4969 12.7778 36.7008 13.0085 36.6679 13.0531C36.6292 13.1098 36.3692 12.9866 35.885 12.8367C35.7655 12.7964 35.6261 12.761 35.4765 12.7162C35.4385 12.7055 35.3996 12.6945 35.3599 12.6835C35.3401 12.6778 35.32 12.672 35.2998 12.6662L35.2694 12.6576L35.2252 12.6436C35.0986 12.6011 34.9673 12.5568 34.8311 12.5111C34.6974 12.4607 34.5607 12.4046 34.4147 12.3462C34.2645 12.2829 34.1096 12.2175 33.9501 12.1503C33.9476 12.1479 33.9343 12.1463 33.9407 12.1433L33.9529 12.135L33.9773 12.118L34.0266 12.0839C34.0599 12.0609 34.0935 12.0376 34.1273 12.0143C34.1961 11.9669 34.2659 11.9188 34.3366 11.87C34.4831 11.7696 34.6333 11.6666 34.7871 11.561C35.0178 11.4043 35.2593 11.24 35.5111 11.0691C35.7235 10.9278 35.9446 10.7809 36.1734 10.6286C36.6277 10.3212 37.1364 10.0167 37.6651 9.69015C37.932 9.53128 38.2125 9.38339 38.4959 9.225C38.6381 9.147 38.7819 9.06804 38.9269 8.98836C39.0658 8.90702 39.1897 8.82113 39.324 8.73715C39.3901 8.69511 39.4566 8.65294 39.5233 8.61041C39.5891 8.56263 39.6552 8.51449 39.7216 8.46635C39.854 8.3684 39.9891 8.27392 40.1226 8.17166C40.2551 8.06619 40.3885 7.96011 40.5228 7.85332L40.7014 7.70902L40.9052 7.54083C41.0413 7.42855 41.1779 7.31591 41.3149 7.2029C41.4518 7.09014 41.5884 6.97762 41.7246 6.86545L41.7756 6.8234C41.7831 6.83379 41.7831 6.86378 41.7872 6.88301L41.8057 7.01345L41.8429 7.27362C41.892 7.61955 41.9407 7.9631 41.9891 8.30438C42.0385 8.66524 42.0873 9.02061 42.1352 9.37001C42.1792 9.70388 42.2225 10.0318 42.265 10.353C42.2857 10.5137 42.3061 10.6726 42.3263 10.8297C42.3419 10.9868 42.3575 11.1422 42.3728 11.2957C42.4324 11.9097 42.4859 12.4932 42.5328 13.04C42.5554 13.3133 42.5773 13.5773 42.5983 13.831C42.6033 13.8944 42.6082 13.9574 42.6131 14.0194L42.6167 14.0659C42.6167 14.0696 42.6163 14.0717 42.6156 14.0712L42.6317 14.1577C42.6542 14.2776 42.6762 14.3949 42.6977 14.5095C42.7192 14.6268 42.7399 14.7412 42.7603 14.8529C42.7896 15.0247 42.8182 15.1921 42.8461 15.3548C42.8723 15.5105 42.8976 15.6616 42.9224 15.8082C42.9339 15.8786 42.9454 15.9482 42.9568 16.0165C42.9562 16.0192 42.9611 16.0279 42.9558 16.0259L42.9421 16.022L42.9146 16.0142L42.8602 15.9986C42.8244 15.9882 42.7889 15.9779 42.7536 15.9677C42.6114 15.9278 42.4858 15.8865 42.365 15.8476C42.246 15.8128 42.1264 15.757 42.0192 15.7163C41.9651 15.6954 41.9127 15.6723 41.8623 15.6488C41.8374 15.6372 41.8125 15.626 41.7881 15.6148C41.7708 15.6062 41.754 15.5977 41.7371 15.5893C41.6728 15.5563 41.6115 15.5249 41.5534 15.4952C41.4392 15.4353 41.3377 15.3823 41.2498 15.3362C41.162 15.2939 41.0879 15.2528 41.0276 15.2212C40.9067 15.1612 40.843 15.1143 40.8491 15.0837Z" fill="white"></path><path d="M42.6409 16.8751C42.6691 16.8879 42.6119 17.0738 42.4755 17.4183C42.4406 17.5042 42.4015 17.6001 42.3585 17.706C42.3153 17.8121 42.2671 17.9277 42.2043 18.0475C42.0835 18.2897 41.9429 18.5691 41.78 18.8819C41.6002 19.1841 41.4065 19.5255 41.1774 19.8884C41.0574 20.0664 40.9325 20.2522 40.8024 20.4453C40.7366 20.5414 40.6721 20.6415 40.6011 20.7393C40.5285 20.8359 40.4546 20.9342 40.3793 21.0345C39.7892 21.8458 39.0392 22.7104 38.1563 23.6108C38.0527 23.7157 37.9478 23.822 37.8418 23.9294L37.8219 23.9514C37.8198 23.9611 37.8209 23.9723 37.8202 23.9824L37.8192 24.0041L37.815 24.0649L37.8064 24.1871C37.7832 24.5136 37.7595 24.8475 37.7353 25.1883C37.6876 25.8701 37.6233 26.5754 37.5634 27.308C37.5041 28.0381 37.4319 28.7945 37.3748 29.5709C37.3447 29.9592 37.3141 30.3533 37.2832 30.7528C37.2596 31.1517 37.2357 31.5561 37.2113 31.9655C37.2004 32.1701 37.1837 32.3761 37.1774 32.5831C37.1709 32.79 37.1646 32.9984 37.158 33.2078C37.1515 33.4172 37.1449 33.6278 37.1382 33.8394C37.1349 33.9453 37.1314 34.0513 37.128 34.1578C37.126 34.2642 37.1288 34.3706 37.129 34.4774C37.1316 34.9046 37.1343 35.3362 37.137 35.7722C37.1475 36.2066 37.1805 36.6416 37.2008 37.0825C37.215 37.3039 37.2182 37.5208 37.2413 37.7488C37.2628 37.9758 37.2844 38.204 37.306 38.433C37.3248 38.6595 37.3435 38.8867 37.3625 39.1148C37.3868 39.3375 37.4113 39.561 37.4356 39.7853C37.4451 39.8985 37.4662 40.0069 37.4863 40.1162L37.522 40.3147C37.5222 40.3156 37.5222 40.3169 37.5227 40.3163L37.5231 40.3162L37.5232 40.316L37.6104 40.3159C38.0806 40.3158 38.5537 40.3156 39.0298 40.3154C39.982 40.3162 40.9228 40.317 41.85 40.3178L42.158 40.3184L42.1607 40.319C42.1624 40.3197 42.1618 40.3183 42.1621 40.3176L42.1625 40.316V40.3157L42.1612 40.295L42.1554 40.2109C42.1428 39.9875 42.1209 39.7627 42.1003 39.5392C42.0791 39.3153 42.058 39.0921 42.0371 38.8699C41.947 37.9807 41.856 37.0924 41.8167 36.2137C41.8093 35.9932 41.7967 35.7749 41.7942 35.5563C41.7964 35.337 41.7984 35.119 41.8006 34.9022C41.7966 34.6867 41.8228 34.4661 41.8354 34.2499C41.8432 34.1414 41.8511 34.0333 41.859 33.9256L41.871 33.7664L41.8844 33.6208C41.8992 33.4256 41.9293 33.2385 41.9265 33.0369C41.9305 32.8352 41.9346 32.6346 41.9388 32.4355C41.9437 32.229 41.9421 32.0267 41.9679 31.8143C41.9879 31.6064 42.0053 31.3908 42.0323 31.2043C42.132 30.4353 42.2284 29.6819 42.3134 28.9562C42.4861 27.5037 42.62 26.1495 42.7039 24.9115C42.8805 22.4354 42.8386 20.4262 42.754 19.0404C42.739 18.6932 42.7095 18.3863 42.6911 18.119C42.6747 17.8515 42.6539 17.6258 42.6388 17.4428C42.6107 17.0766 42.6106 16.8809 42.6411 16.8755C42.6718 16.8701 42.7318 17.0555 42.8182 17.4152C42.8626 17.5948 42.9122 17.8183 42.9569 18.0846C43.0036 18.3507 43.0608 18.6578 43.1031 19.0063C43.2966 20.3967 43.4372 22.4352 43.3402 24.9449C43.2963 26.1995 43.1979 27.5703 43.0564 29.0356C42.9868 29.7692 42.9056 30.5232 42.8182 31.3062C42.7927 31.5071 42.7839 31.6846 42.7684 31.8713C42.7478 32.0534 42.7524 32.2508 42.7509 32.4463C42.7498 32.6491 42.7488 32.8531 42.7477 33.0586C42.7537 33.2651 42.7252 33.4851 42.7109 33.7013L42.6978 33.8644L42.6887 34.0154C42.6831 34.1148 42.6773 34.2144 42.6716 34.3143C42.663 34.5149 42.6402 34.7127 42.6468 34.9201C42.6471 35.1258 42.6476 35.3326 42.648 35.5406C42.6526 35.749 42.6673 35.9597 42.6764 36.1708C42.7227 37.0173 42.8185 37.8841 42.9153 38.7804C42.938 39.005 42.9607 39.2307 42.9836 39.4572C43.006 39.6845 43.0292 39.9123 43.0438 40.1446C43.0576 40.3368 43.0712 40.5296 43.085 40.7225L43.1093 41.0646L43.1154 41.1503L43.1184 41.1932C43.118 41.1995 43.1212 41.2093 43.118 41.2128H43.0966L42.925 41.2129C42.568 41.2134 42.2097 41.2138 41.85 41.2142C40.9227 41.215 39.9819 41.2159 39.0298 41.2166C38.5538 41.2165 38.0806 41.2162 37.6104 41.2161C37.4046 41.2159 37.1992 41.2158 36.9943 41.2156H36.8188L36.7749 41.2155C36.7637 41.2115 36.7674 41.1897 36.763 41.1776L36.7477 41.0915L36.6865 40.7476C36.6576 40.5841 36.6287 40.4209 36.5998 40.2579C36.5784 40.1379 36.5561 40.0182 36.5464 39.9001C36.5215 39.6637 36.4934 39.4256 36.4719 39.1928C36.454 38.9623 36.4359 38.7327 36.418 38.5039C36.398 38.2783 36.3779 38.0535 36.3578 37.8297C36.3364 37.607 36.3331 37.3725 36.3201 37.1459C36.1998 35.3173 36.2799 33.5737 36.3823 31.9152C36.413 31.5014 36.4432 31.0927 36.4731 30.6896C36.5111 30.2881 36.5485 29.8919 36.5853 29.5016C36.6568 28.72 36.7436 27.9669 36.8194 27.2358C36.8952 26.5071 36.9767 25.8028 37.0425 25.1271C37.0762 24.7891 37.1091 24.458 37.1414 24.134C37.1506 24.0399 37.1598 23.9462 37.1689 23.8531L37.1788 23.7482L37.1837 23.6959L37.1862 23.6698C37.1866 23.6609 37.1869 23.652 37.1954 23.6469L37.3472 23.5008C37.4693 23.3847 37.59 23.2699 37.7093 23.1565C38.6016 22.3041 39.3679 21.4885 39.9821 20.7244C40.0607 20.6301 40.1378 20.5375 40.2136 20.4465C40.2877 20.3544 40.3555 20.2602 40.4251 20.1699C40.5629 19.9882 40.6956 19.8137 40.8227 19.6461C41.068 19.305 41.2799 18.9842 41.4796 18.7011C41.6634 18.4075 41.8267 18.1467 41.9683 17.9207C42.0427 17.8091 42.1025 17.7016 42.158 17.6035C42.2148 17.5059 42.2663 17.4173 42.3123 17.3382C42.5 17.0229 42.6126 16.8623 42.6409 16.8751Z" fill="white"></path><path d="M34.7572 26.4312C34.7814 26.4507 34.7205 26.5681 34.5805 26.7758C34.5105 26.8796 34.4207 27.006 34.312 27.1539C34.1963 27.2956 34.0563 27.4535 33.899 27.6325C33.7462 27.8166 33.5525 27.9966 33.3445 28.1995C33.141 28.4076 32.8972 28.607 32.6377 28.8259C32.5725 28.8803 32.5063 28.9358 32.439 28.992C32.3687 29.0445 32.2973 29.0978 32.2248 29.1519C32.0792 29.2598 31.9289 29.3713 31.7743 29.486C31.614 29.5922 31.4491 29.7015 31.2798 29.8135C31.1946 29.8691 31.1084 29.9254 31.0211 29.9824C30.9313 30.0351 30.8404 30.0886 30.7483 30.1426C30.5631 30.2484 30.3778 30.366 30.1795 30.4686C30.0806 30.5204 29.9806 30.5729 29.8796 30.6257L29.8035 30.6654L29.771 30.6827L29.7629 30.6877L29.7312 30.7073C29.7158 30.7106 29.7267 30.7285 29.7245 30.7386L29.7257 30.7559C29.7259 30.763 29.7268 30.758 29.7259 30.7982C29.7242 30.9171 29.7224 31.0373 29.7205 31.1587C29.714 31.4006 29.7193 31.6502 29.6978 31.8976C29.6433 32.8956 29.531 33.9496 29.4505 35.039C29.4359 35.1759 29.4365 35.3126 29.4327 35.4504C29.4293 35.5882 29.4258 35.7268 29.4224 35.8661C29.4185 36.1452 29.4012 36.4257 29.4071 36.7123C29.4236 37.2864 29.4194 37.8695 29.4587 38.4688C29.4739 38.7682 29.4892 39.0699 29.5047 39.3743C29.5242 39.6799 29.5439 39.9881 29.5637 40.2985C29.5655 40.3269 29.5646 40.3114 29.5649 40.3158L29.565 40.316L29.5653 40.3164L29.5659 40.3167L29.5667 40.3163L29.5668 40.3161H29.567L29.5843 40.316L29.6435 40.3159C29.9596 40.3158 30.2777 40.3156 30.5977 40.3154C31.8638 40.3184 33.0999 40.3216 34.2938 40.3245C34.2966 40.3244 34.3016 40.328 34.3048 40.325L34.3066 40.2946C34.297 40.1584 34.2876 40.023 34.2783 39.8882C34.2693 39.7467 34.2519 39.6018 34.2395 39.4598C34.1837 38.888 34.1175 38.3151 34.0916 37.74C34.0869 37.4495 34.0786 37.1651 34.1041 36.8691C34.1089 36.7964 34.1136 36.7238 34.1182 36.6517C34.1262 36.5853 34.1342 36.5192 34.1421 36.4533C34.1581 36.3214 34.1739 36.1906 34.1895 36.0608C34.2534 35.5409 34.3156 35.0365 34.3756 34.5486C34.4435 34.0616 34.4794 33.5874 34.5234 33.1326C34.5671 32.6777 34.6092 32.2412 34.6492 31.8245C34.8133 30.1706 34.7882 28.8311 34.7531 27.8955C34.7528 27.6616 34.7323 27.4549 34.7267 27.2747C34.7187 27.0945 34.7143 26.9416 34.7138 26.8175C34.7127 26.5693 34.727 26.4363 34.7578 26.4318C34.7885 26.4274 34.8345 26.5519 34.894 26.7939C34.9237 26.9149 34.9567 27.0653 34.993 27.2437C35.0267 27.4224 35.0749 27.6275 35.1024 27.8623C35.1626 28.331 35.2525 28.9046 35.2795 29.5791C35.2895 29.7476 35.2997 29.922 35.3104 30.102C35.3211 30.2821 35.3116 30.4684 35.3126 30.6601C35.3075 31.0426 35.3122 31.453 35.2849 31.87C35.2631 32.29 35.2404 32.7299 35.2167 33.1883C35.1908 33.6466 35.172 34.124 35.1198 34.6165C35.074 35.1094 35.0265 35.6193 34.9777 36.1444C34.9653 36.2758 34.9526 36.408 34.9401 36.5412C34.9336 36.6077 34.9273 36.6745 34.9208 36.7416C34.9187 36.8035 34.9166 36.8654 34.9145 36.9276C34.9122 36.9896 34.9101 37.0517 34.9078 37.1141L34.9043 37.2076L34.9077 37.3051C34.9121 37.4354 34.9165 37.5666 34.9209 37.6985C34.9559 38.2313 35.0295 38.7873 35.0955 39.3703C35.1108 39.5173 35.1302 39.6619 35.1422 39.8131L35.161 40.0397L35.1705 40.1535L35.1751 40.2104L35.1775 40.2389L35.1796 40.2884C35.1891 40.5745 35.1987 40.8619 35.2083 41.1506L35.2101 41.205L35.1552 41.2055L35.0445 41.2057L34.8225 41.2064C34.674 41.2068 34.5253 41.2071 34.3761 41.2076C33.1558 41.2105 31.8922 41.2137 30.5981 41.2167C30.2781 41.2166 29.96 41.2163 29.6439 41.2162C29.3537 41.216 29.0647 41.2156 28.7765 41.2154C28.7581 41.2141 28.7347 41.2181 28.7205 41.2125L28.7169 41.154L28.7099 41.0367L28.6959 40.8026C28.6869 40.6524 28.6781 40.5025 28.6692 40.3529C28.6512 40.0412 28.6334 39.7315 28.6158 39.4246C28.6027 39.1157 28.5898 38.8094 28.5771 38.5056C28.5435 37.8999 28.5546 37.2964 28.547 36.7094C28.5454 36.4155 28.5677 36.1219 28.5771 35.8333C28.5834 35.6889 28.5896 35.5452 28.5958 35.4025C28.6029 35.26 28.6054 35.1172 28.6229 34.9784C28.729 33.8571 28.8679 32.8172 28.9527 31.8467C28.9822 31.6032 28.9846 31.3671 28.9994 31.1337C29.0055 31.0171 29.0117 30.9016 29.0177 30.7872C29.022 30.6904 29.0264 30.5943 29.0309 30.4983L29.0378 30.3433L29.0395 30.3047L29.0404 30.2855C29.0404 30.2789 29.0397 30.2719 29.0478 30.2705L29.1172 30.237C29.2723 30.1626 29.4258 30.0887 29.5777 30.0157C29.6775 29.9688 29.7762 29.9225 29.8738 29.8766C30.07 29.7859 30.2527 29.681 30.4366 29.5877C30.5281 29.54 30.6183 29.4929 30.7076 29.4463C30.7945 29.3958 30.8802 29.3459 30.9648 29.2968C31.1342 29.1977 31.2991 29.1013 31.4594 29.0077C31.6151 28.9065 31.7662 28.8082 31.9128 28.7129C31.9864 28.6655 32.0587 28.6185 32.1299 28.5725C32.1985 28.5228 32.2659 28.4741 32.3322 28.426C32.5969 28.2333 32.8488 28.0592 33.0621 27.8765C33.2799 27.6988 33.4862 27.5431 33.6533 27.383C33.827 27.2287 33.9813 27.0917 34.1151 26.9728C34.242 26.8468 34.3515 26.7415 34.4427 26.6582C34.6246 26.4912 34.7329 26.4119 34.7572 26.4312Z" fill="white"></path><path d="M26.8731 31.8066C26.8869 31.8343 26.8101 31.9014 26.648 32.005C26.5669 32.0568 26.4646 32.1176 26.3415 32.1872C26.2181 32.2555 26.0669 32.3125 25.8989 32.3857C25.8143 32.4208 25.7248 32.4578 25.6305 32.4967C25.5338 32.5271 25.4325 32.559 25.3264 32.5926C25.2197 32.6252 25.1085 32.6594 24.9929 32.6948C24.8764 32.7276 24.7538 32.7513 24.6273 32.7811C24.5004 32.809 24.3692 32.8398 24.2332 32.8673C24.0965 32.8889 23.9556 32.9113 23.8106 32.9343C23.5199 32.9863 23.2122 33.0086 22.8883 33.0443C22.7264 33.0596 22.5612 33.0672 22.3918 33.079C22.2224 33.0905 22.0495 33.1009 21.8738 33.1055L21.8407 33.1067C21.8303 33.1071 21.8335 33.1073 21.8292 33.1077L21.8146 33.1096L21.7868 33.1132L21.7604 33.1167C21.7533 33.1192 21.739 33.1146 21.7446 33.1284L21.7519 33.184L21.7555 33.2118C21.7572 33.2592 21.759 33.3071 21.7606 33.3549C21.7913 34.1232 21.7536 34.9346 21.7129 35.7829C21.691 36.2034 21.6615 36.6383 21.642 37.075C21.6314 37.2939 21.6206 37.5151 21.6096 37.7384C21.6047 37.9599 21.5998 38.1838 21.5948 38.4097C21.5923 38.5225 21.5899 38.6358 21.5874 38.7497C21.5878 38.8629 21.5932 38.9758 21.5957 39.0896C21.6025 39.3167 21.6092 39.5457 21.616 39.7765C21.6333 39.9541 21.6506 40.133 21.6682 40.3132C21.6684 40.3142 21.6685 40.316 21.6687 40.3156L21.6688 40.3154H21.7342C22.709 40.3184 23.6605 40.3216 24.5797 40.3245C25.0392 40.3282 25.4907 40.332 25.9328 40.3356C26.0432 40.3368 26.1533 40.338 26.2626 40.3391L26.3035 40.3394C26.3127 40.3396 26.3144 40.3397 26.3135 40.3397L26.3146 40.3399L26.3193 40.3409L26.3297 40.3428C26.3358 40.3429 26.3481 40.348 26.3517 40.3441C26.3531 40.3379 26.352 40.3312 26.3511 40.3236L26.3494 40.3058L26.3434 40.2057L26.3424 40.177V40.1572L26.3421 40.1176C26.3418 40.0123 26.3413 39.9077 26.3409 39.8038C26.3404 39.5961 26.3399 39.3912 26.3394 39.1891C26.3507 38.7848 26.3672 38.3913 26.3852 38.0127C26.4112 37.636 26.4362 37.2723 26.4604 36.9224C26.4889 36.5747 26.5165 36.2409 26.5427 35.9223C26.6575 34.6515 26.7148 33.6304 26.7572 32.9194C26.7782 32.2113 26.81 31.8126 26.8736 31.8069C26.9338 31.8013 27.0206 32.1913 27.1078 32.9102C27.1737 33.628 27.2127 34.6754 27.1789 35.9557C27.1646 36.5927 27.1488 37.2903 27.1318 38.0393C27.1318 38.4106 27.1317 38.7948 27.1317 39.1905C27.1388 39.3886 27.1457 39.5895 27.153 39.7932C27.1564 39.8951 27.1599 39.9976 27.1634 40.1007L27.1647 40.1394L27.1654 40.1587L27.1665 40.1691L27.1681 40.1891C27.1694 40.1981 27.1656 40.1943 27.1753 40.2256L27.2165 40.3692C27.2298 40.4179 27.2503 40.4707 27.2572 40.5165C27.2814 40.6138 27.2823 40.6978 27.2905 40.7832C27.297 40.8726 27.3035 40.9623 27.3102 41.0523C27.3102 41.0748 27.3171 41.1036 27.3112 41.121L27.2399 41.126L27.0967 41.1362C27.0008 41.1431 26.9046 41.1499 26.8081 41.1567C26.7112 41.1638 26.614 41.1706 26.5166 41.1775L26.3698 41.188L26.3329 41.1907C26.3195 41.1917 26.3084 41.1925 26.3035 41.1922L26.2626 41.1927C26.1533 41.1939 26.0432 41.195 25.9328 41.196C25.4907 41.1996 25.0392 41.2034 24.5797 41.2071C23.6606 41.2101 22.709 41.2132 21.7342 41.2162C21.5125 41.2162 21.2913 41.2162 21.071 41.2161L20.8896 41.216C20.8764 41.2138 20.8551 41.2208 20.8486 41.2112L20.8444 41.1663L20.8361 41.0766L20.8026 40.7183C20.7753 40.4192 20.748 40.1223 20.7209 39.8274C20.7121 39.5833 20.7102 39.3417 20.705 39.1017C20.7035 38.9817 20.6993 38.8619 20.7004 38.7436C20.7042 38.6257 20.7081 38.5082 20.7121 38.3914C20.7207 38.1579 20.7264 37.9255 20.7379 37.6973C20.753 37.4702 20.7681 37.2453 20.7829 37.0228C20.8117 36.5767 20.851 36.1487 20.8844 35.7263C20.9473 34.8894 21.0114 34.0966 21.0135 33.3627C21.0135 33.0639 21.0135 32.7703 21.0133 32.4821V32.4216V32.4066C21.0168 32.4049 21.0231 32.4061 21.0279 32.4059H21.0587L21.181 32.4064C21.262 32.4068 21.3427 32.4071 21.4228 32.4074C21.5714 32.4084 21.7185 32.4092 21.8641 32.4101C22.037 32.4146 22.2054 32.4138 22.3701 32.4122C22.5347 32.4103 22.6967 32.4129 22.8535 32.408C23.1662 32.3933 23.4671 32.393 23.7469 32.3647C23.8876 32.354 24.0241 32.3436 24.1567 32.3336C24.2881 32.3169 24.4153 32.3009 24.5383 32.2852C24.6611 32.2683 24.7814 32.2576 24.8947 32.238C25.0078 32.2165 25.1167 32.1959 25.2209 32.1762C25.3258 32.1571 25.4263 32.1388 25.522 32.1215C25.6158 32.0972 25.7051 32.0742 25.7897 32.0524C25.9586 32.0071 26.114 31.9782 26.2431 31.938C26.3717 31.8965 26.4822 31.8636 26.5733 31.8394C26.7553 31.7914 26.8591 31.7789 26.8731 31.8066Z" fill="white"></path><path d="M35.7911 20.1011C35.837 20.1491 35.0988 20.9706 33.9065 22.312C33.6001 22.641 33.2694 23.0064 32.9006 23.3862C32.5215 23.755 32.1157 24.1544 31.6856 24.5619C30.8262 25.3794 29.8418 26.2512 28.7416 27.0818C28.1926 27.4989 27.6341 27.8784 27.0781 28.2214C26.9427 28.3119 26.7973 28.3868 26.657 28.4659C26.5161 28.5439 26.3766 28.6211 26.2386 28.6976C26.1 28.7733 25.9487 28.8317 25.8068 28.898C25.6619 28.9582 25.5154 29.0077 25.3725 29.0616C24.7937 29.2571 24.2249 29.3651 23.6934 29.4301C23.1614 29.4945 22.6653 29.5172 22.214 29.5266C21.3112 29.5401 20.5868 29.5076 20.086 29.4892C19.5853 29.4678 19.308 29.4512 19.3066 29.4185C19.3053 29.389 19.582 29.3463 20.0838 29.3138C20.5853 29.2784 21.312 29.2622 22.2009 29.2084C22.6449 29.1789 23.1296 29.1381 23.6421 29.06C24.154 28.9815 24.6948 28.8641 25.2362 28.6694C25.3693 28.616 25.5067 28.567 25.6409 28.5086C25.7724 28.4439 25.9083 28.3904 26.0407 28.3155C26.1729 28.2397 26.3067 28.1634 26.4416 28.0862C26.5761 28.0082 26.7147 27.9354 26.8469 27.8453C27.3852 27.5059 27.9305 27.1322 28.4706 26.7217C29.5538 25.9036 30.5319 25.0549 31.4048 24.2559C31.8388 23.8563 32.2511 23.4767 32.6371 23.1212C33.0138 22.7562 33.3556 22.4059 33.6748 22.0932C34.3032 21.4546 34.8151 20.9397 35.1872 20.6C35.5556 20.2574 35.7691 20.079 35.7911 20.1011Z" fill="white"></path><path d="M37.2243 19.3047C37.2692 19.335 36.8019 20.1413 35.8844 21.3334C35.7687 21.4817 35.6476 21.637 35.5214 21.7988C35.3895 21.9562 35.2523 22.1198 35.1103 22.2892C34.8306 22.6321 34.5054 22.9754 34.1726 23.3456C33.4877 24.0676 32.7027 24.8331 31.8266 25.5789C30.9449 26.3182 30.0554 26.9629 29.2164 27.5032C29.0023 27.6316 28.7937 27.7568 28.5909 27.8784C28.4888 27.938 28.391 28.0011 28.2896 28.0548C28.188 28.1084 28.0883 28.1612 27.9901 28.2132C27.7936 28.3162 27.6039 28.4157 27.4215 28.5115C27.2337 28.5964 27.0535 28.678 26.8815 28.7559C26.7083 28.8308 26.5479 28.912 26.3876 28.9695C26.2282 29.0285 26.0779 29.0841 25.9372 29.1362C25.7965 29.1871 25.6656 29.2342 25.5449 29.2778C25.4213 29.3123 25.3083 29.3439 25.2065 29.3723C24.799 29.4819 24.5712 29.5278 24.5623 29.498C24.5533 29.4683 24.7637 29.3657 25.1486 29.2068C25.245 29.1679 25.352 29.1244 25.4692 29.0768C25.584 29.0235 25.7086 28.9653 25.8425 28.903C25.9766 28.8419 26.1201 28.7765 26.2721 28.7073C26.4253 28.6407 26.5785 28.551 26.7443 28.4684C26.9091 28.3838 27.0818 28.2952 27.2618 28.2027C27.4369 28.1014 27.6192 27.9962 27.8079 27.887C27.9024 27.8327 27.9985 27.7777 28.0961 27.7217C28.1936 27.6658 28.288 27.6005 28.3866 27.5393C28.5825 27.4147 28.784 27.2865 28.9906 27.155C29.8021 26.6053 30.668 25.9625 31.5359 25.2348C32.3983 24.5006 33.1803 23.7555 33.8729 23.0583C34.2095 22.7007 34.5411 22.371 34.8298 22.0424C34.977 21.8807 35.1193 21.7244 35.2559 21.5743C35.3886 21.4204 35.516 21.2729 35.6376 21.1319C36.6088 20.0032 37.1668 19.2645 37.2243 19.3047Z" fill="white"></path><path d="M36.5079 16.1195C36.4838 16.0998 36.5088 16.0165 36.5723 15.8858C36.6022 15.8189 36.6496 15.7464 36.6914 15.6528C36.7348 15.5602 36.786 15.4567 36.8441 15.3443C36.8969 15.2282 36.9547 15.1014 37.0167 14.9652C37.0746 14.8266 37.1367 14.6789 37.2021 14.5233C37.3261 14.2076 37.4603 13.8604 37.5993 13.4889C37.635 13.3963 37.6701 13.3048 37.7049 13.2146L37.7312 13.1471L37.7378 13.1303C37.7395 13.1261 37.7384 13.1291 37.7389 13.128L37.7394 13.1278C37.7401 13.1274 37.741 13.1267 37.7424 13.1255C37.7434 13.1245 37.7433 13.1241 37.7433 13.123L37.7426 13.1211C37.7415 13.1204 37.7449 13.1218 37.7401 13.1193L37.7247 13.1115L37.694 13.0961C37.6125 13.0543 37.5327 13.0136 37.4548 12.9738C37.1499 12.8104 36.8828 12.6518 36.6595 12.527C36.4381 12.3921 36.2545 12.3 36.1302 12.2222C36.0062 12.1448 35.9408 12.0873 35.9507 12.0578C35.9605 12.0283 36.0449 12.0295 36.192 12.0581C36.3388 12.0865 36.5518 12.1383 36.7951 12.2388C37.045 12.3309 37.3268 12.4603 37.6389 12.6016C37.7163 12.6357 37.7958 12.6707 37.8769 12.7066C37.9418 12.7364 38.0075 12.7665 38.0738 12.7971L38.1989 12.8552L38.2621 12.8846L38.294 12.8994C38.3024 12.9007 38.2969 12.9074 38.2955 12.9125L38.2896 12.9286C38.2027 13.1615 38.1129 13.4024 38.0208 13.6491C37.8815 14.0214 37.7312 14.3752 37.5821 14.6913C37.5031 14.8481 37.4268 14.9966 37.3507 15.1331C37.2692 15.2676 37.1938 15.3926 37.1202 15.5037C37.0408 15.6121 36.9677 15.7087 36.9018 15.7916C36.8377 15.8758 36.7664 15.9375 36.7134 15.9902C36.603 16.0932 36.5319 16.1392 36.5079 16.1195Z" fill="white"></path><path d="M38.021 39.8506C37.9696 39.8631 37.7226 39.095 37.5419 37.8082C37.5206 37.6472 37.4983 37.4787 37.4752 37.3031C37.459 37.1268 37.4422 36.9434 37.4248 36.7535C37.3851 36.3735 37.3732 35.9664 37.3501 35.538C37.3244 34.6811 37.3315 33.7386 37.3794 32.7522C37.4826 30.7795 37.7008 29.0084 37.8778 27.7317C38.0574 26.4549 38.1981 25.6692 38.2599 25.6756C38.3219 25.6819 38.2929 26.4809 38.1945 27.7657C38.0987 29.0506 37.9316 30.8201 37.8294 32.7747C37.7819 33.7521 37.7623 34.6829 37.7651 35.5293C37.7766 35.9518 37.7745 36.3545 37.7976 36.7298C37.8058 36.9177 37.8138 37.0993 37.8215 37.2738C37.8344 37.4479 37.8468 37.6148 37.8586 37.7744C37.956 39.0503 38.0908 39.8356 38.021 39.8506Z" fill="white"></path><path d="M39.2951 40.7266C39.2672 40.7399 39.1998 40.6566 39.1003 40.4896C39.0058 40.3213 38.8914 40.0654 38.7862 39.7396C38.5681 39.0887 38.3901 38.1597 38.2984 37.1269C38.2119 36.0935 38.2247 35.1516 38.3034 34.4736C38.3416 34.1347 38.3947 33.862 38.4462 33.6769C38.5025 33.4918 38.5478 33.3945 38.5783 33.4003C38.6088 33.4063 38.6219 33.5143 38.62 33.7009C38.6203 33.8884 38.6209 34.1578 38.6215 34.4903C38.6252 35.1554 38.6627 36.0759 38.7473 37.0881C38.8372 38.0996 38.9612 39.0103 39.0943 39.6586C39.1571 39.984 39.2215 40.2435 39.2633 40.4253C39.3098 40.6046 39.3232 40.7131 39.2951 40.7266Z" fill="white"></path><path d="M30.6149 40.3283C30.5873 40.3428 30.5068 40.2353 30.3826 40.0224C30.3147 39.918 30.2621 39.7787 30.1955 39.6176C30.1645 39.5365 30.1243 39.451 30.0961 39.3568C30.0684 39.2623 30.0391 39.1625 30.0083 39.0576C29.9405 38.8481 29.9024 38.6128 29.8499 38.3611C29.8218 38.2353 29.8112 38.1037 29.7908 37.9687C29.775 37.8334 29.7494 37.6943 29.7413 37.5511C29.6859 36.9784 29.6752 36.3473 29.6942 35.6871C29.7466 34.3672 29.928 33.186 30.1133 32.3445C30.2969 31.5019 30.4772 30.9975 30.5351 31.011C30.5983 31.0256 30.5288 31.5514 30.4274 32.3974C30.3242 33.2429 30.1958 34.4116 30.1446 35.7034C30.1262 36.3489 30.1239 36.9637 30.1553 37.5201C30.1575 37.6599 30.1761 37.7939 30.1846 37.9257C30.1975 38.0566 30.2002 38.1858 30.2195 38.3073C30.2545 38.5511 30.2731 38.7825 30.3187 38.9865C30.4627 39.814 30.6796 40.2943 30.6149 40.3283Z" fill="white"></path><path d="M32.0482 40.4876C32.0327 40.5146 31.9802 40.515 31.8941 40.4898C31.8507 40.4776 31.7991 40.4588 31.7463 40.4254C31.6931 40.3931 31.6275 40.3586 31.5697 40.3046C31.5083 40.2537 31.4428 40.1947 31.3845 40.1217C31.3198 40.0523 31.2673 39.9683 31.2096 39.8803C31.1042 39.7 31.0155 39.4886 30.9545 39.2617C30.838 38.8063 30.8346 38.3893 30.863 38.0947C30.8922 37.7992 30.9519 37.6209 31.013 37.6208C31.0761 37.6207 31.1294 37.7998 31.1812 38.0813C31.2334 38.3626 31.2875 38.7465 31.39 39.1465C31.4438 39.3454 31.508 39.5266 31.5767 39.6862C31.6154 39.7628 31.6473 39.84 31.6884 39.9042C31.724 39.9731 31.7647 40.0313 31.8018 40.0861C31.9516 40.3029 32.0821 40.4287 32.0482 40.4876Z" fill="white"></path><path d="M21.6956 40.4877C21.6645 40.4894 21.6331 40.3979 21.603 40.2292C21.5722 40.0606 21.5408 39.8141 21.5335 39.5115C21.502 38.904 21.5366 38.0691 21.6194 37.1516C21.7038 36.2346 21.8338 35.4106 21.9543 34.8187C22.0781 34.2269 22.1931 33.8682 22.2532 33.878C22.3158 33.8882 22.3123 34.2635 22.27 34.8619C22.2309 35.4611 22.1518 36.2845 22.0681 37.1938C21.9838 38.1014 21.9075 38.9231 21.8522 39.5192C21.819 39.8172 21.8018 40.0569 21.7785 40.2243C21.7545 40.3916 21.7267 40.486 21.6956 40.4877Z" fill="white"></path><path d="M22.8906 40.1692C22.8349 40.1904 22.7272 40.0615 22.6231 39.8162C22.525 39.5705 22.4519 39.2045 22.4668 38.8001C22.4884 38.3963 22.5887 38.0436 22.695 37.8055C22.8065 37.5681 22.9135 37.4406 22.9702 37.4617C23.0302 37.4837 23.0305 37.6472 23.0024 37.8897C22.9788 38.1343 22.9366 38.4606 22.9169 38.8202C22.9044 39.1799 22.9206 39.503 22.9336 39.7448C22.9521 39.984 22.9513 40.1468 22.8906 40.1692Z" fill="white"></path><path d="M26.6334 45.6639C26.5825 45.7159 25.9963 45.1867 24.9394 44.4855C24.4154 44.1292 23.766 43.7421 23.0343 43.3334C22.2984 42.9311 21.4712 42.523 20.588 42.1266C19.6995 41.7422 18.8402 41.4076 18.0464 41.1376C17.2507 40.8757 16.5263 40.6602 15.9087 40.5193C14.6764 40.2219 13.8887 40.1627 13.8916 40.0893C13.8904 40.0383 14.6979 39.9846 15.9728 40.2071C16.6108 40.3105 17.3572 40.4977 18.174 40.7424C18.9884 40.9951 19.8671 41.3235 20.7697 41.7141C21.6669 42.1167 22.5022 42.5429 23.2389 42.9721C23.9717 43.4076 24.6145 43.8296 25.1245 44.226C26.1544 45.0085 26.6715 45.629 26.6334 45.6639Z" fill="white"></path><path d="M38.4986 41.6821C38.5147 41.7456 38.1747 41.8831 37.6403 42.1194C37.3721 42.2352 37.0579 42.3834 36.7116 42.5509C36.3668 42.7223 35.9934 42.9201 35.6094 43.1408C35.2269 43.3643 34.8743 43.5942 34.5586 43.8111C34.2495 44.0357 33.9714 44.2408 33.7532 44.4307C33.3091 44.8018 33.0586 45.0671 33.0035 45.0266C32.9575 44.9948 33.1241 44.6516 33.5321 44.2012C33.7321 43.9725 34.0007 43.7318 34.31 43.4785C34.6249 43.2335 34.986 42.9833 35.3827 42.7514C35.7808 42.5224 36.1734 42.329 36.5387 42.1732C36.9058 42.0213 37.2423 41.8997 37.532 41.8196C38.1104 41.6544 38.4847 41.625 38.4986 41.6821Z" fill="white"></path><path d="M21.7754 51.318C21.7469 51.3763 21.0303 51.0791 19.8788 50.5949C19.3035 50.3517 18.6161 50.0698 17.8503 49.7661C17.0826 49.4674 16.2348 49.1512 15.3347 48.8514C14.4333 48.5555 13.5644 48.31 12.7679 48.1106C12.368 48.0185 11.9891 47.924 11.6304 47.8571C11.4514 47.822 11.2792 47.7822 11.1121 47.7534C10.9451 47.7247 10.7847 47.6971 10.6317 47.6708C10.326 47.6121 10.0467 47.5805 9.8022 47.5424C9.67988 47.5239 9.5658 47.5067 9.46092 47.4908C9.35569 47.4777 9.25953 47.4655 9.17304 47.4548C8.82687 47.4081 8.63479 47.3674 8.63575 47.3364C8.63682 47.3052 8.83117 47.2867 9.18379 47.2796C9.27207 47.2788 9.37014 47.2777 9.47741 47.2767C9.58456 47.2784 9.70079 47.2856 9.82585 47.2916C10.0756 47.3062 10.3615 47.316 10.6742 47.3551C10.831 47.3726 10.9953 47.3909 11.1664 47.41C11.3375 47.4302 11.5136 47.4618 11.6971 47.4894C12.0648 47.5416 12.4524 47.6234 12.8614 47.7061C13.6757 47.8862 14.5623 48.1236 15.476 48.4235C16.3882 48.7274 17.2414 49.0591 18.0075 49.3816C18.7714 49.7094 19.4504 50.0237 20.0113 50.3053C21.1347 50.8661 21.8017 51.2646 21.7754 51.318Z" fill="white"></path><path d="M53.5497 47.8141C53.5497 47.8453 53.3142 47.8771 52.8893 47.9084C52.4647 47.9366 51.851 47.9774 51.0929 48.0278C49.5792 48.1358 47.4892 48.3284 45.2271 48.7802C44.6606 48.9075 44.1075 49.032 43.5733 49.1522C43.0292 49.2608 42.5086 49.3445 42.0141 49.4321C41.0253 49.6036 40.1426 49.7798 39.4203 49.9863C38.6969 50.1887 38.1407 50.4318 37.7993 50.6623C37.6278 50.7769 37.5134 50.8874 37.4343 50.9636C37.3614 51.0438 37.3182 51.087 37.304 51.0791C37.2911 51.072 37.3076 51.0134 37.3615 50.9091C37.421 50.8098 37.5248 50.6685 37.6923 50.5233C38.0255 50.2307 38.5937 49.9296 39.3246 49.6823C40.0553 49.4306 40.9474 49.219 41.9379 49.024C42.4327 48.9249 42.9541 48.8318 43.4834 48.7201C43.6161 48.6922 43.7463 48.6615 43.8782 48.6291C44.0148 48.5968 44.1526 48.5645 44.2914 48.5319C44.5692 48.4684 44.8499 48.3972 45.1366 48.3389C47.4346 47.8799 49.5523 47.7367 51.0787 47.7094C51.8428 47.7019 52.4607 47.706 52.8875 47.733C53.3142 47.7557 53.5497 47.7829 53.5497 47.8141Z" fill="white"></path></svg>