<svg xmlns="http://www.w3.org/2000/svg" width="46" height="46" viewBox="0 0 46 46" fill="none"><path d="M2.02397 34.605C1.61644 34.9995 1.48475 35.5488 1.43114 35.9395C1.35474 36.3645 1.36972 36.8375 1.49108 37.291C1.72724 38.2321 2.47244 38.9009 3.19233 39.312C3.93141 39.7335 4.71693 39.9738 5.50582 40.1378C6.29408 40.2967 7.09479 40.3767 7.87989 40.3738C10.6663 40.3973 9.2519 40.3781 14.4848 40.4675C17.3531 40.5255 20.1246 40.584 22.7684 40.5905C28.0581 40.5751 32.7978 40.4776 36.7901 40.4097C37.785 40.3786 38.7328 40.4099 39.6823 40.2746C40.6396 40.1518 41.4929 39.7238 42.1636 39.254C42.8392 38.774 43.4343 38.1848 43.6732 37.4217C43.9216 36.6414 43.5947 35.8713 43.1334 35.4534C43.1251 35.446 43.1163 35.4416 43.108 35.4344C43.4447 34.6681 43.9529 28.0782 43.7005 20.0508C43.6707 18.9707 43.6095 17.9511 43.619 16.9628C43.6195 14.509 43.7315 11.3221 42.6121 9.07806C41.977 7.7301 41.0111 6.87304 40.2334 6.55689C39.753 6.35302 39.4037 6.32348 39.1916 6.34184C38.6944 5.94254 38.0906 5.65171 37.4815 5.50989C36.7262 5.32628 35.9645 5.29504 35.2337 5.29715C14.5343 5.6172 12.018 5.81522 8.08503 5.71397C6.77274 5.67324 4.99403 5.46557 3.6695 6.60902C3.35188 6.89098 3.09524 7.25187 2.9359 7.64083C2.7888 8.03106 2.71198 8.4331 2.70671 8.817C2.70373 10.0459 2.95529 20.3041 2.98001 21.3346C3.0442 23.7716 3.25393 31.5668 3.47027 33.9959C3.4268 34.0008 3.3867 33.9991 3.34259 34.0054C2.92472 34.0675 2.42158 34.207 2.02397 34.605ZM41.2221 28.6375C41.3296 28.7221 41.4435 28.8057 41.5699 28.8838C41.9737 29.1332 42.3763 29.2797 42.6881 29.3143C42.7119 30.4506 42.7353 31.4632 42.7617 32.3261C42.6406 32.2388 42.5078 32.1535 42.3645 32.0742C41.8871 31.8137 41.411 31.6681 41.1143 31.7274C41.1255 31.5077 41.1367 31.2829 41.1472 31.04C41.1787 30.3366 41.2038 29.526 41.2221 28.6375ZM41.2029 20.7736C41.5721 21.0656 42.0345 21.2837 42.5049 21.3506C42.5338 22.3609 42.5587 23.3417 42.5808 24.2876C42.4907 24.2253 42.3955 24.165 42.2913 24.1101C41.907 23.9077 41.5341 23.8247 41.2481 23.8393C41.2404 22.8325 41.2269 21.7846 41.2029 20.7736ZM41.2532 24.8948C41.6273 25.2026 42.1447 25.4428 42.6079 25.4787C42.6285 26.4198 42.6469 27.3157 42.6642 28.1594C42.1994 27.7644 41.6606 27.5097 41.2418 27.425C41.2515 26.6372 41.2555 25.793 41.2532 24.8948ZM42.2286 19.9757C41.8424 19.7697 41.4663 19.6608 41.1763 19.6488C41.1527 18.6416 41.1278 17.5894 41.1025 16.5029C41.1869 16.5637 41.2766 16.6224 41.376 16.6755C41.7658 16.8836 42.1421 16.9505 42.4116 16.9035C42.4114 16.9206 42.4107 16.9366 42.4105 16.9539C42.3821 18.0654 42.4511 19.3308 42.4682 20.1169C42.3922 20.0683 42.3128 20.0206 42.2286 19.9757ZM42.4329 15.9434C42.3008 15.8138 42.1478 15.6891 41.9574 15.5874C41.6472 15.4217 41.3327 15.347 41.0752 15.3514C41.0462 14.1297 41.0692 15.0237 41.001 12.4563C41.0337 12.4759 41.0643 12.4964 41.0978 12.5156C41.613 12.8083 42.1127 12.975 42.4354 12.951C42.4786 13.9598 42.4642 14.6513 42.4329 15.9434ZM41.0662 32.5737C41.4797 33.0988 42.2258 33.4514 42.8018 33.4489C42.8419 34.3908 42.8917 35.0341 42.9595 35.323C42.3397 34.8573 41.6052 34.6745 40.8323 34.6141C40.8931 34.5656 40.9836 33.8619 41.0662 32.5737ZM41.8124 9.42692C42.1007 10.1386 42.2645 10.9956 42.3588 11.9365C41.9878 11.5655 41.4878 11.2748 40.9659 11.1381C40.9621 10.9935 40.9583 10.8534 40.9545 10.7078C40.9461 10.0951 40.9294 9.31211 40.6985 8.60996C40.49 7.94537 40.1422 7.29999 39.6391 6.76224C39.7522 6.8226 39.8716 6.88929 40.0038 6.97878C40.6141 7.37618 41.346 8.19483 41.8124 9.42692ZM3.81808 8.85435C3.83792 8.28853 4.02469 7.79363 4.42062 7.46207C4.80515 7.11617 5.39587 6.93762 6.0117 6.86544C6.32532 6.83442 6.64146 6.83062 6.97365 6.84582C7.33053 6.86101 7.6891 6.87621 8.04978 6.89161C9.49186 6.94079 10.9618 6.94501 12.4537 6.9296C20.1603 6.79348 22.2454 6.76717 35.2411 6.47522C36.6342 6.44947 37.9296 6.60754 38.7413 7.45785C39.1587 7.86159 39.4546 8.3873 39.6376 8.94341C39.8275 9.51429 39.8493 10.0615 39.8702 10.7398C40.2677 19.9749 40.4381 22.7293 40.581 27.5449C40.5805 27.5455 40.5799 27.5457 40.5795 27.5463C40.5227 27.6382 40.5345 27.7627 40.5917 27.9018C40.706 31.8953 40.6981 34.5048 40.818 34.6128C40.754 34.608 40.6802 34.5987 40.6217 34.5957C40.0244 34.5675 39.714 34.6238 39.714 34.6612C39.7127 34.7087 40.0225 34.7363 40.593 34.8427C41.135 34.9617 42.0663 35.0987 42.7961 35.7953C43.1277 36.1427 43.317 36.7081 43.114 37.2399C42.9211 37.78 42.4027 38.2823 41.7776 38.6822C41.136 39.0856 40.4178 39.4182 39.5785 39.4967C38.7421 39.5902 37.7835 39.5359 36.7857 39.5374C32.7982 39.5136 28.0505 39.4853 22.7783 39.4538C11.5026 39.1891 11.2749 39.177 7.88559 39.1419C6.58715 39.1453 4.92743 38.8848 3.80837 38.245C3.24488 37.9202 2.79619 37.4886 2.67336 36.962C2.60604 36.7011 2.5862 36.4179 2.64128 36.122C2.68919 35.7913 2.75483 35.5944 2.8823 35.4712C3.11973 35.1968 3.81449 35.1398 4.48077 35.1806C4.82498 35.1955 5.17532 35.2314 5.57863 35.2354C6.80476 35.2217 7.79896 35.2074 12.789 35.1491C13.8848 35.1407 14.9521 35.1326 16.0003 35.1246C16.0062 35.158 16.0092 35.1856 16.0166 35.2221C16.1031 35.5868 16.2382 36.1277 16.6881 36.7311C16.9121 37.0281 17.2493 37.3351 17.7069 37.5187C18.1712 37.7021 18.6551 37.7114 19.0702 37.7308C19.9248 37.768 20.8645 37.7918 21.851 37.7988C22.8307 37.7977 23.7833 37.8256 24.6997 37.6878C25.6051 37.5593 26.4558 37.2273 27.0119 36.729C27.5775 36.2311 27.8143 35.7042 27.9559 35.3618C28.0078 35.2263 28.0391 35.1185 28.0598 35.0261C31.4684 34.9803 34.2563 34.9254 36.2467 34.8631C38.4781 34.8104 39.7127 34.7475 39.714 34.6612C39.715 34.5772 38.4823 34.478 36.2518 34.383C34.021 34.3053 30.7924 34.233 26.8019 34.1698C24.3681 34.1426 21.648 34.112 18.7015 34.0789C18.8592 33.474 19.0546 31.8038 19.1544 29.3746C19.2114 27.8313 19.2258 25.9873 19.0907 23.937C19.0455 23.3343 18.9902 22.7197 18.9181 22.0902C19.3414 22.2598 19.8885 22.347 20.4988 22.3962C21.3373 22.4534 22.3885 22.4264 23.5014 21.9886C23.9456 21.8145 24.3884 21.5558 24.79 21.213C25.7256 21.392 27.5917 21.6147 30.1297 21.7531C31.0651 21.8033 32.0906 21.839 33.1924 21.8548C33.7327 21.8612 34.3053 21.8854 34.9245 21.8557C35.5369 21.8122 36.2351 21.7525 36.9233 21.3162C37.2601 21.0951 37.5505 20.7612 37.7297 20.3872C37.9072 20.0162 37.9676 19.6004 38.0149 19.3003C38.2209 17.9444 38.3045 16.575 38.2757 15.1927C38.2512 14.5056 38.2664 13.7969 38.1725 13.0278C38.0697 12.2834 37.9024 11.419 37.1882 10.7396C36.4508 10.1111 35.614 10.025 34.9241 9.9558C32.5212 9.79552 29.8811 9.69516 27.4815 9.87434C26.3518 9.92879 25.1271 10.2852 24.4133 11.1562C23.6981 12.0323 23.6485 13.0265 23.6189 13.7637C23.5913 14.5081 23.6453 15.1953 23.7398 15.7075C23.9304 16.7426 24.0408 17.2954 24.1221 17.2973C24.212 17.299 24.2605 16.6996 24.2179 15.6621C24.1989 15.1374 24.216 14.5452 24.3069 13.8118C24.3901 13.1042 24.533 12.2925 25.0673 11.7335C25.5966 11.1634 26.4991 10.9066 27.537 10.8956C29.8758 10.816 32.4918 10.9763 34.8164 11.1596C35.4403 11.2143 36.0411 11.35 36.3661 11.6509C36.6855 11.9367 36.8752 12.5361 36.9484 13.1808C37.0295 13.8251 37.0212 14.5262 37.0487 15.2227C37.086 16.5966 37.0127 17.898 36.8486 19.1338C36.7777 19.7805 36.6452 20.1162 36.287 20.3743C35.9341 20.6236 35.3901 20.727 34.8506 20.7734C34.2774 20.8204 33.7428 20.8231 30.1502 20.8811C27.8865 20.8933 26.1498 20.869 25.1319 20.8887C25.6984 20.2846 26.0694 19.5149 26.0519 18.6883C26.8011 18.0525 27.8447 16.6667 28.3018 15.7856C28.8565 15.8265 29.4727 15.8516 30.1337 15.8516C32.4249 15.8516 34.2821 15.5753 34.2821 15.2347C34.2821 14.8941 32.4249 14.618 30.1337 14.618C27.8428 14.618 25.9854 14.8941 25.9854 15.2347C25.9854 15.3968 26.4149 15.5433 27.1029 15.6532C26.5172 16.2379 26.0104 16.9354 25.6568 17.6252C25.4827 17.4332 25.2191 17.2812 24.9586 17.2445C24.6663 17.1989 24.4093 17.2633 24.224 17.3327C23.8471 17.487 23.6668 17.6058 23.4047 17.7265C23.1612 17.8456 22.9225 17.9568 22.6884 18.0585C21.7537 18.4684 20.8831 18.7045 20.1354 18.7712C19.0592 18.8782 18.3035 18.6727 17.919 18.5992C17.6205 18.1514 17.2244 17.7367 16.7553 17.4526C15.5675 16.7169 14.2191 16.635 13.0358 16.8102C12.4567 16.8819 11.7876 17.1065 11.2927 17.4345C10.7784 17.7569 10.3527 18.1541 9.99331 18.5754C8.73993 20.0662 8.13683 21.9354 8.35897 23.9746C8.4514 24.7907 8.64641 25.4808 8.92942 26.0973C9.25887 26.7266 9.739 27.1013 10.1862 27.2937C10.6075 27.4691 10.9861 27.4343 11.2195 27.3448C11.202 27.8351 11.1921 28.3536 11.1912 28.8918C11.1876 31.2844 11.3639 33.31 11.6104 34.0099C10.3697 34.0102 6.95622 34.0275 5.58349 34.0333C5.27536 34.0293 4.91426 33.993 4.54176 33.9736C4.27141 33.9601 3.98481 33.9611 3.68829 33.9799C3.93758 29.9731 3.82853 12.9416 3.81808 8.85435ZM10.4017 26.8647C10.0919 26.6656 9.7447 26.2993 9.5594 25.8166C9.38782 25.3019 9.25275 24.6252 9.2289 23.9098C9.15778 22.4673 9.58156 20.7177 10.8495 19.3231C11.4837 18.6364 12.2384 18.0967 13.212 18.006C14.1921 17.8692 15.2775 17.9771 16.0968 18.4958C16.9216 18.9935 17.3282 19.9292 17.5397 20.9454C17.7411 21.9606 17.8552 23.0437 17.9578 24.0301C18.0829 25.3217 18.1564 26.5259 18.2094 27.6367C17.8166 27.3748 16.5085 27.1808 14.9386 27.1808C13.9251 27.1808 13.0252 27.2627 12.402 27.3902C12.3307 25.1508 12.0964 23.5122 11.8157 23.5118C11.5479 23.5113 11.3185 25.0026 11.2303 27.0831C11.0226 27.096 10.7347 27.0725 10.4017 26.8647ZM24.8122 18.8797C24.7242 19.7762 23.8844 20.5691 23.0531 20.9442C22.1897 21.3481 21.2729 21.4724 20.5058 21.5239C19.7796 21.5665 19.2042 21.5642 18.8311 21.4707C18.795 21.2139 18.7718 20.9687 18.7233 20.7013C18.623 20.1966 18.4725 19.6726 18.2319 19.16C18.6545 19.3913 19.3153 19.6078 20.1535 19.6433C21.0239 19.6878 22.0624 19.5038 23.1088 19.1146C23.3711 19.0186 23.6347 18.9114 23.899 18.7959C24.1489 18.6917 24.4675 18.5277 24.6322 18.4703C24.7174 18.4407 24.7586 18.4475 24.7594 18.4477C24.7603 18.4488 24.7548 18.4534 24.7569 18.4542C24.7942 18.5007 24.8402 18.6404 24.8122 18.8797ZM14.7151 28.4104C14.587 28.9848 14.5222 29.8822 14.5591 30.8984C14.622 32.6201 14.9487 34.0059 15.2893 33.9936C15.6297 33.9812 15.8547 32.5752 15.792 30.8535C15.7553 29.8495 15.6276 28.9699 15.4611 28.4049C16.8114 28.3669 17.8915 28.1865 18.2246 27.9497C18.3419 30.5702 18.3633 33.2898 18.4907 34.0766C10.861 33.9908 13.1095 34.0143 11.9904 34.0107C12.2391 33.3117 12.4212 31.2863 12.4248 28.8935C12.425 28.6611 12.4231 28.4338 12.4201 28.209C12.9955 28.3247 13.8038 28.3994 14.7151 28.4104ZM27.6242 35.0316C27.5995 35.056 27.5777 35.0761 27.5514 35.1033C27.2968 35.357 26.9676 35.7457 26.4917 36.0287C26.016 36.3221 25.3596 36.5015 24.5686 36.5587C23.784 36.6216 22.8516 36.5659 21.8596 36.5652C20.873 36.5583 19.9332 36.569 19.078 36.5941C18.6422 36.6095 18.2982 36.6207 18.039 36.5511C17.7755 36.4814 17.5391 36.3362 17.3377 36.149C16.968 35.8082 16.7179 35.4083 16.5185 35.1206C27.7489 35.035 26.6421 35.0451 27.6242 35.0316Z" fill="white"></path><path d="M11.9815 15.3002C12.3046 15.6009 12.5566 15.6539 12.5982 15.5948C12.7254 15.457 12.0332 14.8454 12.0549 13.574C12.0606 12.9725 12.2983 12.2757 12.8852 11.8721C13.4409 11.4528 14.3374 11.4486 15.0389 11.9006C15.7035 12.3227 15.9124 13.1965 15.7347 13.9296C15.572 14.6746 15.0908 15.2242 14.5801 15.4969C14.0582 15.7854 13.5778 15.7524 13.2174 15.682C12.8634 15.6117 12.6539 15.5226 12.5982 15.5948C12.5041 15.7069 12.9737 16.2784 13.798 16.4126C14.1274 16.4812 14.5229 16.4181 14.9127 16.3033C15.7014 16.0443 16.5253 15.2962 16.8341 14.2188C16.9917 13.6876 17.0329 13.0768 16.8653 12.4631C16.7062 11.8517 16.2967 11.2487 15.7219 10.8735C14.6202 10.1346 13.0981 10.1922 12.1938 10.9699C11.2616 11.7195 11.0592 12.8647 11.1852 13.6388C11.3002 14.4321 11.6624 15.0043 11.9815 15.3002Z" fill="white"></path><path d="M28.8287 13.8066C30.1931 13.8066 31.2992 13.5303 31.2992 13.1897C31.2992 12.8491 30.1931 12.5728 28.8287 12.5728C27.4645 12.5728 26.3584 12.8491 26.3584 13.1897C26.3584 13.5303 27.4645 13.8066 28.8287 13.8066Z" fill="white"></path></svg>