<svg xmlns="http://www.w3.org/2000/svg" width="58" height="57" viewBox="0 0 58 57" fill="none"><path d="M17.7143 23.2075C17.2243 23.4759 17.9296 23.2969 10.5221 28.7768C9.18955 29.7624 9.34342 30.8225 10.5972 31.9271L15.7414 36.4691C16.9545 37.5417 18.1589 36.9574 18.0227 35.3211C17.9893 34.9099 17.7165 33.7089 17.9189 33.5131C18.0276 33.43 18.5565 33.4987 18.6462 33.5091C19.0611 33.5568 26.9309 33.9964 27.2989 34.0169V40.3556C24.4906 40.0454 21.9909 41.7651 20.6121 44.2836C20.4131 44.2804 20.2142 44.2741 20.0155 44.2877C17.7113 44.446 15.508 45.7545 14.2654 47.7027C13.6779 48.6247 13.4829 49.5048 13.6865 50.2678L11.7625 50.3381C11.4504 50.3495 11.2068 50.6115 11.2185 50.9237C11.2296 51.2288 11.4799 51.4684 11.7832 51.4684C11.7898 51.4684 11.7971 51.4684 11.8038 51.468L45.6797 50.2298C45.9918 50.2184 46.2355 49.9564 46.2237 49.6442C46.2126 49.3325 45.9815 49.0929 45.6384 49.0999L41.0883 49.2662C41.0981 49.2242 41.1136 49.1842 41.1134 49.1393C41.1045 47.0556 39.7154 45.0573 37.7359 44.28C36.319 43.7247 34.673 43.8217 33.2764 44.4729V34.3429C37.6666 34.5768 38.0109 34.5773 39.354 34.6733C40.4177 34.7721 41.8849 34.9721 42.4767 34.0928C42.8102 33.6007 42.7461 32.6886 42.635 31.6352C42.619 31.4844 42.3228 26.8187 42.3287 26.2617C42.3526 24.1108 41.5812 23.9372 39.5814 24.1372C38.759 24.2184 40.0598 24.0868 33.2764 24.7738V18.965C40.9957 17.2456 38.6135 17.7753 39.9245 17.4843C39.949 17.8517 40.1696 19.3812 40.1924 19.7487C40.2302 20.7669 40.9415 20.9829 41.53 20.5489C41.5927 20.5042 47.503 14.0699 47.5222 14.0487L47.6584 13.9022C48.9964 12.4766 48.7876 11.4899 47.4567 10.4479C45.2951 8.70102 43.8699 7.46097 42.2419 6.35564C41.9629 6.16571 41.6831 5.98941 41.3313 5.91322C40.4518 5.72411 39.6545 6.23527 39.7861 7.55813C39.8519 8.20112 40.0062 8.94758 39.9974 9.56633C39.9959 9.68264 39.9797 9.73233 39.9826 9.73675C39.8164 9.82816 39.191 9.79822 38.9285 9.81257C38.8531 9.81721 33.8683 10.1229 33.274 10.1589C33.2777 9.88993 33.2499 9.49381 33.2977 8.97043C33.3279 8.63769 33.3618 8.26041 33.1843 7.80621C32.2121 5.32214 28.9974 4.66439 27.6463 6.48115C26.8605 7.52169 27.2989 8.9927 27.2989 10.0176V10.528C27.2232 10.5327 16.9595 11.1827 16.8839 11.1906C13.6004 11.2485 13.4816 12.1169 14.0851 14.7701C14.12 14.9244 15.0264 19.8652 15.0862 20.434C15.2822 22.2708 15.9154 22.9076 17.9314 22.3833C18.2476 22.3009 27.2224 20.3102 27.2989 20.2932V25.3768C26.0208 25.5061 20.9365 26.0205 18.923 26.2242C18.923 25.9088 18.9134 24.2828 18.9215 24.1321C19.0041 23.1531 18.3253 22.8571 17.7143 23.2075ZM37.3222 45.3326C38.8571 45.9348 39.976 47.5381 39.9826 49.1444C39.9829 49.2015 39.9998 49.2534 40.0158 49.3054L14.8348 50.2258C14.8291 50.1808 14.8288 50.1356 14.8117 50.0915C14.5724 49.4738 14.964 48.7104 15.2195 48.3107C16.2722 46.6592 18.1398 45.5498 20.0935 45.4155C22.0384 45.2859 24.0481 46.1244 25.3164 47.6165C25.5189 47.8547 25.8766 47.8834 26.1129 47.6809C26.3515 47.4789 26.3802 47.1222 26.1777 46.8841C25.0827 45.5953 23.5228 44.7235 21.8617 44.4075C23.5732 41.698 26.2732 40.9461 28.2456 41.7369C29.7646 42.3468 30.8014 43.8366 31.7818 45.4928C31.1599 46.0825 30.6632 46.8044 30.3495 47.6018C30.2354 47.8922 30.3782 48.2205 30.6689 48.3346C30.9575 48.4491 31.288 48.3067 31.4021 48.0155C31.6738 47.325 32.1103 46.6993 32.6646 46.2061C33.9242 45.0849 35.7984 44.7345 37.3222 45.3326ZM32.1456 43.9293C31.2198 42.5067 30.1674 41.2902 28.6666 40.6879C28.5895 40.6569 28.5083 40.6363 28.4296 40.6092V34.0818C33.0648 34.3301 31.9728 34.2726 32.1456 34.282V43.9293ZM38.7525 33.4903C32.2022 33.1431 21.1656 32.5667 18.4453 32.3515C18.0323 32.3235 17.514 32.3386 17.1386 32.6953C16.4093 33.3981 16.8395 34.7555 16.8964 35.4157C16.9394 35.9447 16.933 36.0127 16.4893 35.6218L11.3451 31.0794C10.4283 30.2704 10.6747 30.0698 11.1942 29.6863C12.4403 28.7639 15.7585 26.3649 16.7161 25.5241C16.7167 25.5997 16.7222 26.7219 16.7242 27.1212C16.7047 27.9167 17.2874 28.3374 17.9727 28.2578C18.0483 28.2502 38.4054 26.2041 38.9322 26.1333C40.4298 25.9276 40.0458 26.1911 40.135 27.6188C40.1392 27.6942 40.4063 32.3438 40.4354 32.597C40.525 33.3922 40.4572 33.592 39.6683 33.5617C39.6674 33.5616 39.6667 33.5621 39.6658 33.5621C39.4037 33.5483 38.9663 33.5027 38.7525 33.4903ZM28.5511 7.15877C29.3737 6.05499 31.4826 6.56692 32.1317 8.21809C32.2082 8.415 32.1986 8.56812 32.1714 8.86884C32.1176 9.47856 32.1479 9.91982 32.1435 10.2278C32.0651 10.2326 28.5071 10.4505 28.4296 10.4552V10.0176C28.4296 9.01638 28.0891 7.77121 28.5511 7.15877ZM20.2878 12.1127C25.3307 11.7638 33.8954 11.2488 38.9933 10.9415C39.1677 10.9319 39.3915 10.9411 39.6227 10.9315C41.3332 10.8434 41.233 9.77021 40.9963 8.10177C40.8423 7.01857 40.8494 6.962 41.0927 7.01891C41.754 7.16037 45.7606 10.5306 46.7596 11.3379C47.5933 11.9911 47.6742 12.2331 46.8347 13.1282L46.6867 13.2868C45.5143 14.5744 43.3987 16.8171 42.6121 17.6993C42.2117 18.089 42.3258 18.3028 42.2419 17.7151L42.0711 16.3061C41.988 15.4711 41.3276 15.1235 40.6533 15.2921C13.5881 21.3015 19.5685 19.9559 18.6779 20.186C17.0785 20.5989 17.4459 20.2461 17.1666 18.7306C16.6672 15.9321 16.4839 14.9021 16.3141 13.9247C16.0907 12.5599 15.8166 12.4699 17.238 12.3041C17.6108 12.3157 18.6023 12.2249 20.2878 12.1127ZM28.4296 20.042L32.1456 19.2163V24.8878L28.4296 25.2627V20.042Z" fill="white"></path><path d="M29.8539 13.9427L30.2949 13.9081C30.6063 13.8838 30.8389 13.6118 30.8146 13.3004C30.7903 12.9894 30.5157 12.7494 30.2066 12.7811L29.7656 12.8157C29.4542 12.84 29.2216 13.1123 29.2459 13.4234C29.2716 13.7467 29.5618 13.9719 29.8539 13.9427Z" fill="white"></path><path d="M19.6476 14.783C19.8228 14.7591 21.0404 14.6461 27.0363 14.1669C27.3477 14.1422 27.5796 13.8695 27.5553 13.5585C27.5295 13.2467 27.2579 13.0203 26.9465 13.0398C19.5357 13.6324 19.4555 13.6593 19.3546 13.6932C19.058 13.7925 18.899 14.1131 18.9983 14.4091C19.0914 14.6856 19.3748 14.8392 19.6476 14.783Z" fill="white"></path></svg>