<svg xmlns="http://www.w3.org/2000/svg" width="48" height="49" viewBox="0 0 48 49" fill="none"><path d="M43.5701 22.4035C43.7206 18.905 43.2436 16.3739 39.7171 14.8667C41.5634 13.3982 41.66 10.1291 39.4871 8.92909C39.0985 8.63454 38.6255 8.49201 38.1605 8.37299C37.9698 8.39945 37.7525 8.37527 37.5727 8.42667C37.5264 8.47304 37.4555 8.44544 37.4081 8.46801C37.3731 8.51012 37.3224 8.51676 37.2711 8.53326C37.3647 8.58703 37.4619 8.68158 37.5229 8.77755C37.7924 8.96769 38.1052 9.11439 38.3721 9.31145C38.89 9.73175 39.3508 10.2515 39.6217 10.8684C40.1551 12.2794 39.3101 14.0412 37.8133 14.3831C36.2473 14.6684 34.8903 13.8134 34.6072 12.2132C34.3169 10.5718 35.6897 9.08234 37.15 8.60818C37.1235 8.58627 37.0821 8.604 37.0597 8.57252C37.0731 8.52947 37.1356 8.49798 37.0624 8.48167C37.1337 8.45663 37.2081 8.46147 37.271 8.41235C36.6769 8.0756 35.2775 8.67731 34.8046 9.12236C32.963 10.4619 33.1339 13.5024 34.8632 14.8823C33.2277 15.6134 31.7011 17.1765 31.4947 19.0104C30.1922 17.8022 28.5753 16.9287 26.8607 16.4685C31.6986 13.8383 29.7718 6.279 24.3334 6.07265C18.5168 5.79166 15.9502 13.653 21.2234 16.494C19.4771 16.9842 17.8271 17.8766 16.4929 19.1085C16.4028 17.1355 14.9044 15.4607 13.0843 14.8154C14.3155 13.8899 14.7792 12.1969 14.2978 10.7548C13.8681 9.36911 12.3277 8.30746 10.9059 8.72264C10.9296 8.74701 10.9706 8.73345 10.988 8.76693C10.9723 8.80647 10.9099 8.83312 10.9748 8.85702C10.9116 8.87513 10.8439 8.86299 10.789 8.90642C10.982 9.09106 11.2604 9.04564 11.4901 9.13952C11.5745 9.22904 11.6878 9.24298 11.8092 9.2739C12.0269 9.3417 12.2007 9.51382 12.3784 9.65124C13.2246 10.3687 13.6522 11.6336 13.2401 12.7033C12.7575 14.0069 11.1024 14.7364 9.82137 14.1893C7.92018 13.39 7.8224 11.0518 9.1493 9.69021C9.43616 9.46717 9.73744 9.23473 10.0974 9.15081C10.2212 9.0334 10.3887 9.00145 10.5303 8.92055C10.563 8.87001 10.6293 8.89078 10.6677 8.86394C10.6955 8.8187 10.7417 8.80713 10.7889 8.7857C10.3612 8.35033 9.68889 8.41187 9.13943 8.60031C8.34256 8.78599 7.71192 9.43957 7.34341 10.1468C6.49172 11.6913 6.91742 13.7571 8.31838 14.8331C3.95221 16.7545 4.56131 20.1273 4.64306 24.102C4.6534 25.2133 4.64097 26.8322 4.668 27.9305C4.701 28.5222 4.59716 29.2429 4.86042 29.793C5.28213 30.7186 6.34065 30.9619 7.26593 30.8631C9.13232 30.8792 11.0153 30.6425 12.8616 30.4176C12.7984 31.6418 13.0567 32.7743 14.2337 33.3686C15.1858 33.8718 16.2644 33.4928 17.2752 33.4496C17.3124 34.743 17.3217 36.1934 17.3216 37.4956C17.1831 38.9334 17.8577 40.2317 19.3884 40.4204C21.4011 40.4281 23.4694 40.38 25.4783 40.362C25.994 40.3638 27.3522 40.3384 27.8835 40.3335C28.9542 40.4489 30.1084 39.9178 30.3947 38.8154C30.4423 38.6497 30.471 38.4653 30.471 38.2928C30.4265 37.3178 30.3137 36.3529 30.2516 35.3796C30.5487 34.8622 30.8579 34.3536 31.1652 33.8423C33.3984 34.7427 35.6123 33.2388 35.3084 30.781C36.7409 30.8291 38.1864 30.8528 39.6221 30.9576C41.1479 30.9862 43.1731 31.2396 43.4529 29.2186C43.483 26.9673 43.5437 24.6566 43.5701 22.4035ZM22.4273 16.1241C17.9473 13.7694 19.294 7.13363 24.4947 7.37536C29.3154 7.97802 29.9081 13.982 25.8324 16.2458C24.7702 16.0785 23.6586 16.0713 22.5931 16.2146C22.5381 16.1837 22.483 16.1529 22.4273 16.1241ZM13.6147 23.2685C12.6652 25.4021 12.8111 27.7675 12.8557 30.042C11.3311 29.9849 9.79719 29.9389 8.26821 29.8589C7.47219 29.7493 5.81756 30.2214 5.78048 28.998C5.79167 27.2613 5.83387 25.4551 5.87104 23.7152C5.89143 23.0842 5.88773 22.0504 5.88546 21.4208C5.83994 20.3302 5.79404 19.1913 6.37745 18.2191C8.50766 14.2863 14.9837 15.242 16.0641 19.5131C15.0398 20.6116 14.1802 21.8731 13.6147 23.2685ZM17.929 23.5184C17.1274 24.2323 17.1618 25.356 17.2052 26.3398C17.2567 28.5669 17.2471 30.8303 17.2779 33.0586C16.9598 33.0368 16.6099 33.063 16.2899 33.0405C16.1215 33.0036 15.938 32.9714 15.7573 33.0002C14.9861 33.0983 14.2272 32.5611 13.9516 31.8562C13.815 31.3512 13.8866 30.4473 13.8735 29.9128C13.8859 27.6821 13.7949 25.4195 14.8562 23.3813C18.9401 15.3013 29.2469 15.7422 33.6282 23.3119C32.5477 25.196 31.4784 27.1561 30.4191 29.0463C30.567 27.9701 30.616 26.8742 30.7302 25.7955C30.9739 24.5026 30.1738 23.1304 28.8298 22.9145C27.5132 22.8087 26.1542 22.876 24.8306 22.8401C23.5146 22.8144 21.9152 22.8097 20.6015 22.8186C19.6741 22.7984 18.6113 22.7828 17.929 23.5184ZM29.4694 34.1681C29.0827 35.0571 28.5465 35.7895 27.7716 36.3755C27.7503 35.8599 27.796 35.3543 27.7368 34.8405C27.2143 35.5098 27.0367 36.3386 26.8139 37.1564C26.5887 37.6305 26.9967 38.1514 27.4746 37.7972C28.2814 37.2812 29.1215 36.7636 29.812 36.0972C29.6292 37.8297 30.3255 39.6143 27.7519 39.3513C26.5532 39.3308 24.96 39.3349 23.7615 39.3186C22.608 39.3059 21.4545 39.2999 20.301 39.2991C19.3875 39.3655 18.4957 39.1521 18.512 38.0531C18.5934 34.3595 18.5294 30.565 18.5426 26.8731C18.6098 25.9729 18.174 24.3352 19.5164 24.1782C22.3758 24.1526 25.6054 24.1994 28.4463 24.1171C28.6212 24.1311 28.8026 24.1382 28.9689 24.1997C29.3731 24.3697 29.7021 24.7963 29.7191 25.2417C29.7718 26.7775 29.735 28.3167 29.985 29.832C29.1664 31.3624 28.3855 33.032 27.7843 34.623C27.8298 34.5897 27.854 34.5172 27.9034 34.4957C27.9329 34.5634 27.8987 34.6346 27.9812 34.5394C27.9401 34.6523 27.864 34.7642 27.8509 34.8808C28.1633 34.6169 28.3806 34.2497 28.5669 33.8925C28.9989 33.3011 29.3241 32.636 29.7443 32.0286C31.778 28.8479 33.632 25.5159 35.6071 22.2911C35.7255 22.3623 35.9691 22.5079 36.0886 22.5791C33.9304 26.4221 31.6329 30.3243 29.4694 34.1681ZM35.4493 22.1963C35.4504 22.197 35.4537 22.199 35.4548 22.1996C35.4534 22.199 35.4506 22.1972 35.4493 22.1963ZM34.1588 28.8461C34.1636 29.6249 34.0515 30.4001 34.0485 31.1786C34.0875 31.6102 33.8784 31.9935 33.6048 32.3153C33.1155 32.8501 32.3466 32.7459 31.7199 32.9142C32.5139 31.5836 33.4081 30.0049 34.1691 28.6547C34.1692 28.7187 34.1585 28.7823 34.1588 28.8461ZM42.3708 29.0731C42.3525 29.8761 41.4239 29.9998 40.7942 29.9497C40.7942 29.9498 39.7023 29.9716 39.7023 29.9716C38.2231 29.9915 36.7595 30.2311 35.2908 30.3819C35.2878 29.7714 35.2699 29.1428 35.2149 28.5382C35.2088 28.0797 35.1953 27.5922 34.9999 27.1608C35.5574 26.1304 36.1622 25.0723 36.7404 24.0498C37.0979 23.3649 37.8657 22.4988 37.1575 21.7824C36.967 21.5826 36.6146 21.4441 36.3841 21.2971C35.9543 21.0062 35.3659 20.844 34.9253 21.2062C34.7321 21.3434 34.6182 21.5875 34.5023 21.7864C34.3536 22.0423 34.0355 22.6043 33.885 22.8641C33.5111 21.5835 32.8222 20.3845 31.9075 19.4124C32.7046 17.4111 34.672 15.8846 36.8402 15.7517C39.3017 15.5691 42.0286 17.2646 42.2394 19.8633C42.348 22.8957 42.3054 26.0367 42.3708 29.0731ZM27.2951 26.82C27.314 26.8857 27.314 26.8857 27.3356 26.9169C27.3194 26.9359 27.3035 26.945 27.2932 26.9887C27.2776 27.0139 27.2547 26.9907 27.2435 27.0384C27.233 27.0693 27.2191 27.0774 27.2046 27.0806C27.1559 27.0794 27.117 27.1578 27.0728 27.1919C26.9164 27.1918 26.7773 27.2709 26.6185 27.2719C26.3922 27.3899 26.1191 27.4505 25.8475 27.4444C25.2702 27.4379 24.6819 27.4728 24.109 27.4689C23.5293 27.5373 22.9536 27.3851 22.3738 27.3801C22.1214 27.3419 21.8147 27.3941 21.5939 27.3095C21.5546 27.2814 21.4929 27.2791 21.4455 27.277C21.333 27.2767 21.2291 27.1994 21.12 27.2091C21.0822 27.206 21.0288 27.2637 21.0116 27.2041C20.9141 27.1069 20.8089 27.2549 20.7245 27.0377C20.7414 26.9952 20.7632 27.0013 20.7895 26.9787C20.7577 26.9393 20.8208 26.8821 20.7637 26.8479C20.7687 26.7849 20.8435 26.7618 20.8799 26.7365C21.7082 26.0976 22.7926 26.3556 23.7579 26.2003C24.7344 26.2092 26.8299 25.6882 27.2951 26.82ZM27.2951 30.097C27.314 30.1628 27.314 30.1628 27.3356 30.1939C27.3194 30.2129 27.3035 30.222 27.2932 30.2658C27.2776 30.2909 27.2547 30.2677 27.2435 30.3154C27.233 30.3464 27.2191 30.3544 27.2046 30.3576C27.1559 30.3564 27.1169 30.4348 27.0728 30.4689C26.9164 30.4688 26.7773 30.5479 26.6185 30.5489C26.3922 30.6669 26.1191 30.7275 25.8475 30.7214C25.2702 30.7149 24.6819 30.7498 24.109 30.7459C23.5293 30.8144 22.9536 30.6621 22.3738 30.6571C22.1214 30.6189 21.8147 30.6712 21.5939 30.5865C21.5547 30.5584 21.4929 30.5561 21.4455 30.554C21.333 30.5538 21.2291 30.4764 21.12 30.4861C21.0822 30.483 21.0288 30.5407 21.0116 30.4811C20.9141 30.3839 20.8088 30.5319 20.7245 30.3147C20.7414 30.2723 20.7632 30.2783 20.7895 30.2557C20.7578 30.2163 20.8208 30.1591 20.7637 30.1249C20.7687 30.062 20.8435 30.0388 20.8799 30.0136C21.7082 29.3746 22.7926 29.6327 23.7579 29.4774C24.7345 29.4861 26.8299 28.9651 27.2951 30.097ZM25.0522 33.374C25.0646 33.4397 25.0646 33.4397 25.0788 33.4708C25.0652 33.4798 25.0591 33.5359 25.0397 33.5548C25.0315 33.556 25.0245 33.5636 25.018 33.5924C25.0111 33.6233 25.002 33.6313 24.9924 33.6346C24.9604 33.6336 24.9345 33.7122 24.9057 33.7458C24.829 33.7352 24.7708 33.7955 24.7032 33.8091C24.6654 33.8166 24.6147 33.8117 24.5873 33.8421C24.5655 33.8894 24.5421 33.8472 24.5175 33.8871C24.4889 33.8838 24.4654 33.911 24.4377 33.9408C24.3271 33.965 24.2178 34.0075 24.0987 33.9983C23.7205 33.9918 23.3277 34.0267 22.9536 34.0228C22.6275 34.0841 22.305 33.9759 21.9807 33.9442C21.7684 33.941 21.5506 33.9008 21.3411 33.8958C21.3258 33.9041 21.311 33.903 21.2972 33.8633C21.2523 33.8185 21.173 33.8395 21.1146 33.8057C21.0718 33.7999 21.0312 33.7439 20.985 33.7631C20.9569 33.7633 20.9216 33.8155 20.9137 33.758C20.8966 33.6936 20.8353 33.7407 20.795 33.7188C20.749 33.6826 20.6913 33.57 20.7674 33.5326C20.7481 33.4955 20.7861 33.4345 20.7504 33.4018C20.7509 33.3456 20.8013 33.3154 20.8269 33.2905C21.0425 33.0786 21.2616 32.8678 21.5822 32.8756C21.9366 32.8019 22.3574 32.8338 22.7224 32.7543C23.493 32.7087 24.809 32.329 25.0522 33.374ZM25.0522 36.6509C25.0646 36.7166 25.0646 36.7166 25.0788 36.7477C25.0653 36.7568 25.0591 36.8129 25.0397 36.8317C25.0315 36.8329 25.0245 36.8406 25.018 36.8694C25.0111 36.9003 25.002 36.9084 24.9924 36.9116C24.9604 36.9105 24.9346 36.9893 24.9057 37.0228C24.829 37.0123 24.7708 37.0725 24.7032 37.0861C24.6654 37.0935 24.6147 37.0886 24.5873 37.119C24.5655 37.1663 24.5421 37.1241 24.5175 37.164C24.489 37.1607 24.4654 37.1879 24.4377 37.2178C24.3271 37.2419 24.2178 37.2845 24.0987 37.2754C23.7205 37.2688 23.3277 37.3037 22.9536 37.2998C22.6275 37.3612 22.305 37.2529 21.9807 37.2212C21.7684 37.218 21.5506 37.1779 21.3411 37.1729C21.3258 37.1811 21.311 37.1801 21.2972 37.1403C21.2523 37.0955 21.173 37.1165 21.1146 37.0828C21.0718 37.0768 21.0312 37.0209 20.985 37.0401C20.9569 37.0404 20.9216 37.0925 20.9137 37.0351C20.8966 36.9707 20.8352 37.0177 20.795 36.9958C20.7489 36.9595 20.6913 36.8471 20.7674 36.8096C20.7481 36.7726 20.7861 36.7115 20.7504 36.6789C20.751 36.6226 20.8013 36.5924 20.8269 36.5675C21.0426 36.3557 21.2616 36.1448 21.5822 36.1527C21.9366 36.079 22.3574 36.1109 22.7224 36.0314C23.493 35.9856 24.809 35.6059 25.0522 36.6509ZM42.9864 37.9299C43.2617 42.68 37.1158 44.6879 34.4178 40.8207C33.408 39.375 33.3676 37.3986 34.2399 35.8795C34.7573 34.9796 35.5907 34.2658 36.608 34.0148C37.0756 33.8957 37.6004 33.8207 38.0612 33.9788C38.1577 34.0671 38.287 34.1427 38.4032 34.1931C38.1035 34.3391 37.7749 34.402 37.489 34.5871C37.0685 34.6754 36.7223 34.9305 36.3684 35.1591C34.5614 36.6449 34.4113 39.709 36.5153 41.0222C38.0185 42.0673 40.2486 41.5676 41.2836 40.0928C42.4071 38.5979 41.9332 36.3518 40.5185 35.2292C40.2811 35.0479 40.0407 34.8401 39.7539 34.7448C39.5998 34.7014 39.4504 34.6748 39.3289 34.5763C39.0284 34.4596 38.6762 34.5074 38.4032 34.3139C38.4762 34.2708 38.5636 34.2845 38.6445 34.2674C38.5623 34.2425 38.6359 34.2206 38.6599 34.1774C38.6371 34.1436 38.5843 34.1566 38.5535 34.1318C40.8377 33.656 42.8965 35.6767 42.9864 37.9299ZM40.0028 36.9802C39.9868 36.9941 40.0491 37.0598 40.0305 37.0743C40.0057 37.104 40.0486 37.177 40.0535 37.2253C39.9896 37.2887 39.992 37.3835 39.9527 37.4564C39.9036 37.5163 39.8955 37.5677 39.8887 37.6341C39.8641 37.6765 39.8529 37.7266 39.8588 37.7895C39.7819 37.973 39.6665 38.1369 39.5385 38.2905C39.3201 38.555 39.1279 38.8787 38.9039 39.1335C38.7186 39.4145 38.5078 39.6769 38.2521 39.9071C37.7515 40.5065 37.3294 39.9925 36.9364 39.6001C36.8284 39.4505 36.6067 39.345 36.5511 39.188C36.5149 39.087 36.3979 39.0214 36.3679 38.9053C36.3576 38.8467 36.2325 38.8779 36.2637 38.8108C36.2723 38.6914 36.1063 38.7498 36.1954 38.5369C36.2323 38.5132 36.2411 38.5286 36.2728 38.5247C36.279 38.4813 36.3535 38.463 36.3409 38.4112C36.4334 38.3436 36.5308 38.4079 36.6354 38.3924C37.0208 38.3536 37.3294 38.5502 37.6132 38.7603C38.1199 38.025 38.8531 36.3566 39.9656 36.8914C39.9609 36.9128 40.0044 36.9494 40.0028 36.9802ZM14.2402 37.9299C14.5155 42.68 8.36959 44.6879 5.67161 40.8207C4.66184 39.375 4.62144 37.3986 5.4938 35.8794C6.0112 34.9796 6.84459 34.2657 7.86195 34.0148C8.32947 33.8957 8.85427 33.8207 9.31516 33.9788C9.4116 34.0671 9.54095 34.1427 9.65712 34.1931C9.35745 34.3391 9.02876 34.402 8.74294 34.5871C8.32245 34.6754 7.97622 34.9305 7.62231 35.1591C5.81528 36.6449 5.66535 39.709 7.7692 41.0222C9.27239 42.0673 11.5026 41.5676 12.5375 40.0928C13.661 38.5979 13.1872 36.3518 11.7724 35.2292C11.535 35.0479 11.2946 34.8401 11.0078 34.7448C10.8537 34.7014 10.7043 34.6748 10.5828 34.5763C10.2823 34.4596 9.93014 34.5074 9.65712 34.3139C9.73014 34.2708 9.81748 34.2845 9.89837 34.2674C9.81625 34.2425 9.88984 34.2206 9.91383 34.1774C9.89098 34.1436 9.83825 34.1566 9.80743 34.1318C12.0915 33.656 14.1503 35.6768 14.2402 37.9299ZM11.4081 36.2865C11.4072 36.2972 11.4061 36.3076 11.4051 36.3184C11.4466 36.3303 11.4576 36.4047 11.5092 36.3999C11.5666 36.4969 11.4961 36.5836 11.5018 36.687C11.4925 36.9909 11.3715 37.276 11.1479 37.4674C10.9584 37.7214 10.7319 37.9664 10.4981 38.1911C10.6718 38.4944 11.0085 38.7505 11.1427 39.0427C11.1448 39.1108 11.2195 39.1568 11.2391 39.2264C11.2671 39.2643 11.2579 39.3355 11.3063 39.3582C11.3268 39.3804 11.3916 39.3709 11.3566 39.4179C11.3232 39.4776 11.4043 39.492 11.4181 39.5386C11.4278 39.599 11.3885 39.7234 11.3045 39.6892C11.2922 39.7301 11.2193 39.7427 11.223 39.7932C11.1284 39.8517 11.0439 39.7858 10.9422 39.7939C10.4201 39.8115 10.1091 39.3939 9.73545 39.1015C9.41881 39.4294 9.0832 39.7777 8.64735 39.9324C8.29865 39.9493 8.16721 39.964 7.86849 39.7617C7.86432 39.7395 7.86669 39.7246 7.84222 39.6874C7.83407 39.6608 7.86166 39.6662 7.83521 39.6256C7.81965 39.5977 7.82174 39.5847 7.82733 39.5749C7.85436 39.5507 7.82231 39.4728 7.82278 39.4257C7.89201 39.375 7.90092 39.2835 7.9473 39.2202C7.97319 39.1849 8.01804 39.1506 8.02079 39.105C8.09524 38.7378 8.45285 38.4959 8.71487 38.2237C8.35564 37.9071 7.98087 37.5564 7.81956 37.0987C7.8078 36.7561 7.80135 36.6243 8.00059 36.3339C8.0224 36.3291 8.03691 36.3311 8.07361 36.3062C8.09979 36.2975 8.09429 36.3246 8.13421 36.2976C8.16171 36.2815 8.17442 36.2832 8.184 36.2884C8.20714 36.3141 8.28395 36.2807 8.32995 36.2798C8.41017 36.3631 8.53051 36.376 8.61387 36.4603C9.06622 36.5279 9.32274 37.016 9.68178 37.2925C10.0292 37.0512 10.3577 36.7784 10.6784 36.5073C10.6822 36.4737 10.7264 36.4969 10.7563 36.4977C10.8153 36.4668 10.8637 36.4205 10.9283 36.394C10.9681 36.3647 11.0408 36.3727 11.0654 36.3228C11.0886 36.302 11.0805 36.2352 11.1281 36.2702C11.1893 36.303 11.2054 36.2196 11.2536 36.2051C11.2949 36.1955 11.4272 36.2228 11.4081 36.2865Z" fill="white"></path></svg>